<?xml version="1.0" encoding="UTF-8"?>
<svg version="1.1" xmlns="http://www.w3.org/2000/svg" width="366" height="330">
<path d="M0 0 C5.59137949 3.37887664 10.95614309 9.07457238 12.5625 15.5 C14.43355946 24.8552973 12.63739315 31.54363644 7.390625 39.45703125 C5.5625 41.5 5.5625 41.5 2.50292969 43.14331055 C-0.79191751 45.27832182 -0.79191751 45.27832182 -1.2421875 49.171875 C-1.29494684 50.53042797 -1.31764014 51.89043268 -1.3125 53.25 C-1.333125 53.94738281 -1.35375 54.64476562 -1.375 55.36328125 C-1.42189655 57.07500527 -1.4332404 58.78763898 -1.4375 60.5 C-0.34914856 60.48889694 0.73920288 60.47779388 1.86053467 60.46635437 C12.1580045 60.36463784 22.45537131 60.28987192 32.75323105 60.24093914 C38.04647646 60.21493574 43.33931367 60.17970801 48.63232422 60.12280273 C53.74818132 60.06815133 58.8636478 60.03850998 63.97977448 60.02561378 C65.92367952 60.01643306 67.86756516 59.99850624 69.81130219 59.97134972 C83.94216434 59.78192093 95.27279853 61.01988463 106.53125 70.50390625 C115.15361191 78.97703498 119.60027495 89.57179804 119.93891907 101.64837646 C119.96274127 105.2053821 119.8977078 108.75668194 119.8125 112.3125 C119.79237329 113.79489733 119.77413358 115.27732151 119.7578125 116.75976562 C119.71437631 120.34041554 119.6457031 123.92002675 119.5625 127.5 C120.14692871 127.67885742 120.73135742 127.85771484 121.33349609 128.04199219 C136.00530206 132.70056931 145.70981367 141.43152264 152.828125 154.89453125 C159.02083534 167.32268294 159.46433252 182.45680913 155.59375 195.69921875 C150.56124197 209.36705307 141.53081495 219.82103951 128.5625 226.5 C125.57224348 227.71168137 122.67757029 228.63186566 119.5625 229.5 C119.60890625 230.14324219 119.6553125 230.78648437 119.703125 231.44921875 C120.18874855 243.60715124 116.68639635 254.36061661 108.5625 263.5 C96.79311128 275.06568776 83.80451947 276.23712873 68.19897461 276.13110352 C66.26433152 276.13625017 64.32969313 276.14353705 62.39506531 276.15278625 C57.17188479 276.17121207 51.94921843 276.15841799 46.72605968 276.13869596 C41.24327607 276.12223742 35.76052319 276.13113223 30.27772522 276.13621521 C21.0739832 276.14072775 11.87044498 276.12491746 2.66674805 276.09692383 C-7.95455734 276.06486634 -18.57549551 276.06489421 -29.19682699 276.0821386 C-39.4409563 276.09803383 -49.68495174 276.09125144 -59.92907524 276.07420158 C-64.27690662 276.06735207 -68.62463001 276.06834189 -72.97245979 276.07574654 C-78.09691853 276.08344019 -83.22096217 276.07118296 -88.34535027 276.04389763 C-90.21935673 276.03704531 -92.09340219 276.03688173 -93.96740723 276.04411316 C-109.61490246 276.09751056 -120.42574477 273.96441554 -132.15234375 262.87890625 C-138.26757273 256.39022818 -142.59935023 247.15903173 -142.53515625 238.171875 C-142.53193359 237.37265625 -142.52871094 236.5734375 -142.52539062 235.75 C-142.51282227 234.5125 -142.51282227 234.5125 -142.5 233.25 C-142.49548828 232.40953125 -142.49097656 231.5690625 -142.48632812 230.703125 C-142.47457961 228.63538599 -142.45664522 226.56768376 -142.4375 224.5 C-143.675 224.314375 -144.9125 224.12875 -146.1875 223.9375 C-157.12397094 221.44803644 -166.65281387 214.26545021 -173.4375 205.5 C-182.11323072 191.69245186 -185.53712675 177.62266719 -182.9375 161.375 C-179.26552927 146.68711707 -170.33742962 134.52934008 -157.4375 126.5 C-147.27252538 121.5 -147.27252538 121.5 -142.4375 121.5 C-142.45844727 120.70940186 -142.47939453 119.91880371 -142.50097656 119.10424805 C-142.58496278 115.46546536 -142.63642088 111.82688757 -142.6875 108.1875 C-142.72101563 106.94419922 -142.75453125 105.70089844 -142.7890625 104.41992188 C-142.92364294 91.60113476 -139.47349853 81.02123981 -130.625 71.5625 C-122.11200273 63.59872836 -113.29450396 60.33600296 -101.81347656 60.38647461 C-100.94482468 60.38632858 -100.07617279 60.38618256 -99.18119812 60.3860321 C-96.31348157 60.38672809 -93.44583019 60.39450585 -90.578125 60.40234375 C-88.5884403 60.40420904 -86.59875515 60.40563242 -84.60906982 60.40663147 C-79.37464121 60.41044788 -74.14024039 60.42027071 -68.90582275 60.43133545 C-63.56352108 60.44156838 -58.22121491 60.44613313 -52.87890625 60.45117188 C-42.3984253 60.46189374 -31.91796496 60.47895968 -21.4375 60.5 C-21.44352367 58.07848587 -21.49093688 55.66972788 -21.5625 53.25 C-21.55992187 52.56808594 -21.55734375 51.88617188 -21.5546875 51.18359375 C-21.58529591 48.87360545 -21.58529591 48.87360545 -22.4375 45.5 C-25.27414825 43.07045171 -25.27414825 43.07045171 -28.4375 41.5 C-34.12168329 35.50002875 -36.96430571 29.24126539 -36.75390625 20.9375 C-35.84077933 13.90304074 -32.97466275 7.98246508 -27.4375 3.5 C-19.59317287 -2.14791553 -9.20253644 -4.11215703 0 0 Z M-21.4375 17.5 C-23.01205739 20.64911479 -22.78549118 23.02008816 -22.4375 26.5 C-20.66469439 29.47672584 -18.58141985 31.92804007 -15.4375 33.5 C-10.45640741 33.87593152 -7.38076136 33.6765161 -3.4375 30.5 C-0.69932002 27.3054567 -0.4375 25.76320917 -0.4375 21.5 C-0.9875378 18.50597982 -1.6586955 17.15750374 -3.375 14.5 C-7.14269094 12.03946714 -9.62686582 11.78865083 -14.05859375 12 C-17.67147926 12.75935853 -19.29378906 14.59561743 -21.4375 17.5 Z M-122.75 83.875 C-129.16909287 91.3424834 -128.88017833 99.24564914 -128.85742188 108.63012695 C-128.86476947 110.06319843 -128.8733577 111.496264 -128.88308716 112.92932129 C-128.90524175 116.80760645 -128.90823683 120.68567874 -128.90633965 124.56401849 C-128.90621964 127.80928485 -128.91479617 131.05450662 -128.92311716 134.29976052 C-128.94233021 141.96118268 -128.94524305 149.6224959 -128.93847656 157.28393555 C-128.93184025 165.1689952 -128.95468816 173.05358654 -128.99179029 180.93855125 C-129.02255363 187.72438244 -129.03384007 194.51006352 -129.02995348 201.29596299 C-129.02789246 205.34173748 -129.03326403 209.38714759 -129.05784607 213.43285561 C-129.08022039 217.24080962 -129.07814803 221.04800621 -129.05791855 224.85596466 C-129.054527 226.24663833 -129.05951701 227.63736405 -129.07390213 229.02796745 C-129.16601353 238.5992874 -128.16166951 246.39384788 -121.46114349 253.63615894 C-113.37935242 261.30377117 -104.75651651 262.61971217 -93.82951355 262.63371277 C-92.72856644 262.6371111 -92.72856644 262.6371111 -91.60537797 262.64057809 C-89.16292772 262.64687326 -86.7205336 262.64609163 -84.27807617 262.64526367 C-82.51989165 262.64825796 -80.76170779 262.65166111 -79.00352478 262.65544128 C-74.23895347 262.66425798 -69.47440014 262.66661842 -64.70982146 262.66725707 C-61.72987352 262.66796889 -58.74993011 262.67010572 -55.76998329 262.67275429 C-45.36480037 262.68199998 -34.95963025 262.68609014 -24.55444336 262.68530273 C-14.87000623 262.68470214 -5.18562484 262.69525238 4.49879819 262.7110464 C12.82599327 262.72414086 21.15317018 262.72948583 29.48037547 262.72884732 C34.44823365 262.7285929 39.41604227 262.73141344 44.38389015 262.74202538 C49.05836348 262.75173846 53.7327402 262.75176358 58.40721703 262.74450874 C60.11717241 262.74346689 61.82713392 262.74580194 63.53707886 262.7518692 C77.00580719 262.79654223 87.98836169 262.77819596 98.5625 253.5 C103.72565837 247.91363193 105.80572075 241.91395983 105.82992554 234.37896729 C105.83845551 233.17353271 105.84698547 231.96809814 105.85577393 230.72613525 C105.85486755 229.41691101 105.85396118 228.10768677 105.85302734 226.75878906 C105.85901681 225.35542444 105.86582331 223.9520631 105.87338257 222.54870605 C105.89100959 218.74684055 105.89573661 214.94506515 105.89701414 211.14316273 C105.89843843 208.76406996 105.90271334 206.3849999 105.90800858 204.00591278 C105.92649956 195.69500786 105.93468056 187.38416699 105.93310547 179.07324219 C105.93190506 171.34448458 105.95298992 163.61600668 105.9845928 155.8873198 C106.01080875 149.23740276 106.02147051 142.58757676 106.02019465 135.93760848 C106.01968648 131.97234616 106.0252887 128.00733242 106.04655075 124.04212189 C106.06602264 120.30896753 106.06599728 116.57629655 106.05151749 112.84312439 C106.04845458 110.83405189 106.06504391 108.82497889 106.08239746 106.815979 C106.01472697 97.00123928 104.27600674 88.40443253 97.39453125 81.03515625 C89.53223343 74.44691948 80.92576757 73.37906324 70.95451355 73.36628723 C69.85356644 73.3628889 69.85356644 73.3628889 68.73037797 73.35942191 C66.28792772 73.35312674 63.8455336 73.35390837 61.40307617 73.35473633 C59.64489165 73.35174204 57.88670779 73.34833889 56.12852478 73.34455872 C51.36395347 73.33574202 46.59940014 73.33338158 41.83482146 73.33274293 C38.85487352 73.33203111 35.87493011 73.32989428 32.89498329 73.32724571 C22.48980037 73.31800002 12.08463025 73.31390986 1.67944336 73.31469727 C-8.00499377 73.31529786 -17.68937516 73.30474762 -27.37379819 73.2889536 C-35.70099327 73.27585914 -44.02817018 73.27051417 -52.35537547 73.27115268 C-57.32323365 73.2714071 -62.29104227 73.26858656 -67.25889015 73.25797462 C-71.93336348 73.24826154 -76.6077402 73.24823642 -81.28221703 73.25549126 C-82.99217241 73.25653311 -84.70213392 73.25419806 -86.41207886 73.2481308 C-106.5158266 73.10063179 -106.5158266 73.10063179 -122.75 83.875 Z M-156.7734375 146.75 C-163.63475043 153.96565303 -167.41190243 162.62128956 -167.75 172.625 C-166.8107977 184.27110855 -163.01941012 193.38619407 -154.4375 201.5 C-150.52513632 204.45438304 -147.21691289 206.30514678 -142.4375 207.5 C-142.4375 184.73 -142.4375 161.96 -142.4375 138.5 C-147.29866466 138.5 -153.32234582 143.5983181 -156.7734375 146.75 Z M119.5625 145.5 C119.5625 167.28 119.5625 189.06 119.5625 211.5 C129.12255769 207.67597693 135.60892033 200.3198975 139.6875 190.90234375 C143.39368198 180.72688877 141.51179684 171.26931324 137.5625 161.5 C133.37006098 154.06959655 127.43668054 148.64967221 119.5625 145.5 Z " fill="#77F650" transform="translate(201.4375,21.5)"/>
<path d="M0 0 C0.680625 -0.01933594 1.36125 -0.03867188 2.0625 -0.05859375 C4.85982755 0.65765746 5.51334858 2.01100848 7 4.4375 C7.34057617 6.81933594 7.34057617 6.81933594 7.29296875 9.421875 C7.2784668 10.82373047 7.2784668 10.82373047 7.26367188 12.25390625 C7.23853516 13.22199219 7.21339844 14.19007813 7.1875 15.1875 C7.16719727 16.66283203 7.16719727 16.66283203 7.14648438 18.16796875 C7.11118726 20.59170415 7.06188054 23.01432145 7 25.4375 C7.65073486 25.42178955 8.30146973 25.4060791 8.97192383 25.38989258 C11.91869424 25.32755351 14.86532598 25.28851316 17.8125 25.25 C18.83666016 25.22486328 19.86082031 25.19972656 20.91601562 25.17382812 C22.39038086 25.15932617 22.39038086 25.15932617 23.89453125 25.14453125 C24.80050049 25.1288208 25.70646973 25.11311035 26.63989258 25.09692383 C29 25.4375 29 25.4375 30.79174805 26.7409668 C32.83870816 29.61514861 32.41714528 32.04074554 32 35.4375 C30.64453125 37.64453125 30.64453125 37.64453125 28 39.4375 C24.4053176 39.93225117 20.86968887 39.81281546 17.25 39.6875 C16.26644531 39.66945312 15.28289062 39.65140625 14.26953125 39.6328125 C11.84536217 39.58574126 9.42317941 39.52000742 7 39.4375 C7.02094727 40.05270508 7.04189453 40.66791016 7.06347656 41.30175781 C7.14677017 44.09683809 7.19870013 46.89165715 7.25 49.6875 C7.30027344 51.13962891 7.30027344 51.13962891 7.3515625 52.62109375 C7.45038847 59.78597651 7.45038847 59.78597651 5.171875 63.08203125 C2.21814948 64.92545347 0.42262016 64.93663211 -3 64.4375 C-5.16308594 63.22924805 -5.16308594 63.22924805 -7 61.4375 C-7.45410156 59.07739258 -7.45410156 59.07739258 -7.390625 56.33203125 C-7.37128906 54.85766602 -7.37128906 54.85766602 -7.3515625 53.35351562 C-7.31804687 52.32935547 -7.28453125 51.30519531 -7.25 50.25 C-7.23195313 49.21423828 -7.21390625 48.17847656 -7.1953125 47.11132812 C-7.14814437 44.55245716 -7.08234057 41.99544158 -7 39.4375 C-7.61520508 39.45321045 -8.23041016 39.4689209 -8.86425781 39.48510742 C-11.65941121 39.54757926 -14.45441755 39.58652868 -17.25 39.625 C-18.70212891 39.66270508 -18.70212891 39.66270508 -20.18359375 39.70117188 C-21.11816406 39.71083984 -22.05273438 39.72050781 -23.015625 39.73046875 C-23.87446289 39.7461792 -24.73330078 39.76188965 -25.61816406 39.77807617 C-28.51897975 39.36329164 -29.87397261 38.41923645 -32 36.4375 C-32.49609375 34.5 -32.49609375 34.5 -32.4375 32.4375 C-32.43621094 31.756875 -32.43492188 31.07625 -32.43359375 30.375 C-31.86456105 27.83229531 -31.04860849 27.0348006 -29 25.4375 C-26.63989258 25.09692383 -26.63989258 25.09692383 -23.89453125 25.14453125 C-22.91162109 25.15419922 -21.92871094 25.16386719 -20.91601562 25.17382812 C-19.89185547 25.19896484 -18.86769531 25.22410156 -17.8125 25.25 C-16.77673828 25.26353516 -15.74097656 25.27707031 -14.67382812 25.29101562 C-12.11536301 25.32638611 -9.5579422 25.37574456 -7 25.4375 C-7.01571045 24.78676514 -7.0314209 24.13603027 -7.04760742 23.46557617 C-7.10994649 20.51880576 -7.14898684 17.57217402 -7.1875 14.625 C-7.21263672 13.60083984 -7.23777344 12.57667969 -7.26367188 11.52148438 C-7.27333984 10.53857422 -7.28300781 9.55566406 -7.29296875 8.54296875 C-7.3086792 7.63699951 -7.32438965 6.73103027 -7.34057617 5.79760742 C-6.70865386 1.41854431 -4.21578022 0.00798443 0 0 Z " fill="#7EF658" transform="translate(122,127.5625)"/>
<path d="M0 0 C0.70427124 -0.0049649 1.40854248 -0.00992981 2.13415527 -0.01504517 C4.46924815 -0.02967629 6.80427307 -0.03647087 9.1394043 -0.04199219 C10.76124575 -0.04774353 12.38308718 -0.05350127 14.00492859 -0.05926514 C17.40872515 -0.06977829 20.81249807 -0.07561867 24.21630859 -0.07910156 C28.57435485 -0.08458236 32.93208805 -0.1086 37.2900362 -0.13707352 C40.64180915 -0.15571469 43.99350697 -0.16090631 47.34532738 -0.16243744 C48.95166927 -0.16546193 50.55800991 -0.17348364 52.16430092 -0.18662262 C54.41446209 -0.20371202 56.66386243 -0.20179603 58.9140625 -0.1953125 C60.19376419 -0.19895813 61.47346588 -0.20260376 62.79194641 -0.20635986 C66.39904248 0.18825511 68.28191704 0.98191968 71.15112305 3.16113281 C72.6969918 6.25287033 72.44471826 8.75542834 72.15112305 12.16113281 C70.284038 14.52610721 68.83050874 15.82143997 66.15112305 17.16113281 C63.87006712 17.26869881 61.58580419 17.31005866 59.30224609 17.32226562 C58.59797485 17.32723053 57.89370361 17.33219543 57.16809082 17.33731079 C54.83299794 17.35194192 52.49797303 17.35873649 50.1628418 17.36425781 C48.54100034 17.37000915 46.91915891 17.37576689 45.2973175 17.38153076 C41.89352094 17.39204391 38.48974802 17.3978843 35.0859375 17.40136719 C30.72789124 17.40684799 26.37015805 17.43086563 22.01220989 17.45933914 C18.66043695 17.47798031 15.30873912 17.48317194 11.95691872 17.48470306 C10.35057682 17.48772756 8.74423618 17.49574927 7.13794518 17.50888824 C4.887784 17.52597764 2.63838366 17.52406165 0.38818359 17.51757812 C-0.8915181 17.52122375 -2.17121979 17.52486938 -3.48970032 17.52862549 C-7.09679639 17.13401052 -8.97967095 16.34034595 -11.84887695 14.16113281 C-13.39474571 11.0693953 -13.14247217 8.56683729 -12.84887695 5.16113281 C-8.96190368 0.23763333 -6.07467414 0.03247272 0 0 Z " fill="#75F24E" transform="translate(156.848876953125,243.8388671875)"/>
<path d="M0 0 C3.19985305 2.5998806 4.69883332 4.09649995 6 8 C6.38438818 12.68953585 6.45895659 15.06443464 4.375 19.3125 C0.80635297 23.35070586 -2.17079706 24.77134963 -7.5 25.4375 C-11.68516315 24.91435461 -13.72376421 23.60609665 -17 21 C-17.598125 20.566875 -18.19625 20.13375 -18.8125 19.6875 C-21.4759944 15.90253427 -21.11834155 11.76264554 -20.4375 7.375 C-18.58430151 3.02401223 -16.89108528 1.64593799 -13 -1 C-8.46497417 -2.58864449 -4.41994733 -1.61513227 0 0 Z " fill="#79F552" transform="translate(259,170)"/>
<path d="M0 0 C4.36045847 2.22136563 7.13277421 4.43567029 9 9 C9.58075783 12.96851185 9.40913488 16.05252975 7.8125 19.75 C3.05007825 25.66197183 3.05007825 25.66197183 -1.55859375 26.421875 C-5.96726408 26.63722389 -9.86174997 26.68766258 -13.5625 24.0625 C-16.66826899 20.16037998 -17.89209647 16.98846342 -18 12 C-17.24531067 7.93032016 -15.98345295 4.95272004 -13 2.0625 C-8.78991089 -0.17410984 -4.68235779 -0.63850333 0 0 Z " fill="#79F552" transform="translate(256,128)"/>
<path d="M0 0 C4.38773175 2.19386588 7.09334197 4.44520582 9 9 C9.56872801 14.21334006 8.9156441 17.62653385 6 22 C2.62833366 25.05055526 -0.02588404 26.27403455 -4.5 26.5 C-8.98726507 26.26581613 -11.65010968 25.11061244 -15 22 C-18.251842 16.54529729 -18.44773642 12.98397721 -17 7 C-12.77050868 0.2911517 -7.5825645 -1.06629813 0 0 Z " fill="#79F553" transform="translate(278,149)"/>
<path d="M0 0 C3.05220074 2.68223701 4.79994042 4.83431139 5.34765625 8.9609375 C5.57130956 14.81481984 4.39933463 18.08619294 0.5625 22.5625 C-2.53274422 25.14187018 -5.9897924 25.09162108 -9.875 25.02734375 C-14.14419895 24.58263553 -16.96761768 22.87937055 -19.8125 19.75 C-21.82651943 14.4911715 -21.86340773 9.10290333 -19.75 3.875 C-14.48090281 -2.12086922 -7.29881709 -2.95058563 0 0 Z " fill="#78F551" transform="translate(236.9375,150.1875)"/>
</svg>
