<svg xmlns="http://www.w3.org/2000/svg" xmlns:xlink="http://www.w3.org/1999/xlink" width="1920" zoomAndPan="magnify" viewBox="0 0 1440 809.999993" height="1080" preserveAspectRatio="xMidYMid meet" version="1.0"><defs><clipPath id="731f4f0f71"><path d="M 483.210938 168.210938 L 956.460938 168.210938 L 956.460938 641.460938 L 483.210938 641.460938 Z M 483.210938 168.210938 " clip-rule="nonzero"/></clipPath><clipPath id="dc95dc96c0"><path d="M 491.917969 369.035156 L 527.886719 369.035156 L 527.886719 405 L 491.917969 405 Z M 491.917969 369.035156 " clip-rule="nonzero"/></clipPath><clipPath id="6667472c7e"><path d="M 509.902344 369.035156 C 499.972656 369.035156 491.917969 377.085938 491.917969 387.015625 C 491.917969 396.949219 499.972656 405 509.902344 405 C 519.835938 405 527.886719 396.949219 527.886719 387.015625 C 527.886719 377.085938 519.835938 369.035156 509.902344 369.035156 Z M 509.902344 369.035156 " clip-rule="nonzero"/></clipPath></defs><g clip-path="url(#731f4f0f71)"><path fill="#75f94c" d="M 719.320312 641.929688 C 715.445312 641.925781 711.570312 641.832031 707.699219 641.640625 C 703.832031 641.449219 699.964844 641.160156 696.109375 640.78125 C 692.253906 640.398438 688.40625 639.925781 684.574219 639.355469 C 680.742188 638.785156 676.925781 638.121094 673.125 637.363281 C 669.324219 636.605469 665.542969 635.757812 661.785156 634.8125 C 658.023438 633.871094 654.289062 632.835938 650.582031 631.710938 C 646.875 630.585938 643.195312 629.367188 639.546875 628.0625 C 635.898438 626.753906 632.285156 625.359375 628.703125 623.875 C 625.125 622.390625 621.582031 620.820312 618.078125 619.164062 C 614.574219 617.503906 611.117188 615.761719 607.699219 613.933594 C 604.28125 612.105469 600.910156 610.195312 597.585938 608.203125 C 594.261719 606.210938 590.988281 604.136719 587.769531 601.980469 C 584.546875 599.828125 581.378906 597.597656 578.265625 595.289062 C 575.15625 592.976562 572.101562 590.59375 569.105469 588.136719 C 566.109375 585.675781 563.175781 583.144531 560.304688 580.542969 C 557.433594 577.9375 554.628906 575.265625 551.890625 572.527344 C 549.148438 569.785156 546.476562 566.976562 543.875 564.105469 C 541.273438 561.234375 538.742188 558.300781 536.285156 555.304688 C 533.828125 552.308594 531.445312 549.253906 529.136719 546.140625 C 526.828125 543.027344 524.597656 539.859375 522.445312 536.636719 C 520.292969 533.414062 518.21875 530.140625 516.226562 526.816406 C 514.234375 523.492188 512.328125 520.121094 510.5 516.703125 C 508.671875 513.285156 506.933594 509.824219 505.273438 506.320312 C 503.617188 502.816406 502.046875 499.273438 500.566406 495.691406 C 499.082031 492.113281 497.6875 488.496094 496.382812 484.847656 C 495.078125 481.199219 493.863281 477.519531 492.738281 473.8125 C 491.613281 470.101562 490.582031 466.371094 489.640625 462.609375 C 488.699219 458.851562 487.847656 455.070312 487.09375 451.269531 C 486.335938 447.46875 485.675781 443.652344 485.105469 439.816406 C 484.539062 435.984375 484.0625 432.136719 483.683594 428.28125 C 483.304688 424.425781 483.019531 420.5625 482.828125 416.691406 C 482.640625 412.820312 482.542969 408.945312 482.542969 405.070312 C 482.542969 401.195312 482.640625 397.320312 482.828125 393.449219 C 483.019531 389.578125 483.304688 385.714844 483.683594 381.859375 C 484.0625 378.003906 484.539062 374.15625 485.105469 370.324219 C 485.675781 366.488281 486.335938 362.671875 487.09375 358.871094 C 487.847656 355.070312 488.699219 351.289062 489.640625 347.53125 C 490.582031 343.769531 491.613281 340.039062 492.738281 336.328125 C 493.863281 332.621094 495.078125 328.941406 496.382812 325.292969 C 497.6875 321.644531 499.082031 318.027344 500.566406 314.449219 C 502.046875 310.867188 503.617188 307.324219 505.273438 303.820312 C 506.933594 300.316406 508.671875 296.855469 510.5 293.4375 C 512.328125 290.019531 514.234375 286.648438 516.226562 283.324219 C 518.21875 280 520.292969 276.726562 522.445312 273.503906 C 524.597656 270.28125 526.828125 267.113281 529.136719 264 C 531.445312 260.886719 533.828125 257.832031 536.285156 254.835938 C 538.742188 251.839844 541.273438 248.90625 543.875 246.035156 C 546.476562 243.164062 549.148438 240.355469 551.890625 237.613281 C 554.628906 234.875 557.433594 232.203125 560.304688 229.597656 C 563.175781 226.996094 566.109375 224.464844 569.105469 222.003906 C 572.101562 219.546875 575.15625 217.164062 578.265625 214.851562 C 581.378906 212.542969 584.546875 210.3125 587.769531 208.160156 C 590.988281 206.003906 594.261719 203.929688 597.585938 201.9375 C 600.910156 199.945312 604.28125 198.035156 607.699219 196.207031 C 611.117188 194.378906 614.574219 192.636719 618.078125 190.976562 C 621.582031 189.320312 625.125 187.75 628.703125 186.265625 C 632.285156 184.78125 635.898438 183.386719 639.546875 182.078125 C 643.195312 180.773438 646.875 179.554688 650.582031 178.429688 C 654.289062 177.304688 658.023438 176.269531 661.785156 175.328125 C 665.542969 174.382812 669.324219 173.535156 673.125 172.777344 C 676.925781 172.019531 680.742188 171.355469 684.574219 170.785156 C 688.40625 170.21875 692.253906 169.742188 696.109375 169.359375 C 699.964844 168.980469 703.832031 168.691406 707.699219 168.5 C 711.570312 168.308594 715.445312 168.214844 719.320312 168.210938 L 745.566406 168.210938 L 745.566406 220.707031 L 719.320312 220.707031 C 716.304688 220.707031 713.289062 220.78125 710.273438 220.925781 C 707.261719 221.074219 704.253906 221.296875 701.25 221.59375 C 698.246094 221.890625 695.253906 222.257812 692.269531 222.699219 C 689.285156 223.144531 686.3125 223.660156 683.351562 224.25 C 680.394531 224.835938 677.449219 225.496094 674.523438 226.230469 C 671.597656 226.964844 668.691406 227.769531 665.800781 228.644531 C 662.914062 229.519531 660.050781 230.464844 657.210938 231.484375 C 654.367188 232.5 651.554688 233.585938 648.765625 234.738281 C 645.980469 235.894531 643.222656 237.117188 640.496094 238.40625 C 637.765625 239.695312 635.074219 241.054688 632.410156 242.476562 C 629.75 243.898438 627.125 245.382812 624.539062 246.933594 C 621.949219 248.488281 619.402344 250.101562 616.894531 251.777344 C 614.382812 253.453125 611.917969 255.191406 609.496094 256.988281 C 607.070312 258.785156 604.691406 260.640625 602.359375 262.554688 C 600.027344 264.46875 597.746094 266.4375 595.507812 268.464844 C 593.273438 270.492188 591.089844 272.570312 588.953125 274.703125 C 586.820312 276.839844 584.742188 279.023438 582.714844 281.257812 C 580.6875 283.496094 578.71875 285.777344 576.804688 288.109375 C 574.890625 290.441406 573.035156 292.820312 571.238281 295.246094 C 569.441406 297.667969 567.703125 300.132812 566.027344 302.644531 C 564.351562 305.152344 562.738281 307.699219 561.183594 310.289062 C 559.632812 312.875 558.148438 315.5 556.726562 318.160156 C 555.304688 320.824219 553.945312 323.515625 552.65625 326.246094 C 551.367188 328.972656 550.144531 331.730469 548.988281 334.515625 C 547.835938 337.304688 546.75 340.117188 545.734375 342.960938 C 544.714844 345.800781 543.769531 348.664062 542.894531 351.550781 C 542.019531 354.4375 541.214844 357.347656 540.480469 360.273438 C 539.746094 363.199219 539.085938 366.144531 538.5 369.101562 C 537.910156 372.0625 537.394531 375.035156 536.953125 378.019531 C 536.507812 381.003906 536.140625 383.996094 535.84375 387 C 535.546875 390.003906 535.324219 393.011719 535.179688 396.023438 C 535.03125 399.039062 534.957031 402.054688 534.957031 405.070312 C 534.957031 408.085938 535.03125 411.101562 535.179688 414.117188 C 535.324219 417.128906 535.546875 420.136719 535.84375 423.140625 C 536.140625 426.144531 536.507812 429.136719 536.953125 432.121094 C 537.394531 435.105469 537.910156 438.078125 538.5 441.039062 C 539.085938 443.996094 539.746094 446.941406 540.480469 449.867188 C 541.214844 452.792969 542.019531 455.703125 542.894531 458.589844 C 543.769531 461.476562 544.714844 464.339844 545.734375 467.179688 C 546.75 470.023438 547.835938 472.835938 548.988281 475.625 C 550.144531 478.410156 551.367188 481.167969 552.65625 483.894531 C 553.945312 486.625 555.304688 489.316406 556.726562 491.980469 C 558.148438 494.640625 559.632812 497.265625 561.1875 499.851562 C 562.738281 502.441406 564.351562 504.988281 566.027344 507.496094 C 567.703125 510.007812 569.441406 512.472656 571.238281 514.894531 C 573.035156 517.320312 574.890625 519.699219 576.804688 522.03125 C 578.71875 524.363281 580.6875 526.644531 582.714844 528.882812 C 584.742188 531.117188 586.820312 533.300781 588.953125 535.4375 C 591.089844 537.570312 593.273438 539.648438 595.507812 541.675781 C 597.746094 543.703125 600.027344 545.671875 602.359375 547.585938 C 604.691406 549.5 607.070312 551.355469 609.496094 553.152344 C 611.917969 554.949219 614.382812 556.6875 616.894531 558.363281 C 619.402344 560.039062 621.949219 561.652344 624.539062 563.207031 C 627.125 564.757812 629.75 566.242188 632.410156 567.664062 C 635.074219 569.085938 637.765625 570.445312 640.496094 571.734375 C 643.222656 573.023438 645.980469 574.246094 648.765625 575.402344 C 651.554688 576.554688 654.367188 577.640625 657.210938 578.65625 C 660.050781 579.675781 662.914062 580.621094 665.800781 581.496094 C 668.691406 582.371094 671.597656 583.175781 674.523438 583.910156 C 677.449219 584.644531 680.394531 585.304688 683.351562 585.890625 C 686.3125 586.480469 689.285156 586.996094 692.269531 587.441406 C 695.253906 587.882812 698.246094 588.25 701.25 588.546875 C 704.253906 588.84375 707.261719 589.066406 710.273438 589.214844 C 713.289062 589.359375 716.304688 589.433594 719.320312 589.433594 C 722.335938 589.433594 725.351562 589.359375 728.367188 589.214844 C 731.378906 589.066406 734.386719 588.84375 737.390625 588.546875 C 740.394531 588.25 743.386719 587.882812 746.371094 587.441406 C 749.355469 586.996094 752.328125 586.480469 755.289062 585.890625 C 758.246094 585.304688 761.191406 584.644531 764.117188 583.910156 C 767.042969 583.175781 769.953125 582.371094 772.839844 581.496094 C 775.726562 580.621094 778.589844 579.675781 781.429688 578.65625 C 784.273438 577.640625 787.085938 576.554688 789.875 575.402344 C 792.660156 574.246094 795.417969 573.023438 798.144531 571.734375 C 800.875 570.445312 803.566406 569.085938 806.230469 567.664062 C 808.890625 566.242188 811.515625 564.757812 814.101562 563.207031 C 816.691406 561.652344 819.238281 560.039062 821.746094 558.363281 C 824.257812 556.6875 826.722656 554.949219 829.144531 553.152344 C 831.570312 551.355469 833.949219 549.5 836.28125 547.585938 C 838.613281 545.671875 840.894531 543.703125 843.132812 541.675781 C 845.367188 539.648438 847.550781 537.570312 849.6875 535.4375 C 851.820312 533.300781 853.898438 531.117188 855.925781 528.882812 C 857.953125 526.644531 859.921875 524.363281 861.835938 522.03125 C 863.75 519.699219 865.605469 517.320312 867.402344 514.894531 C 869.199219 512.472656 870.9375 510.007812 872.613281 507.496094 C 874.289062 504.988281 875.902344 502.441406 877.457031 499.851562 C 879.007812 497.265625 880.492188 494.640625 881.914062 491.980469 C 883.335938 489.316406 884.695312 486.625 885.984375 483.894531 C 887.273438 481.167969 888.496094 478.410156 889.652344 475.625 C 890.804688 472.835938 891.890625 470.023438 892.90625 467.179688 C 893.925781 464.339844 894.871094 461.476562 895.746094 458.589844 C 896.621094 455.703125 897.425781 452.792969 898.160156 449.867188 C 898.894531 446.941406 899.554688 443.996094 900.140625 441.039062 C 900.730469 438.078125 901.246094 435.105469 901.691406 432.121094 C 902.132812 429.136719 902.5 426.144531 902.796875 423.140625 C 903.09375 420.136719 903.316406 417.128906 903.464844 414.117188 C 903.609375 411.101562 903.683594 408.085938 903.683594 405.070312 L 903.683594 378.824219 L 956.179688 378.824219 L 956.179688 405.070312 C 956.175781 408.945312 956.074219 412.816406 955.882812 416.6875 C 955.6875 420.558594 955.398438 424.421875 955.015625 428.277344 C 954.628906 432.132812 954.152344 435.980469 953.582031 439.8125 C 953.007812 443.644531 952.34375 447.460938 951.585938 451.261719 C 950.824219 455.0625 949.972656 458.839844 949.027344 462.597656 C 948.085938 466.355469 947.046875 470.089844 945.921875 473.796875 C 944.792969 477.503906 943.574219 481.183594 942.269531 484.832031 C 940.960938 488.476562 939.5625 492.09375 938.078125 495.671875 C 936.59375 499.25 935.023438 502.792969 933.363281 506.292969 C 931.703125 509.796875 929.960938 513.253906 928.132812 516.671875 C 926.304688 520.089844 924.394531 523.460938 922.402344 526.78125 C 920.40625 530.105469 918.335938 533.378906 916.179688 536.601562 C 914.027344 539.820312 911.792969 542.988281 909.484375 546.101562 C 907.175781 549.210938 904.792969 552.265625 902.332031 555.261719 C 899.875 558.257812 897.34375 561.191406 894.742188 564.0625 C 892.140625 566.933594 889.46875 569.738281 886.726562 572.476562 C 883.988281 575.21875 881.183594 577.890625 878.3125 580.492188 C 875.441406 583.09375 872.507812 585.625 869.511719 588.082031 C 866.515625 590.542969 863.460938 592.925781 860.351562 595.234375 C 857.238281 597.542969 854.070312 599.777344 850.851562 601.929688 C 847.628906 604.082031 844.355469 606.15625 841.03125 608.152344 C 837.710938 610.144531 834.339844 612.054688 830.921875 613.882812 C 827.503906 615.710938 824.046875 617.453125 820.542969 619.113281 C 817.042969 620.773438 813.5 622.34375 809.921875 623.828125 C 806.34375 625.3125 802.726562 626.710938 799.082031 628.019531 C 795.433594 629.324219 791.753906 630.542969 788.046875 631.671875 C 784.339844 632.796875 780.605469 633.835938 776.847656 634.777344 C 773.089844 635.722656 769.3125 636.574219 765.511719 637.332031 C 761.710938 638.09375 757.894531 638.757812 754.0625 639.332031 C 750.230469 639.902344 746.382812 640.378906 742.527344 640.765625 C 738.671875 641.148438 734.808594 641.4375 730.9375 641.628906 C 727.066406 641.824219 723.195312 641.925781 719.320312 641.929688 Z M 719.320312 641.929688 " fill-opacity="1" fill-rule="nonzero"/></g><g clip-path="url(#dc95dc96c0)"><g clip-path="url(#6667472c7e)"><path fill="#75f94c" d="M 491.917969 369.035156 L 527.886719 369.035156 L 527.886719 405 L 491.917969 405 Z M 491.917969 369.035156 " fill-opacity="1" fill-rule="nonzero"/></g></g></svg>