<svg width="82" height="82" viewBox="0 0 82 82" fill="none" xmlns="http://www.w3.org/2000/svg">
<rect width="82" height="82" rx="10" fill="#B4311F"/>
<path d="M32.467 57.3849C32.467 57.3849 24.8723 59.3682 19.6466 51.6784C19.6466 51.6784 21.7722 49.5076 25.6981 49.4319C25.6981 49.4319 16.4326 46.992 16.1306 36.6238C16.1306 36.6238 18.1854 36.3129 21.4093 38.0523C21.4093 38.0523 15.1909 26.9069 25.5508 14.4879C25.5508 14.4879 32.0698 18.7881 36.4573 28.6364C36.4573 28.6364 35.9501 23.1522 40.7559 18.7295C40.7559 18.7295 42.5378 20.2298 43.48 22.3332C43.48 22.3332 48.8456 14.452 57.4276 10.1321C57.4276 10.1321 62.8708 20.7163 59.0317 29.8218C59.0317 29.8218 61.8986 28.5798 63.6623 29.4859C63.6623 29.4859 62.097 37.368 52.5894 41.3047C52.5894 41.3047 60.0265 41.3214 66.4197 45.6988C66.4197 45.6988 61.0374 54.5412 51.6491 56.4153C51.6491 56.4153 53.8709 57.6461 55.1308 59.986C55.1308 59.986 49.3994 64.0255 41.6417 59.535C41.6417 59.535 43.1505 62.8464 41.6309 66.2887C41.6309 66.2887 35.0967 65.631 32.467 57.3849Z" fill="#F0922E"/>
<path d="M57.5563 10.1528C53.4059 29.8592 41.1458 48.9808 27.5664 63.5808C27.4137 63.7446 27.1569 63.7535 26.9934 63.6005C26.8284 63.4465 26.821 63.1863 26.9767 63.023C40.1501 49.0551 51.0825 32.4456 56.4157 13.8602C56.7535 12.6207 57.0682 11.3688 57.299 10.1115C57.3098 10.0387 57.3795 9.98851 57.4517 10.0023C57.5219 10.0151 57.5686 10.0825 57.5563 10.1528Z" fill="#CE7220"/>
<path d="M48.7812 49.8101C48.2888 49.8101 47.8199 49.8008 47.374 49.7845C42.498 49.6055 39.3831 48.5641 39.3522 48.5538C39.3443 48.5509 39.3365 48.5474 39.3291 48.5435C36.4642 46.8937 33.9503 44.0731 31.8572 40.1601C30.1868 37.038 28.7786 33.2154 27.6714 28.7992C25.7875 21.2854 25.4242 14.5617 25.4207 14.4948C25.4168 14.4225 25.4723 14.361 25.544 14.3575C25.6127 14.3512 25.6775 14.4087 25.6809 14.481C25.6844 14.5479 26.0467 21.25 27.9253 28.7397C29.0271 33.1343 30.4279 36.9362 32.0879 40.0391C34.1545 43.9019 36.6311 46.6851 39.4479 48.3103C39.6605 48.3802 42.7037 49.3531 47.3947 49.5238C51.8607 49.6867 58.7774 49.1343 66.3642 45.5808C66.4295 45.5503 66.5071 45.5783 66.5375 45.6437C66.568 45.7092 66.54 45.7869 66.4747 45.8174C59.5929 49.0408 53.2576 49.8101 48.7812 49.8101Z" fill="#CE7220"/>
<path d="M46.6086 37.401C46.5742 37.401 46.5413 37.3872 46.5168 37.3626C46.4996 37.3459 44.7904 35.6277 43.2207 32.4855C41.7733 29.5877 40.1481 24.8473 40.6258 18.7192C40.6312 18.6474 40.6946 18.5943 40.7658 18.5992C40.8379 18.6051 40.8915 18.6681 40.8856 18.7399C40.4127 24.8079 42.0212 29.5006 43.454 32.3684C44.8719 35.2071 46.397 36.8614 46.6606 37.1369C56.8571 36.581 63.5003 29.4696 63.566 29.3978C63.6151 29.3447 63.6976 29.3413 63.7507 29.39C63.8032 29.4387 63.8071 29.5213 63.758 29.5744C63.7413 29.5926 62.0503 31.4195 59.1068 33.2858C56.3907 35.0079 52.0184 37.1196 46.6155 37.4005C46.6135 37.401 46.611 37.401 46.6086 37.401Z" fill="#CE7220"/>
<path d="M54.1542 60.1503C51.2902 60.1503 47.2051 59.3102 42.5819 55.8255C39.6959 53.6499 37.8522 51.3709 37.6018 51.0541C30.2207 49.3163 24.752 45.5129 21.4618 42.6255C17.8889 39.4896 16.0403 36.7237 16.0216 36.6961C15.9819 36.6361 15.9986 36.5549 16.0585 36.5151C16.1184 36.4748 16.1994 36.4915 16.2391 36.5515C16.2573 36.579 18.0912 39.3214 21.6406 42.4346C24.914 45.3063 30.3582 49.0905 37.7059 50.8102C37.7353 50.817 37.7614 50.8338 37.7795 50.8579C37.7982 50.882 39.6767 53.31 42.7445 55.6209C45.5682 57.7484 50.0077 60.2108 55.1214 59.8557C55.1912 59.8522 55.2555 59.9053 55.2609 59.9772C55.2658 60.049 55.2113 60.1115 55.1396 60.1164C54.8298 60.138 54.5008 60.1503 54.1542 60.1503Z" fill="#CE7220"/>
<path d="M41.6309 66.4196C41.5789 66.4196 41.5293 66.3876 41.5091 66.3359C41.4748 66.2469 38.0388 57.4114 35.1026 54.3464C34.5405 54.1733 26.7081 51.8082 19.8342 51.8082C19.7714 51.8082 19.71 51.8087 19.6476 51.8092C19.6471 51.8092 19.6481 51.8092 19.6476 51.8092C19.5759 51.8092 19.517 51.7511 19.5165 51.6793C19.516 51.607 19.574 51.5485 19.6462 51.548C19.7085 51.5475 19.7714 51.5475 19.8337 51.5475C26.9733 51.5475 35.1301 54.0808 35.2121 54.1068C35.2328 54.1132 35.2519 54.1251 35.2671 54.1408C38.2445 57.2211 41.7178 66.152 41.7527 66.2415C41.7787 66.3089 41.7453 66.3846 41.678 66.4107C41.6623 66.4166 41.6466 66.4196 41.6309 66.4196Z" fill="#CE7220"/>
<path d="M23.8849 55.9844C23.8324 55.9844 23.7828 55.9525 23.7631 55.9003C23.7376 55.8324 23.7715 55.7572 23.8387 55.7316C23.8731 55.7188 27.232 54.4246 27.9778 52.609C27.8536 52.3055 27.0975 50.5775 25.6235 49.5386C25.5646 49.4973 25.5503 49.4156 25.5916 49.3566C25.6333 49.2976 25.7143 49.2833 25.7733 49.3251C27.4529 50.5081 28.2086 52.4797 28.24 52.5633C28.2513 52.5928 28.2513 52.6262 28.24 52.6562C27.4912 54.6051 24.0764 55.921 23.931 55.9761C23.9158 55.9815 23.9006 55.9844 23.8849 55.9844Z" fill="#CE7220"/>
<path d="M27.7132 57.496C27.6577 57.496 27.6061 57.4601 27.589 57.404C27.5673 57.3352 27.6061 57.2619 27.6749 57.2407C27.7088 57.2304 31.1064 56.1541 32.6442 53.5746C32.6811 53.5126 32.7611 53.4925 32.8229 53.5294C32.8848 53.5663 32.9049 53.6464 32.8681 53.7084C31.2778 56.3755 27.8948 57.4459 27.752 57.4901C27.7387 57.4946 27.7259 57.496 27.7132 57.496Z" fill="#CE7220"/>
<path d="M35.0751 62.474C35.0747 62.474 35.0742 62.474 35.0737 62.474C35.0015 62.4731 34.9441 62.414 34.9445 62.3417C34.945 62.3097 35.0094 59.1227 37.3529 57.3716C37.371 57.3583 37.3922 57.3494 37.4147 57.3465C37.5046 57.3357 39.6335 57.0951 41.7384 59.4479C41.7865 59.5015 41.7821 59.5841 41.7286 59.6323C41.6751 59.6801 41.5926 59.6761 41.5445 59.622C39.6733 57.531 37.7511 57.5836 37.4795 57.6028C35.2701 59.2806 35.2058 62.3142 35.2053 62.3452C35.2048 62.4165 35.1463 62.474 35.0751 62.474Z" fill="#CE7220"/>
<path d="M38.351 65.2026C38.2823 65.2026 38.2249 65.1485 38.2209 65.0786C38.215 64.9625 38.082 62.2207 38.9726 60.5847C39.0075 60.5212 39.087 60.4981 39.1499 60.5325C39.2132 60.5669 39.2363 60.6466 39.2019 60.7096C38.3461 62.2812 38.4802 65.0373 38.4817 65.0649C38.4851 65.1372 38.4301 65.1987 38.3579 65.2021C38.356 65.2026 38.3535 65.2026 38.351 65.2026Z" fill="#CE7220"/>
<path d="M45.2348 61.1464C45.1891 61.1464 45.1454 61.1228 45.1214 61.0805C45.0634 60.9782 43.7058 58.5595 43.6322 56.5963C43.6292 56.524 43.6852 56.4635 43.7574 56.4606C43.835 56.4547 43.8895 56.5142 43.8924 56.586C43.9641 58.4852 45.334 60.927 45.3482 60.9516C45.3836 61.0141 45.3615 61.0938 45.2991 61.1297C45.2785 61.141 45.2564 61.1464 45.2348 61.1464Z" fill="#CE7220"/>
<path d="M47.4801 58.6761C47.4531 58.6761 47.4266 58.6677 47.403 58.651C47.3451 58.6082 47.3323 58.5266 47.3745 58.4685C47.4325 58.3888 48.8235 56.5172 51.6383 56.285C51.7115 56.2796 51.7734 56.3327 51.7793 56.4045C51.7851 56.4763 51.7316 56.5393 51.6599 56.5457C48.9683 56.767 47.5989 58.6038 47.5852 58.6225C47.5596 58.6574 47.5199 58.6761 47.4801 58.6761Z" fill="#CE7220"/>
<path d="M58.4862 53.6981C53.3981 53.6612 50.6396 49.8101 50.6126 49.7713C50.5709 49.7122 50.5851 49.6306 50.6441 49.5893C50.703 49.5479 50.7845 49.5622 50.8257 49.6207C50.8522 49.6586 53.537 53.401 58.4867 53.4369C58.5589 53.4379 58.6168 53.4964 58.6163 53.5687C58.6158 53.6405 58.5574 53.6981 58.4862 53.6981Z" fill="#CE7220"/>
<path d="M61.7553 50.5465C59.2099 50.5465 57.2096 48.9867 57.1168 48.9134C57.0604 48.8686 57.0506 48.787 57.0952 48.7299C57.1404 48.6738 57.2219 48.664 57.2784 48.7088C57.3029 48.7279 59.7378 50.6237 62.5541 50.2307C62.6253 50.2199 62.6911 50.2705 62.7009 50.3419C62.7107 50.4132 62.6611 50.4791 62.59 50.4889C62.3066 50.5288 62.0278 50.5465 61.7553 50.5465Z" fill="#CE7220"/>
<path d="M61.1361 47.8356C61.1356 47.8356 61.1346 47.8356 61.1342 47.8356C61.062 47.8342 61.0045 47.7746 61.006 47.7028C61.0075 47.6153 61.0615 45.534 62.6174 43.6038C62.6631 43.5478 62.7451 43.5389 62.8011 43.5842C62.857 43.6294 62.8659 43.7116 62.8207 43.7676C61.3227 45.6255 61.2672 47.6866 61.2667 47.7073C61.2652 47.7786 61.2073 47.8356 61.1361 47.8356Z" fill="#CE7220"/>
<path d="M54.216 49.3841C54.2102 49.3841 54.2043 49.3836 54.1984 49.3832C54.1272 49.3733 54.0771 49.3074 54.0869 49.2361C54.0928 49.1923 54.7247 44.7996 58.334 42.0701C58.3915 42.0263 58.473 42.0376 58.5162 42.0957C58.5599 42.1532 58.5486 42.2349 58.4911 42.2782C54.9707 44.9408 54.3511 49.2282 54.3452 49.2715C54.3363 49.3369 54.2804 49.3841 54.216 49.3841Z" fill="#CE7220"/>
<path d="M57.6064 38.3243C54.3133 38.3243 52.34 36.3867 52.3203 36.367C52.2693 36.3159 52.2693 36.2337 52.3203 36.1826C52.3714 36.1314 52.4539 36.1314 52.5044 36.1821C52.5241 36.2018 54.493 38.129 57.7836 38.0611C57.8563 38.0636 57.9157 38.1172 57.9172 38.189C57.9186 38.2613 57.8617 38.3209 57.7895 38.3223C57.7281 38.3238 57.6667 38.3243 57.6064 38.3243Z" fill="#CE7220"/>
<path d="M59.8556 34.8658C58.4577 34.8658 57.4473 34.3178 57.3923 34.2873C57.3294 34.2524 57.3064 34.1727 57.3412 34.1097C57.3766 34.0463 57.4556 34.0236 57.5185 34.0586C57.5352 34.0679 59.2281 34.9833 61.2108 34.4162C61.2795 34.397 61.3522 34.4363 61.3723 34.5057C61.3919 34.5751 61.3517 34.6474 61.2824 34.667C60.7802 34.8107 60.2985 34.8658 59.8556 34.8658Z" fill="#CE7220"/>
<path d="M55.6149 35.1147C55.5457 35.1147 55.4877 35.0601 55.4848 34.9897C55.4372 33.9459 56.0092 32.7393 57.1841 31.4038C58.0502 30.4195 58.9433 29.7254 58.9522 29.7185C59.0091 29.6743 59.0911 29.6851 59.1348 29.7417C59.179 29.7992 59.1682 29.8809 59.1113 29.9251C59.0769 29.9517 55.639 32.6409 55.745 34.9784C55.7484 35.0502 55.6925 35.1112 55.6208 35.1147C55.6188 35.1147 55.6169 35.1147 55.6149 35.1147Z" fill="#CE7220"/>
<path d="M51.2612 28.8139C51.1508 28.8139 51.0879 28.81 51.0781 28.809C51.0064 28.8041 50.9524 28.7416 50.9573 28.6698C50.9622 28.598 51.0236 28.5473 51.0963 28.5488C51.1375 28.5527 55.3021 28.7825 60.2032 24.4149C60.2568 24.3667 60.3392 24.3716 60.3874 24.4257C60.435 24.4793 60.4301 24.562 60.3766 24.6097C57.7723 26.931 55.3885 27.9487 53.8473 28.3944C52.5535 28.7682 51.6344 28.8139 51.2612 28.8139Z" fill="#CE7220"/>
<path d="M53.3327 23.7946C53.2782 23.7946 53.2277 23.7602 53.209 23.7061C53.1859 23.6377 53.2228 23.5634 53.291 23.5408C53.3303 23.5275 57.2317 22.1856 60.0456 19.0419C60.0937 18.9883 60.1757 18.9838 60.2297 19.0321C60.2833 19.0798 60.2877 19.1624 60.2396 19.2165C57.3785 22.4129 53.4138 23.7749 53.3745 23.7882C53.3602 23.7926 53.3465 23.7946 53.3327 23.7946Z" fill="#CE7220"/>
<path d="M55.5412 17.7108C55.4848 17.7108 55.4327 17.6739 55.416 17.6174C55.3959 17.548 55.4352 17.4757 55.5044 17.455C55.529 17.4476 57.9677 16.7069 59.0327 14.6443C59.0661 14.5804 59.1446 14.5553 59.2085 14.5882C59.2723 14.6217 59.2973 14.7004 59.2644 14.7643C58.1474 16.9277 55.6826 17.6749 55.5781 17.7054C55.5658 17.7093 55.5535 17.7108 55.5412 17.7108Z" fill="#CE7220"/>
<path d="M29.6639 51.3384C29.605 51.3384 29.5515 51.2981 29.5372 51.2381C29.521 51.1678 29.5642 51.0974 29.6344 51.0807C31.4236 50.6591 32.1159 49.213 32.1228 49.1987C32.1532 49.1338 32.2303 49.1047 32.2961 49.1352C32.3609 49.1657 32.3894 49.243 32.359 49.3084C32.3295 49.3728 31.6112 50.8829 29.6943 51.335C29.684 51.3375 29.6742 51.3384 29.6639 51.3384Z" fill="#CE7220"/>
<path d="M23.6782 48.3664C23.3713 48.3664 23.1715 48.3536 23.1401 48.3516C23.0679 48.3467 23.0139 48.2842 23.0188 48.2124C23.0237 48.1401 23.0856 48.088 23.1577 48.0909C23.1897 48.0934 26.3217 48.2921 27.7353 46.9822C27.7878 46.9335 27.8703 46.9365 27.9194 46.9896C27.9685 47.0422 27.9651 47.1248 27.912 47.174C26.77 48.2326 24.6675 48.3664 23.6782 48.3664Z" fill="#CE7220"/>
<path d="M19.9373 45.2045C19.518 45.2045 19.2357 45.1833 19.1998 45.1804C19.1281 45.1745 19.0746 45.112 19.0805 45.0402C19.0859 44.9679 19.1493 44.9162 19.2205 44.9202C19.248 44.9221 21.9926 45.1268 23.4474 44.2025C23.5078 44.1641 23.5883 44.1818 23.6271 44.2428C23.6659 44.3038 23.6477 44.3845 23.5869 44.4233C22.5273 45.0963 20.8839 45.2045 19.9373 45.2045Z" fill="#CE7220"/>
<path d="M18.7049 41.6343C17.7867 41.6343 16.9825 41.4287 16.9319 41.4154C16.8622 41.3977 16.8205 41.3264 16.8386 41.2565C16.8568 41.1867 16.928 41.1453 16.9977 41.163C17.0159 41.1675 18.8144 41.6264 20.0483 41.167C20.116 41.1419 20.1907 41.1763 20.2157 41.2437C20.2407 41.3116 20.2064 41.3864 20.1391 41.4115C19.6903 41.5787 19.1822 41.6343 18.7049 41.6343Z" fill="#CE7220"/>
<path d="M22.2656 43.2266C22.246 43.2266 22.2258 43.2221 22.2072 43.2128C22.1429 43.1803 22.1168 43.1021 22.1487 43.0377C23.2407 40.8502 21.3234 38.1561 21.3037 38.129C21.2615 38.071 21.2743 37.9893 21.3327 37.947C21.3911 37.9042 21.4726 37.9175 21.5149 37.976C21.5355 38.0046 22.0289 38.6913 22.3879 39.6721C22.8671 40.9825 22.8651 42.1867 22.382 43.1543C22.3594 43.2 22.3132 43.2266 22.2656 43.2266Z" fill="#CE7220"/>
<path d="M28.0824 38.4025C25.735 38.4025 23.9782 37.829 22.8111 37.2584C21.0705 36.4074 20.2471 35.4034 20.2132 35.3611C20.1681 35.305 20.1764 35.2229 20.2324 35.1776C20.2884 35.1324 20.3704 35.1412 20.416 35.1968C20.4479 35.2367 23.7356 39.1758 30.8924 37.8791C30.9631 37.8663 31.0313 37.9136 31.0441 37.9844C31.0568 38.0552 31.0097 38.1231 30.939 38.1364C29.906 38.3233 28.9534 38.4025 28.0824 38.4025Z" fill="#CE7220"/>
<path d="M26.7562 46.4716C26.7327 46.4716 26.7096 46.4652 26.688 46.4524C26.6266 46.4145 26.6075 46.3344 26.6448 46.2729C27.8099 44.3628 26.1027 40.5703 26.0855 40.5324C26.0556 40.4665 26.0846 40.3893 26.1499 40.3593C26.2152 40.3293 26.2927 40.3583 26.3227 40.4237C26.3271 40.4336 26.7729 41.4174 27.0626 42.6323C27.4554 44.2822 27.3896 45.5527 26.8677 46.4086C26.8426 46.449 26.7999 46.4716 26.7562 46.4716Z" fill="#CE7220"/>
<path d="M27.7446 32.0639C23.5888 32.0639 19.5455 29.1848 19.5023 29.1538C19.4439 29.1115 19.4306 29.0299 19.4723 28.9713C19.5146 28.9128 19.5961 28.8995 19.6545 28.9418C19.7002 28.9743 24.2689 32.2267 28.6195 31.757C28.6932 31.7501 28.7556 31.8012 28.7629 31.8731C28.7708 31.9444 28.7192 32.0088 28.6475 32.0167C28.347 32.0492 28.0451 32.0639 27.7446 32.0639Z" fill="#CE7220"/>
<path d="M26.5495 26.5576C23.1867 26.5576 20.3345 24.1955 20.3046 24.1699C20.2491 24.1237 20.2422 24.0411 20.2884 23.986C20.3345 23.9309 20.4165 23.9235 20.472 23.9697C20.5034 23.9963 23.6743 26.6206 27.2217 26.263C27.2944 26.2566 27.3572 26.3082 27.3646 26.3795C27.3719 26.4514 27.3194 26.5158 27.2477 26.5227C27.013 26.5468 26.7798 26.5576 26.5495 26.5576Z" fill="#CE7220"/>
<path d="M25.8857 21.2731C25.1335 21.2731 24.2959 20.9967 23.4386 20.461C22.6893 19.9932 22.1939 19.5003 22.1733 19.4797C22.1222 19.4285 22.1222 19.3459 22.1733 19.2947C22.2244 19.2441 22.3068 19.2441 22.3579 19.2947C22.3771 19.3144 24.3234 21.2372 26.224 20.9908C26.2952 20.9824 26.361 21.0316 26.3703 21.1034C26.3796 21.1748 26.3291 21.2407 26.2579 21.2495C26.1361 21.2653 26.0124 21.2731 25.8857 21.2731Z" fill="#CE7220"/>
<path d="M26.6826 23.2417C26.635 23.2417 26.5888 23.2157 26.5657 23.1699C26.5338 23.105 26.5598 23.0268 26.6242 22.9943C28.7379 21.9362 28.9068 17.6193 28.9083 17.576C28.9102 17.5037 28.9765 17.4442 29.0428 17.4501C29.1145 17.4526 29.1709 17.5126 29.1685 17.5849C29.1685 17.5957 29.1277 18.7192 28.815 19.9627C28.3903 21.6529 27.6921 22.7518 26.741 23.2279C26.7224 23.2373 26.7022 23.2417 26.6826 23.2417Z" fill="#CE7220"/>
<path d="M27.971 29.2522C27.915 29.2522 27.8634 29.2158 27.8462 29.1597C27.8251 29.0904 27.8639 29.0176 27.9331 28.9964C31.7806 27.8188 32.3997 21.8314 32.4056 21.7714C32.4125 21.6996 32.4778 21.6455 32.548 21.6539C32.6197 21.6608 32.6722 21.7247 32.6649 21.7965C32.6639 21.8118 32.5087 23.3637 31.8655 25.043C31.0077 27.2832 29.6742 28.7367 28.0092 29.2463C27.9965 29.2503 27.9837 29.2522 27.971 29.2522Z" fill="#CE7220"/>
<path d="M29.9585 35.6312C29.8971 35.6312 29.8421 35.5874 29.8303 35.5244C29.8171 35.4536 29.8642 35.3852 29.9349 35.3719C35.4787 34.333 36.3203 28.6757 36.3282 28.6182C36.338 28.5468 36.4018 28.4957 36.475 28.507C36.5466 28.5168 36.5962 28.5827 36.5864 28.6541C36.5786 28.7131 35.7139 34.5544 29.9826 35.6287C29.9747 35.6302 29.9663 35.6312 29.9585 35.6312Z" fill="#CE7220"/>
<path d="M42.2019 30.694C37.8198 30.694 36.474 26.6953 36.4602 26.6545C36.4381 26.5856 36.4755 26.5124 36.5442 26.4897C36.6124 26.4676 36.6861 26.5055 36.7082 26.5738C36.721 26.6132 38.0128 30.4328 42.2039 30.4328C42.2795 30.4328 42.3556 30.4313 42.4327 30.4288C42.4342 30.4288 42.4356 30.4288 42.4371 30.4288C42.5073 30.4288 42.5648 30.4844 42.5672 30.5553C42.5697 30.6276 42.5132 30.6876 42.441 30.69C42.3605 30.6925 42.281 30.694 42.2019 30.694Z" fill="#CE7220"/>
<path d="M41.0383 25.6387C41.0373 25.6387 41.0368 25.6387 41.0358 25.6387C40.2286 25.6225 39.3915 25.1104 38.6137 24.1571C38.0358 23.4483 37.6961 22.7552 37.6818 22.7257C37.6504 22.6613 37.6774 22.5831 37.7422 22.5516C37.807 22.5196 37.8846 22.5472 37.9165 22.6116C37.9298 22.6391 39.2658 25.3426 41.0407 25.3775C41.1129 25.3785 41.1698 25.4385 41.1689 25.5104C41.1674 25.5817 41.109 25.6387 41.0383 25.6387Z" fill="#CE7220"/>
<path d="M41.7379 28.1459C41.6942 28.1459 41.652 28.1243 41.6275 28.0845C41.5892 28.0235 41.6073 27.9428 41.6687 27.9044C44.3147 26.2433 43.3636 22.404 43.3538 22.3657C43.3356 22.2958 43.3778 22.2245 43.4471 22.2068C43.5168 22.1891 43.588 22.2304 43.6062 22.3002C43.6165 22.3406 44.6161 26.3628 41.8072 28.1258C41.7856 28.1395 41.7615 28.1459 41.7379 28.1459Z" fill="#CE7220"/>
<path d="M41.0633 34.8176C39.4744 34.8176 38.2258 34.4388 37.3445 34.0335C35.8121 33.3286 35.0437 32.4146 35.0118 32.3758C34.9656 32.3202 34.9735 32.238 35.029 32.1923C35.084 32.1461 35.1665 32.1534 35.2121 32.209C35.2421 32.2449 38.2887 35.8073 44.2042 34.0841C44.2734 34.0635 44.3456 34.1038 44.3657 34.1732C44.3859 34.2425 44.3466 34.3148 44.2773 34.335C43.0877 34.6818 42.0144 34.8176 41.0633 34.8176Z" fill="#CE7220"/>
<path d="M49.7254 31.5012C49.7171 31.5012 49.7087 31.5002 49.6999 31.4987C47.6755 31.0963 46.1623 29.0958 45.3241 25.7145C44.6976 23.1847 44.6628 20.7404 44.6623 20.7158C44.6618 20.644 44.7192 20.585 44.7914 20.584C44.8636 20.584 44.9225 20.6411 44.923 20.7129C44.9245 20.8088 45.088 30.3157 49.7509 31.2424C49.8212 31.2567 49.8673 31.3251 49.8531 31.3959C49.8408 31.4584 49.7863 31.5012 49.7254 31.5012Z" fill="#CE7220"/>
<path d="M52.0075 26.5237C50.3092 26.5237 48.8495 25.105 47.787 22.4222C46.9945 20.4217 46.6916 18.3941 46.6886 18.3739C46.6778 18.3021 46.7274 18.2362 46.7986 18.2253C46.8708 18.2155 46.9361 18.2642 46.9464 18.3355C46.9582 18.4152 48.1537 26.2625 52.0075 26.2625C52.0797 26.2625 52.1382 26.3205 52.1382 26.3928C52.1382 26.4651 52.0797 26.5237 52.0075 26.5237Z" fill="#CE7220"/>
<path d="M54.0692 21.3243C54.0643 21.3243 54.0599 21.3243 54.055 21.3238C52.7298 21.1831 51.5313 20.1339 50.5896 18.2898C49.8865 16.9134 49.5649 15.5588 49.5619 15.5455C49.5452 15.4751 49.5889 15.4048 49.6586 15.3886C49.7284 15.3728 49.7991 15.4156 49.8158 15.486C49.828 15.5381 51.0825 20.7458 54.0825 21.0641C54.1542 21.0715 54.2062 21.1359 54.1984 21.2077C54.1915 21.2746 54.135 21.3243 54.0692 21.3243Z" fill="#CE7220"/>
<path d="M55.9095 16.0147C55.9051 16.0147 55.9002 16.0147 55.8953 16.0143C54.9943 15.9174 54.3447 15.2115 54.0162 13.9729C53.7751 13.0619 53.7904 12.1942 53.7913 12.1573C53.7928 12.0855 53.8517 12.0309 53.9244 12.0294C53.9966 12.0309 54.0535 12.0909 54.0521 12.1627C54.0511 12.1966 54.0049 15.5484 55.9232 15.7545C55.9949 15.7619 56.0465 15.8264 56.0391 15.8982C56.0317 15.9651 55.9753 16.0147 55.9095 16.0147Z" fill="#CE7220"/>
<path d="M50.0141 41.2378C46.7397 39.71 44.1541 45.3476 47.3259 46.9522C50.4977 48.5563 53.2886 42.7652 50.0141 41.2378Z" fill="white"/>
<path d="M48.4749 41.017C46.5521 41.3667 45.2952 44.0377 46.1647 45.8026C48.9104 46.6659 50.8223 42.7145 48.4749 41.017Z" fill="#48211C"/>
<path d="M40.1736 36.3459C36.8992 34.818 34.3136 40.4562 37.4854 42.0603C40.6573 43.6648 43.4485 37.8737 40.1736 36.3459Z" fill="white"/>
<path d="M38.6343 36.125C36.7116 36.4748 35.4547 39.1458 36.3242 40.9107C39.0699 41.774 40.9823 37.8226 38.6343 36.125Z" fill="#48211C"/>
<path d="M33.803 39.0641C30.6317 37.3321 28.1723 42.0288 31.2449 43.8173C34.3171 45.6054 36.9738 40.7966 33.803 39.0641Z" fill="#C7422F"/>
<path d="M53.3141 47.5518C50.1433 45.8198 47.6839 50.5165 50.756 52.3045C53.8287 54.0926 56.4854 49.2838 53.3141 47.5518Z" fill="#C7422F"/>
<path d="M40.8114 49.0506C40.3072 49.0506 39.8039 48.8834 39.309 48.5509C37.564 47.3772 38.2303 45.2123 38.8258 44.2315C38.9181 44.08 39.1155 44.0323 39.2668 44.1243C39.418 44.2167 39.4661 44.414 39.3743 44.5655C39.3664 44.5783 39.0055 45.1848 38.8749 45.9226C38.7105 46.8489 38.9771 47.5538 39.6664 48.0172C40.2026 48.3782 40.7176 48.4874 41.2401 48.3526C42.4764 48.0339 43.3057 46.4441 43.314 46.4278C43.395 46.2699 43.5885 46.208 43.7456 46.2891C43.9032 46.3698 43.9656 46.5631 43.885 46.721C43.8463 46.7968 42.9188 48.5814 41.4026 48.9744C41.2057 49.0255 41.0083 49.0506 40.8114 49.0506Z" fill="#48211C"/>
</svg>
