<svg width="82" height="82" viewBox="0 0 82 82" fill="none" xmlns="http://www.w3.org/2000/svg">
<rect width="82" height="82" rx="10" fill="#F0FFCC"/>
<path d="M38.3945 23.3451C38.3945 23.3451 36.9345 9.68048 39.456 8.60896L42.2429 9.27872C42.2429 9.27872 39.3233 13.2977 39.5887 23.3451H38.3945Z" fill="#875D35"/>
<path d="M37.9861 16.7168C37.9861 16.7168 37.2673 9.21206 27.3144 8.0063C27.3144 8.0063 28.1543 18.595 37.9861 16.7168Z" fill="#7FB929"/>
<path d="M38.944 18.5689C38.944 18.5689 33.0262 16.7677 30.9175 23.4662C30.9175 23.4662 29.8301 26.1831 29.8238 30.1589C29.8171 34.1342 27.3457 39.9017 26.2238 41.9862C25.1029 44.0712 17.1921 58.4244 31.2736 68.3682C31.2736 68.3682 35.7952 71.1715 45.0039 69.4293C45.0039 69.4293 60.2433 68.4339 63.7789 55.8539C63.7789 55.8539 65.7742 45.2107 57.7758 34.7179C57.7758 34.7179 51.9072 28.314 50.4195 23.9558C48.9318 19.5981 46.7837 17.4375 43.7681 17.0641C43.7681 17.0641 39.8576 16.6659 38.944 18.5689Z" fill="#B9E059"/>
<path d="M37.4992 50.8909C37.5112 52.2101 36.4618 53.2893 35.1546 53.3015C33.8478 53.3136 32.7787 52.2542 32.7666 50.9345C32.7546 49.6153 33.804 48.5361 35.1108 48.5239C36.418 48.5118 37.4871 49.5716 37.4992 50.8909Z" fill="#2B1413"/>
<path d="M36.6347 50.1373C36.6387 50.5575 36.3036 50.9017 35.8873 50.9057C35.4704 50.9093 35.1296 50.5715 35.126 50.1513C35.122 49.7306 35.4566 49.3865 35.873 49.3824C36.2902 49.3784 36.6307 49.7162 36.6347 50.1373Z" fill="white"/>
<path d="M54.1665 50.7355C54.1785 52.0547 53.1286 53.1339 51.8219 53.1461C50.5151 53.1582 49.446 52.0984 49.4339 50.7796C49.4219 49.4604 50.4713 48.3812 51.7785 48.369C53.0853 48.3568 54.1544 49.4158 54.1665 50.7355Z" fill="#2B1413"/>
<path d="M53.302 49.9815C53.306 50.4026 52.9714 50.7467 52.5546 50.7503C52.1382 50.7544 51.7969 50.4166 51.7933 49.9959C51.7893 49.5752 52.1239 49.2311 52.5407 49.227C52.9571 49.2234 53.2984 49.5612 53.302 49.9815Z" fill="white"/>
<path d="M43.8199 54.3757C43.4111 54.3793 43.0381 54.3288 42.7169 54.2568C41.5249 53.9883 40.7212 53.3695 40.5858 53.2307C40.4272 53.0677 40.4898 52.8974 40.5519 52.8227C40.6149 52.7465 40.7578 52.6434 41.0036 52.8123C41.0469 52.842 41.0795 52.8821 41.1005 52.9272C41.3507 53.1136 41.9775 53.5077 42.8268 53.701C44.155 54.0032 45.4024 53.6906 46.534 52.7709C46.6551 52.6731 46.8315 52.6925 46.9289 52.8141C47.0259 52.9362 47.0067 53.1141 46.8861 53.2127C45.7995 54.0951 44.7224 54.3671 43.8199 54.3757Z" fill="#2B1413"/>
<path d="M32.7997 54.6027C32.8077 55.445 31.8083 56.1368 30.5677 56.1485C29.327 56.1602 28.3151 55.4868 28.3075 54.6446C28.2995 53.8023 29.2989 53.1105 30.5395 53.0988C31.7802 53.0875 32.7921 53.7609 32.7997 54.6027Z" fill="#F89EC5"/>
<path d="M58.6926 54.3613C58.7002 55.2035 57.7008 55.8958 56.4601 55.9071C55.2195 55.9188 54.2076 55.2454 54.2 54.4036C54.1924 53.5613 55.1918 52.8691 56.4324 52.8573C57.6731 52.8461 58.685 53.5195 58.6926 54.3613Z" fill="#F89EC5"/>
<path d="M59.3547 40.6111C58.9593 39.6918 57.9501 37.8181 56.298 38.0523C54.6458 38.2865 54.3907 39.1712 54.7227 39.7103C55.0542 40.249 56.2099 41.0566 57.0695 41.7601C57.9295 42.4641 58.3767 44.086 58.3767 44.086C58.3767 44.086 58.584 44.8175 59.361 44.5973C60.1379 44.377 60.4122 43.0726 59.3547 40.6111Z" fill="white"/>
<path d="M59.6214 46.9817C59.7934 47.347 60.2263 47.5015 60.5873 47.3281C60.9492 47.1538 61.1024 46.7173 60.9304 46.3525C60.758 45.9877 60.3255 45.8327 59.9641 46.0066C59.6022 46.1805 59.4489 46.6174 59.6214 46.9817Z" fill="white"/>
<path d="M33.0414 63.8825C33.0414 64.4041 32.6223 64.827 32.1054 64.827C31.589 64.827 31.1695 64.4041 31.1695 63.8825C31.1695 63.3605 31.589 62.9375 32.1054 62.9375C32.6223 62.9375 33.0414 63.3605 33.0414 63.8825Z" fill="#A9D747"/>
<path d="M33.1955 67.0638C33.1955 67.3678 32.9516 67.6137 32.6505 67.6137C32.3494 67.6137 32.1054 67.3678 32.1054 67.0638C32.1054 66.7602 32.3494 66.5134 32.6505 66.5134C32.9516 66.5134 33.1955 66.7602 33.1955 67.0638Z" fill="#A9D747"/>
<path d="M30.6249 65.6882C30.6249 65.84 30.5025 65.963 30.3519 65.963C30.2013 65.963 30.0794 65.84 30.0794 65.6882C30.0794 65.5364 30.2013 65.413 30.3519 65.413C30.5025 65.413 30.6249 65.5364 30.6249 65.6882Z" fill="#A9D747"/>
<path d="M36.0941 65.963C36.0941 66.267 35.8497 66.5134 35.5491 66.5134C35.2475 66.5134 35.0036 66.267 35.0036 65.963C35.0036 65.6594 35.2475 65.413 35.5491 65.413C35.8497 65.413 36.0941 65.6594 36.0941 65.963Z" fill="#A9D747"/>
</svg>
