<svg width="82" height="82" viewBox="0 0 82 82" fill="none" xmlns="http://www.w3.org/2000/svg">
<rect width="82" height="82" rx="10" fill="#FE8851"/>
<path d="M26.7103 61.8382C23.7699 58.7021 23.4472 54.9259 24.1312 50.9257C24.2363 50.3115 24.1472 50.0257 23.5499 49.7542C20.7661 48.4855 18.1839 46.9039 16.0724 44.6233C12.0147 40.2409 11.9692 33.9447 15.9777 29.6395C16.803 29.7274 16.3501 30.3886 16.4859 30.7876C16.2248 31.5502 15.6797 32.1509 15.3165 32.8603C14.5643 34.3306 14.1299 35.8609 14.2442 37.5267C14.4777 40.0163 15.4579 42.1658 17.1638 43.9726C18.6859 45.5845 20.5043 46.7938 22.4388 47.836C22.6336 47.9412 22.9796 48.1954 22.7688 47.6214C22.6637 47.2831 22.5931 46.9373 22.4861 46.6002C22.2993 44.9307 22.7012 44.3449 24.4698 43.7085C24.5177 43.6911 24.57 43.6645 24.6173 43.6707C26.1192 43.899 27.0004 43.1159 27.6383 41.8534C27.9037 41.3277 28.2479 40.8409 28.5078 40.3058C28.9521 39.3916 29.6945 38.9184 30.7084 38.8906C31.0175 39.0038 31.141 39.2357 31.1269 39.5568C30.7398 40.2365 29.9722 40.5829 29.625 41.2986C29.1414 41.9759 28.6307 42.6353 28.2448 43.3794C27.8331 43.9188 27.7016 44.6938 26.9494 44.948C26.2863 44.9431 25.6214 44.7953 24.959 44.9969C24.0359 45.2771 23.7477 45.7305 23.9407 46.6781C24.039 47.1612 24.1687 47.6363 24.4286 48.0637C25.4266 49.4826 25.5692 51.0389 25.1894 52.6929C25.0155 53.4525 25.1175 54.2343 25.0898 55.005C25.1089 57.1267 25.9311 58.931 27.2591 60.5237C28.23 61.6872 29.4732 62.5315 30.6912 63.4018C31.0654 63.6684 31.4852 63.7587 31.9461 63.695C32.0161 63.5973 31.908 63.5917 31.8662 63.5682C31.5509 63.3932 31.0636 63.1977 31.1902 62.8328C31.3537 62.3614 31.8674 62.6404 32.2091 62.7122C35.8716 63.4841 39.5716 63.8713 43.3104 63.8868C43.7897 63.8886 44.2187 64.0055 44.6187 64.2746C45.3137 64.7422 46.0604 64.7738 46.7093 64.2592C47.8093 63.3864 49.0156 62.9262 50.4099 62.7326C51.6746 62.5575 52.6308 61.6934 53.4162 60.6907C53.6202 60.4303 53.8636 60.1025 53.5753 59.7827C53.2331 59.4023 52.8262 59.0021 52.3094 58.9681C51.9665 58.9452 51.9518 59.5804 51.545 59.6559C51.3502 59.625 51.2801 59.4809 51.2352 59.3126C51.1683 58.8042 51.403 58.3588 51.5327 57.8924C51.7201 57.2225 51.7656 56.5322 51.843 55.8425C51.6513 55.8661 51.4024 56.0145 51.3065 55.6724C51.2623 55.2543 51.5695 55.0298 51.8024 54.7644C51.8873 54.6685 51.9819 54.5819 52.0698 54.4892C53.4721 53.0238 53.139 51.6946 51.2014 51.0222C51.0331 50.964 50.8579 50.9238 50.6896 50.8607C50.4769 50.7649 50.2428 50.7414 50.0271 50.6585C49.7702 50.5589 49.4083 50.5051 49.4101 50.1692C49.4138 49.7665 49.7825 49.743 50.0941 49.7158C50.9427 49.6942 50.9421 49.6942 50.7959 48.8863C50.7283 48.5134 50.6398 48.1447 50.5783 47.7705C50.4831 47.0616 50.319 46.3719 50.0332 45.715C50.0044 45.6464 49.9835 45.574 49.9687 45.5004C49.8913 44.8794 49.203 44.593 49.1385 43.9633C49.1877 43.6528 49.3382 43.44 49.6707 43.4029C49.8378 43.3967 49.9878 43.4586 50.1353 43.5291C50.7442 43.9021 51.108 44.46 51.3158 45.1348C51.6992 46.495 51.9395 47.8849 52.1441 49.2804C52.2289 49.8581 52.4262 50.3059 53.0124 50.4958C53.5809 50.8447 53.9754 51.3414 54.2304 51.9574C54.4627 52.6094 54.3515 53.231 54.0688 53.8384C53.9797 54.0469 53.8267 54.2226 53.7579 54.4397C53.7413 54.6512 53.9041 54.6995 54.0479 54.7372C56.5588 55.3984 59.0821 55.7442 61.6624 55.1263C64.9378 54.3432 66.7845 52.2036 67.4045 48.9476C68.1874 44.8404 67.603 40.8996 65.8141 37.1351C65.4479 36.3638 65.0306 35.6166 64.7197 34.8199C64.0314 33.4857 63.4052 32.1212 62.7981 30.7492C61.703 28.2713 60.3197 25.9784 58.5929 23.8988C57.8967 23.1256 57.2397 22.311 56.3683 21.7196C55.8491 21.1939 55.0975 20.8926 54.8406 20.1126C54.9064 19.744 54.6821 19.3364 54.9887 19.0005C57.3092 20.5209 59.2689 22.4477 60.7806 24.7592C63.8495 29.4527 66.2099 34.5366 68.1143 39.7992C69.3083 43.0992 69.2069 46.5662 68.3349 50.0096C67.1175 54.8164 63.5705 56.4036 59.9694 56.6423C57.893 56.7797 55.8712 56.3584 53.8457 55.9891C53.5391 55.9329 53.1071 55.6273 52.9473 55.9786C52.7476 56.4197 52.5872 56.9603 52.8852 57.4724C53.2374 58.0774 53.7769 58.4683 54.3527 58.8227C55.2561 59.3769 55.339 59.6151 54.8413 60.5683C54.5666 61.0922 54.2169 61.5771 53.9004 62.0788C53.8722 62.4938 53.5544 62.6961 53.2779 62.9218C52.1423 63.8484 50.8186 64.3142 49.3855 64.4701C48.6727 64.5474 48.0354 64.7725 47.4768 65.2204C46.41 66.0783 45.2517 66.2243 44.0073 65.6775C43.3313 65.38 42.6252 65.3323 41.8976 65.3187C39.5059 65.2717 37.1289 65.0292 34.7673 64.6556C34.1878 64.5641 33.6477 64.6043 33.11 64.8381C31.9135 65.3565 30.7723 65.255 29.6434 64.5857C28.6338 63.9864 27.7864 63.2014 26.95 62.3936C26.8007 62.2414 26.7245 62.0534 26.7103 61.8382Z" fill="#3E2728"/>
<path d="M24.5085 21.4834C28.7389 18.2657 33.4756 16.2275 38.6892 15.3108C39.2158 15.2181 39.7437 15.0801 40.2894 15.1475C40.9187 15.5323 41.6629 15.6102 42.3198 15.9207C42.2682 16.3673 41.9056 16.3185 41.6217 16.3327C35.6719 16.616 30.4165 18.8125 25.5956 22.2244C25.2564 22.465 24.9295 22.9493 24.3979 22.5429C24.2043 22.1644 24.307 21.8186 24.5085 21.4834Z" fill="#3E2728"/>
<path d="M42.3481 15.9634C41.5455 15.99 40.7927 15.8886 40.2894 15.1475C41.948 14.9892 43.6023 14.9181 45.267 15.142C48.8288 15.6207 52.0778 16.8752 54.9937 18.9993C55.0158 19.3859 55.2585 19.7762 54.974 20.1572C54.6975 20.2834 54.4664 20.1436 54.2593 19.9982C51.2912 17.9112 47.9746 16.7644 44.4128 16.277C43.9317 16.1057 43.4339 16.1781 42.9417 16.1737C42.7168 16.1805 42.5078 16.1409 42.3481 15.9634Z" fill="#3E2728"/>
<path d="M24.5085 21.4834C24.5147 21.8718 24.5214 22.2609 24.5288 22.6493C24.6087 23.0539 24.267 23.1831 24.0409 23.3619C21.4808 25.3932 19.188 27.6973 17.0992 30.2148C16.9007 30.4542 16.7643 30.829 16.3354 30.7548C16.0914 30.4233 16.5296 29.8709 15.979 29.6389C18.4727 26.5493 21.3026 23.8159 24.5085 21.4834Z" fill="#3E2728"/>
<path d="M50.8481 50.6999C51.3539 50.7401 51.7828 50.9826 52.1859 51.2566C53.3867 52.075 53.5532 53.0758 52.6566 54.2145C52.2738 54.7001 51.8184 55.1281 51.3956 55.5828C51.2469 55.9972 50.9096 56.1803 50.5193 56.2656C49.7284 56.4376 49.1975 56.9219 48.8239 57.6221C48.6647 57.919 48.4632 58.1912 48.2825 58.4751C47.0424 60.4241 45.2332 61.3371 43.005 61.7528C39.6896 62.3713 36.4929 61.84 33.2912 61.1021C31.377 60.6604 29.5021 60.0839 27.787 59.0936C26.2421 58.2023 25.1802 56.9232 24.8717 55.099C24.7648 53.8539 24.8453 52.6125 25.0886 51.3964C25.2441 50.6195 25.1968 49.9465 24.7525 49.2791C24.514 48.921 24.3825 48.4911 24.2025 48.094C24.2338 47.442 24.7224 47.3907 25.1845 47.3857C25.8125 47.3783 26.3976 47.5905 26.9525 47.8824C27.5 48.1713 28.0254 48.4997 28.5699 48.7954C29.472 49.2841 30.427 49.5624 31.4575 49.516C33.1683 49.4381 34.8435 49.7177 36.5181 50.0127C37.9118 50.2589 39.2982 50.541 40.7147 50.648C41.7471 50.7253 42.7334 51.0407 43.6834 51.4601C45.248 52.151 46.7855 52.2253 48.3771 51.4521C49.1416 51.0803 49.9349 50.6467 50.8481 50.6999Z" fill="#FDFBF4"/>
<path d="M64.8979 34.6894C66.3359 37.3986 67.5741 40.1846 67.8771 43.2885C68.1168 45.7299 68.0664 48.1534 67.2454 50.5113C66.1663 53.6065 63.8526 55.0768 60.7868 55.5524C58.3797 55.926 56.0273 55.5543 53.7001 54.9277C53.1919 54.791 53.0573 54.6252 53.5661 54.2943C54.2378 53.8669 54.9236 54.212 55.5873 54.2943C58.0927 54.6048 60.4844 54.2869 62.7249 53.0807C63.7543 52.5265 64.4892 51.6871 64.9237 50.5805C65.0909 50.1556 65.1671 49.7406 65.0245 49.3008C64.928 48.8195 64.7037 48.4026 64.3934 48.0278C63.9325 47.4631 63.3468 47.0548 62.7336 46.6824C61.7509 46.0868 60.7609 45.5023 59.8238 44.8336C59.5811 44.6604 59.2756 44.5311 59.2504 44.1631C59.7599 43.5247 60.3228 42.9625 61.1757 42.8264C61.3238 42.8771 61.4461 42.9724 61.5598 43.0763C62.0508 43.5254 62.599 43.7697 63.2442 43.4598C63.9589 43.1165 64.4296 42.5808 64.4782 41.731C64.5427 40.5972 64.0683 39.7287 63.2153 39.044C62.6598 38.598 62.1178 38.7768 61.5905 39.1207C61.2495 39.1355 61.1475 38.8955 61.1057 38.6265C60.7265 36.1875 59.6917 33.9651 58.8492 31.6814C58.0964 29.6389 57.4579 27.5507 56.4906 25.5911C55.6371 23.8629 54.5979 22.2596 53.4328 20.7331C53.2011 20.43 52.8963 20.159 52.924 19.7211C53.2902 19.3834 53.5913 19.6926 53.8912 19.8405C54.8167 20.2957 55.5547 21.0213 56.3763 21.6275C57.2772 22.3147 58.065 23.1213 58.8012 23.9823C59.0612 25.1959 59.0403 26.4435 59.2375 27.6651C59.4108 28.7377 59.5927 29.8072 59.9836 30.8265C60.6903 32.668 62.1934 33.61 63.895 34.3096C64.2232 34.4451 64.555 34.5861 64.8979 34.6894Z" fill="#DE4452"/>
<path d="M24.8711 55.099C25.7228 57.4223 27.3544 58.9062 29.6533 59.7239C33.1431 60.9648 36.7043 61.8301 40.4271 61.7806C42.1299 61.7577 43.8125 61.4349 45.4016 60.8107C46.8119 60.2565 47.6618 59.0145 48.4164 57.786C48.9904 56.8508 49.5773 56.098 50.7264 55.9496C50.9618 55.9192 51.1732 55.7096 51.3956 55.5834C51.4245 55.6823 51.4669 55.8061 51.5886 55.7374C52.1368 55.4263 52.0919 55.7875 52.0851 56.1549C52.063 57.2405 51.6187 58.2314 51.4073 59.2743C51.3244 59.9058 51.0134 60.4173 50.6109 60.8367C51.0177 60.5318 51.1068 59.9213 51.5683 59.607C51.8897 59.2705 51.7785 58.5462 52.2166 58.4763C52.5092 58.4293 52.8785 58.9477 53.2306 59.187C54.2581 59.8841 54.3079 60.0604 53.4764 61.0421C52.318 62.4103 50.8665 63.2194 49.0377 63.1779C48.6985 63.1699 48.4558 63.2713 48.2087 63.4897C47.7239 63.9177 47.1972 64.2913 46.6319 64.6068C45.8748 65.0292 45.1429 64.9816 44.4639 64.462C44.1775 64.2437 43.8917 64.1552 43.5415 64.1509C39.4137 64.1008 35.3229 63.7043 31.2117 62.7245C31.3727 63.0765 31.6357 63.1662 31.8625 63.2874C32.1065 63.4192 32.3633 63.5268 32.732 63.7006C32.0561 64.0247 31.4428 64.1534 30.9088 63.8051C28.8692 62.4753 26.8787 61.0823 25.7732 58.7683C25.2195 57.6036 24.8914 56.3918 24.8711 55.099Z" fill="#FDC69D"/>
<path d="M56.3265 21.7363C55.1995 21.0392 54.2052 20.1287 52.9694 19.6073C52.7519 19.671 52.5602 19.5813 52.3783 19.4879C51.8516 19.2182 51.3723 19.1125 50.7866 19.4545C50.2237 19.7836 49.627 19.4545 49.4378 18.9238C49.0734 17.9044 48.2456 17.7312 47.4 17.5079C47.1751 17.4486 46.9465 17.4096 46.7204 17.357C45.699 17.2686 44.6537 17.0013 43.7571 17.785C42.8722 18.3739 41.9529 18.9108 41.1129 19.5689C39.6945 20.4869 38.2123 21.2607 36.5298 21.5434C35.5576 21.7066 34.5811 21.7289 33.6237 21.432C33.0682 21.2601 32.5569 20.9953 32.3209 20.4207C32.1292 19.9506 31.8416 19.958 31.4618 20.1423C30.3489 20.6817 29.22 21.1908 28.1766 21.8644C26.6593 22.4334 25.9705 23.4974 26.2605 25.1427C25.9545 26.1305 25.1728 26.5517 24.2793 26.84C23.7305 26.9773 23.1897 26.8759 22.7301 26.5963C22.2194 26.2845 21.898 26.4367 21.5422 26.8245C21.1096 27.2952 20.6813 27.7833 20.1239 28.108C19.5487 28.4433 19.6679 29.0303 19.5573 29.5381C19.3551 30.0156 19.0079 30.2742 18.4801 30.2531C18.2263 30.2426 18.0315 30.3663 17.8791 30.5507C16.2875 32.4719 14.7991 34.4488 14.5391 37.0665C14.4986 37.3708 14.4046 37.6331 14.0555 37.6931C13.8484 35.3729 14.56 33.3273 15.8763 31.4599C16.0373 31.2311 16.1824 30.9905 16.336 30.7548C18.5114 28.1847 20.7857 25.7149 23.4067 23.5914C23.7858 23.284 24.1558 22.9642 24.5294 22.6493C26.2734 21.4679 27.9892 20.2407 29.8806 19.2986C33.6489 17.4213 37.596 16.2133 41.8202 16.0345C41.9972 16.0271 42.1735 15.9875 42.3499 15.9628C42.517 16.0203 42.6836 16.0271 42.8495 15.956C43.3798 16.1181 43.9354 15.917 44.4663 16.0741C48.3378 16.4712 51.7988 17.9415 54.9764 20.1566C55.4908 20.6273 56.0052 21.0986 56.5195 21.5687C56.525 21.7085 56.4906 21.7982 56.3265 21.7363Z" fill="#FDFEFC"/>
<path d="M50.8481 50.6999C49.9509 51.0735 49.0347 51.4069 48.1602 51.8288C46.8187 52.477 45.4391 52.4931 44.1375 51.9104C42.5361 51.1935 40.8621 50.9473 39.1605 50.716C37.3901 50.4754 35.6258 50.176 33.8646 49.8717C33.5315 49.8142 33.2003 49.7517 32.8734 49.79C30.6408 50.056 28.6688 49.375 26.8511 48.1292C26.3656 47.7958 25.8058 47.7092 25.2552 47.6165C24.8299 47.5441 24.4391 47.6802 24.2019 48.0958C24.1675 48.0593 24.1146 48.0296 24.1005 47.9863C23.7994 47.0987 23.1861 46.1146 23.9173 45.2957C24.7224 44.3944 25.8998 44.5392 26.9986 44.8008C27.4834 45.2697 28.0918 45.5561 28.6399 45.9315C28.9601 46.1499 29.2385 46.3923 29.4333 46.748C29.7879 47.3938 30.8707 47.6134 31.5509 47.3022C32.6362 46.8055 33.7239 46.2389 34.9916 46.5674C36.9108 47.9387 39.0456 48.3321 41.3421 47.9962C42.2522 48.2325 43.0578 48.668 43.7793 49.276C44.2899 49.7059 44.776 50.1723 45.4852 50.2805C46.1145 50.3764 46.6896 50.348 47.2624 49.9997C47.8978 49.6138 48.5658 49.2272 49.3438 49.2624C49.7352 49.2797 50.268 49.2333 50.1832 49.9212C49.965 50.0238 49.6725 49.8674 49.4814 50.142C49.8581 50.528 50.4401 50.4067 50.8481 50.6999Z" fill="#FDEFDF"/>
<path d="M50.1807 45.4404C50.2029 45.4893 50.1979 45.5357 50.166 45.5783C49.8987 45.9526 49.5318 45.8412 49.1821 45.7732C43.2108 44.6146 37.2494 43.4109 31.2596 42.3495C30.5456 42.2227 29.6662 42.193 29.4523 41.1941C29.8518 40.5545 30.3047 39.9693 31.0188 39.6551C31.4612 39.2691 32.0118 39.2858 32.5452 39.2357C35.1852 39.0891 37.7785 39.3854 40.3164 40.1215C41.8693 40.5718 43.4542 40.9386 44.8959 41.7173C46.2343 42.5561 47.6882 43.2 48.9431 44.1884C49.4144 44.5608 49.7739 45.0185 50.1807 45.4404Z" fill="#FDCEA8"/>
<path d="M29.453 41.1953C29.8874 41.8349 30.5929 42 31.2584 42.1101C34.2616 42.6037 37.2432 43.2099 40.2316 43.7845C42.6172 44.2429 44.996 44.739 47.3841 45.1719C48.2917 45.3365 49.2006 45.7398 50.1666 45.579C50.673 46.2192 50.6773 47.0053 50.7934 47.76C50.6828 47.9944 50.4831 48.149 50.2428 48.1057C49.1274 47.9072 47.9894 48.1274 46.8765 47.9072C46.6534 47.8026 46.5471 47.5923 46.4223 47.395C45.8072 46.4295 45.4987 46.3126 44.3661 46.6064C44.2666 46.6323 44.1652 46.6515 44.062 46.6577C41.712 46.2897 39.3658 45.8926 37.0398 45.3983C35.7346 45.1212 34.4287 44.8942 33.1001 44.7971C32.4469 44.4111 31.7599 44.1643 30.9843 44.2812C30.5155 44.1266 30.022 44.1495 29.5439 44.0746C28.9712 43.9849 28.3462 43.9367 28.1121 43.2371C28.4839 42.5072 28.9073 41.8101 29.453 41.1953Z" fill="#FDD8B8"/>
<path d="M33.0153 44.6388C34.146 44.4736 35.2448 44.7198 36.327 44.9703C38.7636 45.5357 41.2413 45.8641 43.6902 46.3596C43.8635 46.3948 44.03 46.4672 44.199 46.5222C44.376 46.8606 44.2457 47.1631 44.0914 47.4637C43.7498 47.8348 43.3344 47.8311 42.9011 47.6857C42.4857 47.5466 42.0721 47.4377 41.6438 47.6307C39.5348 48.3148 37.5579 47.922 35.6627 46.8773C35.4138 46.7406 35.1729 46.5915 34.8706 46.6651C33.51 46.7301 32.2011 46.9398 31.1238 47.9944C30.9616 47.7569 30.8375 47.1934 30.3883 47.789C30.2623 47.956 30.1388 47.6461 30.0742 47.64C29.3055 47.5682 29.3497 46.7474 28.9103 46.4022C28.4691 46.0565 27.9689 45.7806 27.4754 45.5084C27.1811 45.3458 26.9605 45.1726 26.9992 44.8002C27.5584 44.4155 27.6567 43.6979 28.1115 43.2371C28.6682 43.6948 29.3042 43.9008 30.0214 43.8575C30.3839 43.8359 30.7361 43.8649 31.0175 44.1402C31.0175 44.486 30.7312 44.6678 30.5751 44.9251C30.2193 45.5128 30.4319 45.9773 31.1103 46.0948C31.8951 46.2309 32.4555 45.9198 32.748 45.18C32.8224 44.9907 32.8365 44.7736 33.0153 44.6388Z" fill="#FDE0C5"/>
<path d="M30.7017 39.0155C29.6508 39.224 28.9552 39.7609 28.514 40.8248C28.1139 41.7879 27.4005 42.6167 26.8302 43.5087C26.6692 43.761 26.4338 43.7981 26.164 43.8068C25.6263 43.8247 25.0886 43.8631 24.5509 43.8928C24.5313 43.8594 24.5122 43.8247 24.4925 43.7907C24.6456 43.3862 25.0567 43.3812 25.3658 43.2223C25.697 43.0509 26.051 42.8703 26.0067 42.4404C25.9619 42.0112 25.5501 41.9864 25.2318 41.9406C22.9059 41.6085 20.8325 40.5328 18.6847 39.6823C18.037 39.4262 17.4483 39.0341 16.9296 38.5652C16.6998 38.3574 16.2961 38.0939 16.7852 37.7221C17.6413 38.1718 18.4131 38.7625 19.306 39.1572C20.5823 39.7213 21.9269 39.9953 23.2826 40.244C24.3395 40.4945 25.3965 40.2737 26.5702 40.3491C25.7664 39.5017 25.0014 38.9184 23.9622 38.7223C23.0355 38.5473 22.1856 38.0871 21.2768 37.8254C21.0119 37.7543 20.7618 37.6529 20.5479 37.476C19.8259 36.8679 18.9735 36.4232 18.3535 35.6877C18.1255 35.4174 17.8225 35.1811 17.9418 34.7543C18.0284 34.5929 18.1624 34.5416 18.3363 34.583C20.1116 36.4931 22.3884 37.4494 24.8453 38.0617C25.9612 38.4118 27.1043 38.6629 28.2301 38.9803C28.581 39.0792 29.091 39.2413 29.067 38.5306C28.7223 37.9912 28.0039 37.8341 27.747 37.2087C27.6143 36.7931 27.272 36.5432 26.9795 36.2648C25.8998 35.2349 24.9067 34.1376 24.181 32.8164C24.0372 32.5548 23.7797 32.3321 23.8879 31.9801C23.9825 31.9047 24.09 31.888 24.2062 31.909C24.8256 32.1972 25.0155 32.8591 25.4229 33.3317C26.2206 34.403 27.186 35.3024 28.238 36.112C29.1561 36.7745 30.25 37.0745 31.2363 37.5941C31.7279 37.8539 32.3928 37.886 32.5987 38.5627C32.517 38.7143 32.3854 38.8015 32.2324 38.8627C31.7322 39.0106 31.2203 39.0495 30.7017 39.0155Z" fill="#FB8C65"/>
<path d="M64.8979 34.6894C64.7135 34.8657 64.5169 34.776 64.3221 34.7154C61.7036 33.9038 59.8717 32.3284 59.3119 29.4991C58.9506 27.6719 58.7054 25.8318 58.6796 23.9656C58.6163 23.8864 58.6212 23.8103 58.6943 23.7398C60.1956 25.3344 61.3238 27.1839 62.2788 29.1429C63.1742 30.9799 64.0265 32.8393 64.8979 34.6894Z" fill="#FDC69C"/>
<path d="M52.97 50.6962C52.2603 50.5014 51.988 50.0152 51.8873 49.2933C51.6881 47.8849 51.3987 46.4888 51.1474 45.0884C51.5284 44.8051 51.8725 45.0476 52.2148 45.1787C52.8994 45.441 53.5385 45.8121 54.2409 46.0323C55.3919 46.4956 56.5355 46.9787 57.7449 47.2738C59.1576 47.6993 60.6116 47.7767 62.0717 47.7903C62.5584 47.7946 63.0445 47.789 63.5281 47.8608C63.8034 47.9065 64.0179 48.06 64.2108 48.2529C64.6803 48.8319 65.0325 49.4529 64.8819 50.2453C64.6711 50.6585 64.7344 51.2851 64.0566 51.3401C63.828 51.0834 63.8655 50.7612 63.8458 50.4537C63.7739 49.3119 63.1711 48.6513 62.0428 48.6507C60.3283 48.6494 58.6617 48.3501 56.997 48.0006C56.3898 47.8731 55.7987 47.7012 55.2229 47.4692C54.2679 47.0845 54.2654 47.0913 53.0708 47.2942C55.9204 49.6781 58.9358 51.5016 62.763 51.4063C63.1447 51.397 63.5398 51.3488 63.8956 51.5603C64.1365 51.8807 63.8827 52.0935 63.7039 52.2778C63.2977 52.6941 62.8743 53.1055 62.2481 53.1605C59.8447 52.2655 57.3411 51.6265 55.0871 50.3405C54.797 50.176 54.499 50.0195 54.1714 49.936C53.2834 49.709 53.0616 49.8507 52.97 50.6962Z" fill="#FA8A63"/>
<path d="M52.97 50.6962C52.4729 49.6026 52.4729 49.6026 53.7327 49.6267C53.9625 49.6311 54.1935 49.6113 54.4062 49.735C56.7241 51.0921 59.2855 51.8442 61.7773 52.7714C61.9402 52.8321 62.0803 52.9545 62.2302 53.0485C62.1516 53.3968 61.8677 53.5094 61.5856 53.6312C60.8605 53.9436 60.1114 54.1545 59.3248 54.2226C57.5322 54.2442 56.0555 53.3479 54.553 52.5352C54.3293 52.4145 54.1726 52.1937 54.0553 51.9593C53.7591 51.4818 53.4008 51.0574 52.97 50.6962Z" fill="#FDC69C"/>
<path d="M41.6782 47.4556C41.9886 47.0412 42.4052 47.2224 42.7106 47.3715C43.1623 47.5923 43.574 47.5998 44.0202 47.4426C44.1517 47.4692 44.2469 47.5534 44.3385 47.6449C45.4243 48.7305 45.688 48.7422 46.7966 47.7562C47.9076 47.8039 49.0297 47.5595 50.1303 47.8942C50.3596 47.9641 50.5845 47.8707 50.7916 47.7587C50.9028 48.2907 50.9882 48.83 51.1326 49.3527C51.2887 49.9168 51.1148 50.0944 50.5648 49.9558C50.4419 49.9255 50.3104 49.9305 50.1826 49.9199C49.9269 49.2884 49.3794 49.4282 48.9369 49.5234C48.4718 49.623 48.0299 49.863 47.5961 50.0808C46.0253 50.87 45.0188 50.7655 43.7043 49.5414C43.0056 48.8913 42.1772 48.5301 41.3212 48.1911C41.3482 47.901 41.5658 47.7037 41.6782 47.4556Z" fill="#FDE3CF"/>
<path d="M32.214 38.6889C32.332 38.645 32.4487 38.6017 32.5667 38.5578C32.7234 38.3425 32.9576 38.3289 33.1874 38.3326C33.9764 38.3456 34.7643 38.2702 35.5527 38.3283C36.0627 38.5621 36.617 38.379 37.14 38.4935C38.4858 38.7341 39.8205 39.0248 41.1288 39.4287C41.3095 39.4906 41.4779 39.5877 41.6659 39.6285C41.8362 39.699 42.0125 39.7448 42.1938 39.7763C42.4083 39.832 42.6197 39.8976 42.8329 39.9607C44.0497 40.3912 45.2879 40.7635 46.4574 41.3233C46.6479 41.4291 46.8334 41.5448 47.0325 41.6338C47.4363 41.846 47.8517 42.0365 48.237 42.2852C48.4859 42.4639 48.7624 42.5975 49.0168 42.7658C49.2086 42.9074 49.4341 42.9971 49.6203 43.1493C49.7217 43.2569 49.7967 43.3726 49.7395 43.5303C49.4255 43.568 49.3487 43.8365 49.2307 44.0635C48.8417 44.2355 48.5854 43.9305 48.3286 43.7586C47.255 43.0404 46.088 42.5122 44.9266 41.9672C40.9605 40.3708 36.8985 39.253 32.5735 39.459C32.8863 38.8442 33.4523 39.1968 33.8769 39.0842C33.3834 38.7811 32.6884 39.1937 32.214 38.6889Z" fill="#6D2D2F"/>
<path d="M63.6277 48.0488C61.7159 48.1082 59.8152 48.0296 57.9434 47.593C57.8248 47.5657 57.7154 47.4983 57.6011 47.4501C57.9108 47.1055 58.3102 47.207 58.6869 47.2453C59.071 47.2855 59.4526 47.3678 59.8398 47.3325C60.0579 47.3134 60.3732 47.3771 60.4273 47.0913C60.4758 46.834 60.1821 46.727 60.0026 46.5934C59.7691 46.4208 59.4981 46.3466 59.2111 46.307C57.3522 46.0528 55.4668 46.0156 53.6276 45.6025C53.5753 45.5907 53.5305 45.6297 53.5225 45.6433C53.925 45.6012 54.2138 45.6977 54.185 46.2105C53.1218 45.9773 52.2289 45.2728 51.1474 45.0884C50.8721 44.5416 50.496 44.074 50.0455 43.6652C50.0505 43.4221 50.244 43.3367 50.4099 43.3571C51.4651 43.4845 52.546 43.5334 53.4586 44.1909C53.5102 44.4445 53.2478 44.4241 53.1501 44.5404C53.6503 44.7198 54.161 44.8608 54.6434 44.9994C54.3804 44.8565 54.0313 44.8503 53.7609 44.6517C53.5876 44.5249 53.4119 44.3821 53.7105 44.1922C54.4387 44.1 55.1012 44.4068 55.7913 44.5404C56.8993 44.7569 58.0177 44.7056 59.1331 44.7328C59.3961 44.7464 59.637 44.8466 59.8422 44.9988C60.8912 45.7794 62.0391 46.4128 63.0765 47.2082C63.3487 47.4167 63.71 47.593 63.6277 48.0488Z" fill="#FDC69D"/>
<path d="M14.0543 37.6931C14.2583 37.5038 14.2706 37.2372 14.3345 36.991C14.5981 36.7467 14.9017 36.6805 15.2434 36.7832C15.4947 37.0009 15.4388 37.296 15.4413 37.5774C15.4701 40.2316 16.4442 42.399 18.5999 44.0023C19.7497 44.8577 20.6174 46.0812 21.9699 46.6781C22.4124 46.8736 22.7418 47.1779 22.9722 47.5998C23.0693 47.8274 23.226 48.0383 23.175 48.3934C21.611 47.7643 20.2456 46.8686 18.9397 45.8759C16.3624 43.9175 14.5772 41.4446 14.0789 38.1514C14.0567 38.0011 14.0623 37.8458 14.0543 37.6931Z" fill="#DE4751"/>
<path d="M22.9734 47.5998C22.6305 47.3758 22.2956 47.1402 21.946 46.9286C19.9113 45.6983 18.1163 44.1612 16.6383 42.3105C15.3866 40.7425 15.0891 38.8176 15.2311 36.8296C14.8986 36.2271 15.2096 35.7898 15.5992 35.3717C15.6785 35.3389 15.7614 35.3296 15.8468 35.3413C16.1437 35.4397 16.3385 35.6438 16.4435 35.9382C16.2229 36.9929 16.0478 38.0314 16.2543 39.1337C16.591 40.9318 17.2289 42.4918 18.9059 43.427C19.1056 43.539 19.2931 43.6775 19.4627 43.8353C20.2235 45.1435 21.4255 45.9408 22.6908 46.6657C22.7848 46.9781 22.8782 47.2892 22.9734 47.5998Z" fill="#B63541"/>
<path d="M59.3131 54.0252C60.3603 53.9263 61.3349 53.6077 62.2302 53.0492C62.9197 52.7337 63.5201 52.3094 63.9257 51.6451C63.8809 51.4762 63.9595 51.3908 64.1162 51.3581C64.4358 51.0556 64.4567 50.5904 64.708 50.2496C65.0429 49.9626 64.8248 49.43 65.1849 49.1529C65.5917 50.0232 65.1935 50.7692 64.7793 51.4762C63.9122 52.9558 62.4699 53.617 60.925 54.0951C58.7773 54.7601 56.6019 54.7898 54.4074 54.3549C54.1339 54.3005 53.847 54.3116 53.5661 54.2925C53.6878 54.1397 53.8101 53.9869 53.9324 53.8347C54.2728 53.4964 54.687 53.578 55.084 53.6529C56.2079 53.8644 57.3546 53.8811 58.4823 54.063C58.7502 54.1075 59.0403 54.1149 59.3131 54.0252Z" fill="#BE3A44"/>
<path d="M22.6902 46.6664C22.6213 46.756 22.5199 46.8117 22.4265 46.7536C21.2577 46.0299 20.0084 45.3946 19.4252 44.0165C19.6274 43.8019 19.8867 43.8384 20.1405 43.8526C21.2872 43.9194 22.429 43.912 23.5628 43.6893C23.8854 43.625 24.2215 43.5668 24.5061 43.8223C24.5214 43.8452 24.5356 43.8687 24.5503 43.8922C24.3143 43.9874 24.0704 44.0685 23.8418 44.1792C22.7872 44.6882 22.5623 45.1806 22.6902 46.6664Z" fill="#F98C64"/>
<path d="M59.3131 54.0252C57.8923 54.3228 56.4765 54.1774 55.0692 53.9337C54.6889 53.8675 54.3158 53.8112 53.9318 53.8354C54.0639 53.2168 54.2267 52.5989 54.0559 51.9599C54.9611 52.5921 55.9658 53.0189 56.9724 53.4525C57.7283 53.7772 58.4712 54.0877 59.3131 54.0252Z" fill="#FA8965"/>
<path d="M53.442 44.3023C52.3383 43.9324 51.2561 43.4518 50.0455 43.6652C49.9435 43.62 49.8415 43.5749 49.7395 43.5297C49.6676 43.4425 49.5951 43.3559 49.5232 43.2687C49.7715 42.939 50.1113 43.0571 50.4302 43.0819C51.4411 43.1617 52.4127 43.4604 53.4082 43.6231C54.5094 43.8247 55.5977 44.0932 56.7008 44.2899C57.3393 44.452 57.9956 44.3332 58.639 44.4142C58.9469 44.4773 59.2842 44.5045 59.2922 44.9437C57.5599 45.0588 55.8607 44.8571 54.1856 44.4031C53.9908 44.3499 53.7812 44.353 53.579 44.3307C53.5225 44.3709 53.4764 44.3641 53.442 44.3023Z" fill="#F5A07F"/>
<path d="M32.214 38.6889C33.0159 38.7984 33.9156 38.4737 34.6346 39.2413C33.9267 39.477 33.212 39.1429 32.5723 39.4584C32.0554 39.5246 31.5374 39.5902 31.0194 39.6563C30.9948 39.4015 30.902 39.1807 30.7004 39.0149C31.1773 38.7761 31.6855 38.684 32.214 38.6889Z" fill="#5B2D2F"/>
<path d="M44.926 41.9666C46.4881 42.3996 47.8492 43.2514 49.2295 44.0629C49.5853 44.4946 50.1076 44.8089 50.1807 45.4398C49.0746 44.6499 48.0569 43.7382 46.8666 43.0608C46.2214 42.694 45.5012 42.4596 44.926 41.9666Z" fill="#F29169"/>
<path d="M58.6943 23.7392C58.6888 23.814 58.6845 23.8889 58.6795 23.9637C57.8948 23.2215 57.1107 22.4786 56.3259 21.7357C56.3892 21.6801 56.4531 21.6244 56.5164 21.5687C57.4013 22.1304 58.0589 22.924 58.6943 23.7392Z" fill="#F2E2E0"/>
<path d="M51.5689 59.6058C51.3956 60.3227 50.861 60.7705 50.3172 61.2215C50.6803 60.572 51.0448 59.9225 51.4079 59.273C51.4614 59.3837 51.5155 59.4951 51.5689 59.6058Z" fill="#5E3E36"/>
<path d="M44.4645 16.0748C43.9225 16.0834 43.3804 16.0822 42.8483 15.9566C43.389 15.9609 43.9427 15.797 44.4645 16.0748Z" fill="#63342F"/>
<path d="M46.8052 17.1752C47.5825 17.2277 48.2899 17.5302 49.007 17.7999C49.2706 17.8989 49.3837 18.0566 49.439 18.3572C49.6203 19.3463 50.3301 19.632 51.0798 19.0141C51.3059 18.8279 51.4663 18.8162 51.6845 18.9294C52.1146 19.1527 52.5417 19.3815 52.9694 19.6079C53.8009 20.9434 54.8327 22.1378 55.6346 23.4974C56.7844 25.4458 57.6582 27.5155 58.3711 29.6581C59.2867 32.4057 60.5532 35.0277 61.236 37.8619C61.3281 38.2454 61.0448 38.7891 61.6053 39.0279C61.7386 39.2401 61.6587 39.4411 61.5309 39.6038C60.8599 40.4635 60.8298 41.4037 61.1542 42.3971C61.2114 42.5709 61.2605 42.7479 61.1389 42.9173C60.5299 43.3342 59.9203 43.7499 59.3113 44.1668C59.1964 44.2528 59.0569 44.2571 58.9542 44.186C57.979 43.5093 56.8919 42.9879 56.0764 42.0866C54.8658 40.7697 53.5803 39.55 51.9149 38.825C51.5364 38.6599 51.1369 38.525 50.8475 38.2151C50.016 37.325 48.9591 36.8642 47.8019 36.6459C45.3506 36.1826 43.067 35.2399 40.8074 34.2255C40.4664 34.0721 40.0522 33.9991 39.8777 33.5878C39.858 32.9772 40.3472 32.864 40.7515 32.8022C41.9941 32.6129 43.067 32.016 44.1861 31.5045C45.7845 30.7746 47.1235 29.7459 48.1725 28.3295C48.6518 28.1445 49.0826 28.3567 49.5121 28.5132C50.3436 28.8163 51.1935 28.9975 52.0796 28.935C53.6749 28.8231 54.8579 27.4548 54.6716 25.8571C54.44 23.8685 53.4426 22.3623 51.6734 21.4227C50.6361 20.8722 49.5472 20.9143 48.449 21.2304C48.0828 21.3355 47.7429 21.5601 47.3355 21.4895C47.1843 21.4357 47.051 21.3405 46.9908 21.1988C46.5249 20.0873 46.0653 18.9696 45.7015 17.8222C45.503 17.1919 45.8103 17.0378 46.8052 17.1752Z" fill="#FE5C4D"/>
<path d="M56.2184 41.9901C57.1795 42.8165 58.2531 43.4796 59.3119 44.1662C60.6724 45.2771 62.2647 46.0317 63.6811 47.0567C64.0173 47.2991 64.327 47.5663 64.5525 47.922C64.6914 48.3872 64.4984 48.5096 64.0738 48.3915C63.9257 48.2777 63.7764 48.1639 63.6283 48.0501C63.1336 47.4068 62.4306 47.0294 61.7792 46.5903C60.9551 46.0342 60.1218 45.493 59.2928 44.9443C59.1447 44.7878 58.9758 44.6666 58.7601 44.6258C57.193 44.032 55.9781 42.918 54.7276 41.8553C54.612 41.7637 54.4922 41.6765 54.373 41.5893C53.3873 40.6646 52.3051 39.9403 50.9071 39.8475C50.6791 39.832 50.4665 39.7324 50.2588 39.6365C49.9601 39.4788 49.667 39.2908 49.4857 39.0112C48.932 38.1551 48.0815 37.883 47.1591 37.6751C45.8355 37.377 44.5216 37.0318 43.2367 36.5846C43.0849 36.5512 42.9527 36.4652 42.8059 36.4201C42.2043 36.1912 41.6315 35.885 40.9924 35.762C39.5587 35.1317 38.1158 34.5286 36.5925 34.1469C36.2926 34.0721 36.0179 33.9267 35.7469 33.7801C35.2639 33.5457 34.7477 33.4152 34.2265 33.3032C34.1454 33.2952 34.0674 33.2791 33.9893 33.2581C33.188 33.0577 32.4063 32.7366 31.5522 32.8702C30.7557 32.7243 29.9421 32.7861 29.142 32.676C27.8828 32.4434 26.6053 32.4125 25.3344 32.3036C24.9454 32.2702 24.5737 32.214 24.224 32.0364C24.1195 32.037 24.0151 32.0383 23.9112 32.0389C23.3612 32.3797 22.7301 32.3129 22.1322 32.3816C21.3149 32.4762 20.5338 32.6587 19.7878 33.0187C19.2925 33.2581 18.9582 33.6057 18.8322 34.1482C18.7197 34.3708 18.611 34.5972 18.3184 34.6189C18.222 34.664 18.1255 34.7086 18.029 34.7537C17.5614 35.2894 16.9444 35.5993 16.3213 35.8999C16.124 35.7941 15.9777 35.6401 15.8788 35.4391C15.81 34.7816 16.3477 34.5459 16.7594 34.3337C17.5245 33.9391 18.0487 33.3558 18.4457 32.6172C19.711 31.4655 21.243 31.0393 22.8997 30.9824C23.2088 30.9713 23.5124 30.983 23.8067 30.8742C24.4944 30.7665 25.1679 31.0065 25.8531 30.9614C28.8624 31.4222 31.9295 31.4872 34.8958 32.2436C37.3471 32.869 39.6761 33.8537 41.9879 34.8669C43.7891 35.6562 45.6302 36.3032 47.5555 36.6885C48.5983 36.8976 49.5109 37.3083 50.2158 38.1384C50.5064 38.4799 50.8721 38.7341 51.3213 38.8089C52.8379 39.0613 54.0123 39.9335 55.0883 40.9534C55.4582 41.3054 55.9197 41.559 56.2184 41.9901Z" fill="#752C2F"/>
<path d="M61.1395 42.9167C60.3246 41.5015 60.745 40.2372 61.6065 39.026C62.2591 38.3561 62.8755 38.3351 63.5367 38.9642C64.3006 39.6916 64.759 40.5495 64.7142 41.6462C64.6724 42.6705 64.1881 43.3887 63.2639 43.7245C62.4748 44.0109 61.8536 43.7746 61.1395 42.9167Z" fill="#FDC69C"/>
<path d="M64.0738 48.3915C64.354 48.3606 64.5402 48.2319 64.5525 47.922C64.8954 48.2635 65.1621 48.6445 65.1855 49.1542C65.1609 49.5785 65.3053 50.0789 64.7086 50.2509C64.7867 49.5296 64.4573 48.9507 64.0738 48.3915Z" fill="#973138"/>
<path d="M25.933 31.181C25.2097 31.3022 24.5024 31.074 23.7846 31.0826C23.6678 31.1513 23.5388 31.1451 23.411 31.1439C23.2832 31.1426 23.1283 31.1482 23.1234 30.9775C23.1197 30.8426 23.2291 30.7468 23.3612 30.7059C23.6611 30.6131 23.9739 30.7195 24.3205 30.5872C23.328 30.169 22.59 29.3934 21.726 28.8033C20.771 28.1513 20.2536 28.3375 19.7177 29.3371C19.655 29.4552 19.5825 29.5579 19.4234 29.5084C19.2408 28.7191 19.652 28.2138 20.2192 27.7666C20.4803 27.56 20.7052 27.3051 20.9492 27.0757C21.5674 26.4955 22.0867 25.6307 23.1179 26.519C23.3458 26.715 23.8092 26.6346 24.1644 26.6816C24.9983 26.4849 25.6675 26.9254 26.3263 27.3045C27.6297 28.0542 28.9755 28.7018 30.4429 29.0161C32.6091 29.4793 34.8085 29.6952 37.0214 29.4936C38.0157 29.4033 39.0143 29.3989 40.008 29.2128C41.6616 28.9022 43.059 28.1792 44.2291 26.9724C44.6046 26.5845 44.9868 26.1781 45.6007 26.2208C45.8139 26.2548 45.9719 26.381 46.0886 26.553C46.5557 27.247 47.1684 27.7561 47.9408 28.0728C48.0772 28.1284 48.2173 28.2126 48.1774 28.4099C47.6403 29.741 46.5569 30.5315 45.3629 31.1439C43.8825 31.9034 42.4679 32.848 40.7472 33.0385C40.4455 33.0719 40.0553 33.1288 39.9809 33.5686C39.6337 33.8581 39.2976 33.6453 38.9676 33.5352C37.151 32.9284 35.3622 32.2313 33.4621 31.901C31.5245 31.5645 29.5611 31.4717 27.6137 31.236C27.0618 31.1674 26.4971 31.0566 25.933 31.181Z" fill="#FE6A4F"/>
<path d="M45.7119 26.3854C45.2277 26.3674 44.8848 26.6322 44.5855 26.9705C42.8335 28.9511 40.5592 29.6099 38.0243 29.6748C37.0527 29.6995 36.0861 29.874 35.1078 29.8208C32.5157 29.6804 29.9347 29.4824 27.5627 28.2639C26.6286 27.7839 25.7425 27.2105 24.7525 26.8388C24.5571 26.7658 24.3696 26.7045 24.165 26.6804C24.9952 26.4082 25.6884 25.9617 26.0835 25.1384C26.3386 24.6868 26.6464 24.9213 26.9279 25.0883C27.2819 25.2986 27.5762 25.593 27.9117 25.8318C29.0836 26.6668 30.3661 27.2185 31.7918 27.4214C32.096 27.4647 32.4027 27.5043 32.67 27.6806C33.9863 28.7513 35.2055 28.7971 36.6299 27.8278C36.7565 27.7425 36.885 27.6608 37.0331 27.6144C38.0163 27.4177 39.01 27.2736 39.9742 26.9792C43.2913 25.9672 45.1312 22.2918 43.6883 19.0061C43.5101 18.6003 43.1764 18.1828 43.5415 17.7009C44.4583 16.4484 45.6738 17.0719 46.8052 17.1745C45.699 17.216 45.637 17.3279 46.12 18.3448C46.4629 19.0648 46.7849 19.7916 46.965 20.5778C47.0387 20.9001 47.1647 21.2199 47.4596 21.424C47.4836 21.7475 47.2648 21.9423 47.0743 22.1458C46.1341 23.1565 45.6695 24.333 45.8305 25.7322C45.857 25.9598 45.9061 26.1967 45.7119 26.3854Z" fill="#FE7950"/>
<path d="M28.0721 21.6862C29.279 20.8376 30.6224 20.2586 31.9608 19.6685C32.163 19.5788 32.3615 19.496 32.3799 19.8516C32.4235 20.7201 33.0522 21.0201 33.7411 21.2186C34.9093 21.5551 36.0732 21.4252 37.2359 21.1401C38.629 20.798 39.8371 20.0663 41.0606 19.3617C41.2849 19.4242 41.3753 19.6067 41.4533 19.8021C41.8251 20.7331 41.3452 22.3066 40.561 22.7279C40.2544 22.6524 40.2415 22.3549 40.1309 22.1353C39.9275 21.7302 39.6091 21.5662 39.1839 21.7091C38.8133 21.8347 38.5712 22.1167 38.6013 22.5231C38.637 23.0056 38.9836 23.1491 39.4143 23.1491C39.6159 23.1491 39.8255 23.1002 40.003 23.2493C40.0725 23.7639 39.6767 23.9798 39.3566 24.2155C38.5165 24.8353 37.556 25.212 36.5771 25.5435C36.5015 25.5497 36.4167 25.5639 36.3528 25.5305C35.1741 24.9089 34.0305 24.9744 32.9164 25.6982C30.9788 25.3332 29.4597 24.3175 28.3554 22.6772C28.1606 22.3901 27.9037 22.0914 28.0721 21.6862Z" fill="#FEA355"/>
<path d="M40.4277 22.6388C40.9746 22.2776 41.4785 20.9644 41.3261 20.2506C41.2616 19.9487 41.1504 19.6574 41.0606 19.3617C41.8239 18.711 42.6762 18.1964 43.5415 17.7022C43.496 18.0566 43.6582 18.3504 43.8014 18.6572C45.4071 22.1013 43.7811 25.9505 40.1874 27.1684C39.171 27.513 38.1214 27.7406 37.0417 27.7895C37.2537 26.9352 36.7879 26.2159 36.5832 25.4445C37.0779 24.9151 37.8313 24.9213 38.4077 24.5427C38.9823 24.166 39.6294 23.8951 39.9711 23.2394C39.949 22.9042 40.0571 22.6703 40.4277 22.6388Z" fill="#FE8851"/>
<path d="M19.4234 29.5066C19.7638 29.2134 19.4123 28.6443 20.0182 28.3598C20.8281 27.98 21.5041 28.2509 22.0013 28.6827C22.8057 29.3816 23.6384 29.9866 24.5915 30.4437C24.7138 30.5018 24.8748 30.5773 24.8957 30.842C24.369 30.9942 23.8178 30.8717 23.2211 30.868C23.387 31.1519 23.6156 31.0294 23.7846 31.082C22.9765 31.3177 22.1242 31.1896 21.3069 31.4222C20.2904 31.7117 19.3361 32.0915 18.5341 32.8028C17.5091 33.5859 16.3821 34.2576 15.7123 35.4298C15.4818 35.8721 15.2133 36.3013 15.2305 36.8296C14.9576 37.0306 14.643 36.9941 14.3345 36.9904C14.3714 35.9092 14.7382 34.9251 15.2225 33.9805C15.8235 32.8065 16.5664 31.7259 17.4194 30.7263C17.7531 30.3348 17.9737 29.733 18.7339 30.0367C19.0282 30.1548 19.223 29.7336 19.4234 29.5066Z" fill="#FE604E"/>
<path d="M28.0721 21.6862C28.9706 23.5518 30.376 24.7988 32.3885 25.3202C32.5575 25.3641 32.7081 25.4755 32.8678 25.5553C32.7634 26.3006 32.74 27.0583 32.5569 27.7932C30.7846 27.5699 29.1144 27.0719 27.6733 25.9524C27.3716 25.7173 27.0631 25.4897 26.7657 25.2491C26.5543 25.079 26.3472 24.9435 26.0829 25.1384C26.0817 24.7759 26.1763 24.3775 26.0626 24.0559C25.7302 23.1188 26.2218 22.684 26.9506 22.34C27.3433 22.1545 27.6327 21.7895 28.0721 21.6862Z" fill="#FE8851"/>
<path d="M41.6782 47.4556C42.0211 47.9282 41.5492 48.0006 41.3218 48.1923C39.0395 48.6043 36.9169 48.2573 35.0224 46.8358C34.9627 46.7907 34.9203 46.7226 34.8706 46.6651C34.9849 46.2903 35.2165 46.2433 35.5146 46.4474C37.3416 47.7037 39.3252 47.9925 41.4496 47.442C41.5203 47.4235 41.602 47.4501 41.6782 47.4556Z" fill="#D05B3D"/>
<path d="M33.0153 44.6388C33.0583 45.8536 32.08 46.641 30.9106 46.3336C30.1904 46.1443 29.9003 45.4608 30.3157 44.8385C30.4952 44.5689 30.7803 44.3703 31.0169 44.139C31.7851 43.8891 32.4844 43.9219 33.0153 44.6388Z" fill="#482A2D"/>
<path d="M46.7972 47.7562C46.6589 48.2783 46.4518 48.7218 45.8109 48.7404C45.0341 48.762 44.5444 48.3247 44.1572 47.7148C44.1031 47.6294 44.0656 47.5336 44.0202 47.4426C44.0792 47.1358 44.1394 46.8284 44.1984 46.5216C45.2861 45.7806 46.3363 46.2798 46.7972 47.7562Z" fill="#43292C"/>
<path d="M29.1887 32.462C30.0048 32.4688 30.8221 32.4762 31.629 32.6241C33.0792 32.5603 33.6182 33.5426 33.99 34.7178C34.2087 35.4094 34.4496 36.0923 34.7741 36.7424C34.9013 36.9972 35.0021 37.2656 35.0346 37.552C35.0555 37.7351 35.0598 37.9337 34.8933 38.0487C34.6819 38.1941 34.5707 37.9813 34.4465 37.8712C34.1577 37.6151 33.9224 37.3009 33.5899 37.0931C33.6944 37.1667 33.8185 37.2248 33.891 37.3294C34.1258 37.6727 34.7944 37.8786 34.5701 38.3227C34.3845 38.6926 33.7718 38.4298 33.3509 38.4625C33.1751 38.4761 32.9729 38.4378 32.8297 38.3469C31.3463 37.4061 29.5734 37.1289 28.0783 36.2203C26.9807 35.4539 25.9864 34.5824 25.2896 33.4115C25.1986 32.7496 25.3633 32.5158 26.0676 32.3983C27.1098 32.2251 28.1489 32.4032 29.1887 32.462Z" fill="#FDFBF4"/>
<path d="M18.3166 34.6189C18.4248 34.4772 18.5329 34.335 18.6405 34.1933C19.856 32.248 22.3583 31.8509 24.09 33.3354C25.4629 34.5112 26.6348 35.8918 27.9068 37.1704C28.2737 37.7023 28.9263 37.8978 29.3239 38.3933C29.4333 38.9271 29.1082 39.0081 28.7075 38.9747C28.2178 38.9339 27.7311 38.8194 27.2991 38.5986C25.34 37.5941 23.3385 36.6372 22.3362 35.0407C23.0834 36.0187 24.2787 37.1252 25.8217 37.8081C25.9858 37.8811 26.1462 37.964 26.2998 38.0574C26.4092 38.1236 26.561 38.1885 26.534 38.3289C26.4996 38.5077 26.333 38.5411 26.1677 38.5232C25.713 38.4737 25.2791 38.3104 24.8244 38.2634C22.601 37.7803 20.5387 36.9588 18.8426 35.3673C18.6183 35.1552 18.3738 34.9535 18.3166 34.6189Z" fill="#FDFBF4"/>
<path d="M16.32 35.8999C16.7631 35.3259 17.3512 34.9714 18.0278 34.7537C18.4094 35.7514 19.3011 36.2413 20.0772 36.8444C20.2732 36.9966 20.5639 37.0331 20.6456 37.3232C20.2591 37.552 19.9605 37.2774 19.6575 37.1234C19.156 36.8698 18.6675 36.5933 18.1206 36.4467C17.0888 36.1696 16.7416 36.4566 16.843 37.5069C16.8534 37.6114 16.8522 37.7104 16.7723 37.7914C16.58 38.1774 16.945 38.2955 17.13 38.4409C17.5331 38.7588 17.9528 39.0891 18.4186 39.2846C20.685 40.2359 22.8862 41.379 25.3731 41.7025C25.7394 41.7507 26.2955 41.7588 26.3441 42.2852C26.392 42.8029 26.1333 43.2266 25.5827 43.4054C25.2177 43.5241 24.8662 43.6825 24.5079 43.8229C23.3975 43.9565 22.3055 44.2324 21.1704 44.1829C20.5842 44.1575 20.0029 44.1216 19.4258 44.0171C16.4079 42.2802 15.2569 39.2722 16.32 35.8999Z" fill="#FDC79D"/>
<path d="M16.7717 37.7914C16.5677 37.3819 16.2746 36.9669 16.6224 36.5123C17.0046 36.0131 17.5147 36.0527 18.0776 36.177C19.0178 36.3842 19.7497 37.0343 20.6456 37.3232C20.857 37.4203 21.0697 37.5186 21.2811 37.6164C21.4543 37.7228 21.6657 37.7518 21.8243 37.8885C22.0043 38.0438 22.4364 38.0518 22.3264 38.3599C22.2127 38.6809 21.8526 38.5516 21.729 38.5157C22.4044 38.6432 23.2217 38.8411 24.0267 39.0891C24.3205 39.1788 24.6173 39.2679 24.8766 39.4417C25.0985 39.5914 25.2902 39.7776 25.1962 40.0788C25.1169 40.333 24.9049 40.4172 24.6523 40.4221C24.1963 40.432 23.7441 40.5972 23.285 40.4462C21.3136 40.2532 19.4781 39.6415 17.7715 38.6314C17.3911 38.4081 17.047 38.1421 16.7717 37.7914Z" fill="#FDFBF4"/>
<path d="M28.0789 36.2209C28.847 36.5067 29.598 36.9551 30.3876 37.038C31.3672 37.1413 32.0229 37.7803 32.8383 38.1397C32.909 38.1712 32.9754 38.2114 33.0473 38.2411C33.5125 38.4304 34.1878 38.5794 34.4023 38.2473C34.6217 37.9083 33.9715 37.6052 33.6661 37.3219C33.4602 37.1308 33.2175 36.9805 33.0178 36.5834C33.7995 36.9285 34.1964 37.5656 34.8239 38.0512C34.9326 37.5527 34.7452 37.1846 34.575 36.8444C34.2622 36.216 34.0022 35.5702 33.8099 34.8972C33.4824 33.7461 32.9576 32.7948 31.6296 32.624C32.4979 32.5696 33.3263 32.7539 34.1325 33.0626C34.4361 33.4269 34.5436 33.8877 34.7139 34.3127C35.0205 35.0741 35.2958 35.8442 35.7463 36.5401C36.0572 37.0195 36.2385 37.552 36.2213 38.1427C36.2096 38.5399 36.0701 38.7316 35.6547 38.5794C34.6254 38.5726 33.5961 38.5652 32.5667 38.5578C31.562 37.8656 30.3987 37.5019 29.3202 36.9644C28.8882 36.7492 28.388 36.6452 28.0789 36.2209Z" fill="#FDC79E"/>
<path d="M27.9074 37.1698C27.1301 36.7368 26.6083 36.0125 25.9692 35.4242C25.2687 34.7797 24.5872 34.1135 23.8958 33.4579C22.4781 32.1144 20.7919 32.5189 19.2292 33.704C19.0264 33.8574 18.8371 34.03 18.6411 34.1933C18.7394 33.3267 19.3287 32.8931 20.06 32.6321C21.3026 32.188 22.5894 31.9913 23.91 32.0401C24.9522 33.7405 26.1302 35.3271 27.6444 36.6378C27.8005 36.7727 27.9357 36.9341 27.9074 37.1698Z" fill="#FCC69E"/>
<path d="M23.2844 40.4468C23.7656 40.3831 24.2473 40.3225 24.7279 40.2563C24.8864 40.2341 25.045 40.1704 25.0819 40.0058C25.1335 39.7801 24.9485 39.678 24.7801 39.6217C24.1484 39.4133 23.5105 39.224 22.8757 39.0248C22.2299 38.8213 21.5846 38.6141 20.803 38.3654C21.3892 38.1192 21.7671 38.5157 22.2422 38.3425C21.9017 38.0858 21.5908 37.8514 21.2804 37.617C23.2887 38.3821 25.6122 38.4935 27.1092 40.539C25.7959 40.5675 24.5405 40.7264 23.2844 40.4468Z" fill="#FDC59C"/>
<path d="M24.8256 38.2627C25.3326 38.3054 25.8402 38.3487 26.3465 38.3914C24.4102 37.3986 22.7258 36.1455 21.7088 34.1376C22.3141 34.7803 22.8874 35.4595 23.5333 36.0589C24.9977 37.4184 26.7153 38.3079 28.6657 38.7396C29.0043 38.8145 29.2901 38.872 29.3251 38.3945C29.4517 39.0174 29.0308 39.4615 28.399 39.2945C27.2001 38.9784 26.0153 38.6085 24.8256 38.2627Z" fill="#F9CBA9"/>
<path d="M29.1887 32.462C28.1489 32.6005 27.0895 32.3216 26.0553 32.621C25.6368 32.7422 25.2582 32.8647 25.2896 33.4115C24.9338 32.9525 24.5786 32.4942 24.2228 32.0358C25.8949 31.9801 27.5412 32.2201 29.1887 32.462Z" fill="#F9C19E"/>
<path d="M64.1162 51.3581C64.0523 51.4533 63.989 51.5498 63.9257 51.6451C59.3635 52.0422 55.7397 50.0498 52.3973 47.0177C53.4918 46.9589 54.4332 46.8284 55.4478 47.2527C57.2557 48.0068 59.2068 48.3457 61.1548 48.3519C63.2129 48.3569 64.3092 48.7824 64.1162 51.3581Z" fill="#FDC69C"/>
<path d="M54.1843 46.2105C54.027 45.7911 53.5366 45.827 53.2601 45.5066C53.7136 45.2697 54.1352 45.5202 54.5592 45.5616C56.1655 45.7181 57.7701 45.8901 59.3776 46.0336C60.0309 46.093 60.4328 46.5488 60.8482 46.9509C61.1505 47.2435 60.8046 47.4012 60.5753 47.4952C60.0542 47.7074 59.5061 47.6344 58.9788 47.5459C58.5185 47.4686 58.0632 47.4346 57.6005 47.4488C56.396 47.2224 55.2782 46.7511 54.1843 46.2105Z" fill="#FDFBF4"/>
<path d="M35.8249 33.5599C37.2266 34.0696 38.6296 34.5725 40.0276 35.0933C40.384 35.2257 40.7196 35.4131 41.0643 35.5745C41.9056 35.8424 42.1305 36.5234 42.1914 37.3046C42.2467 38.0129 42.0457 38.6766 41.7913 39.3242C41.6924 39.5759 41.5418 39.7825 41.2161 39.6829C39.8838 39.3625 38.5515 39.0415 37.2193 38.7199C36.7037 38.2714 36.2268 37.7951 36.0547 37.0955C35.8409 36.3279 35.3886 35.6556 35.2067 34.8737C35.1293 34.5409 35.0684 34.2131 35.1889 33.8902C35.2958 33.6057 35.474 33.3972 35.8249 33.5599Z" fill="#FDFBF4"/>
<path d="M46.4561 41.52C45.2203 41.0543 43.9839 40.5879 42.7475 40.1221C42.2909 39.3056 42.568 38.525 43.0148 37.8638C43.4468 37.2248 44.1775 37.1042 44.8934 37.3733C45.8035 37.7147 46.7781 37.5941 47.7011 37.8415C48.3759 38.0228 48.9154 38.3518 49.0672 39.0551C49.2227 39.777 48.7188 40.2118 48.1995 40.5724C47.7564 40.8804 47.3287 41.2207 46.8273 41.4359C46.7093 41.4872 46.5846 41.5138 46.4561 41.52Z" fill="#FDFBF3"/>
<path d="M48.2093 42.4547C47.7829 42.2351 47.3558 42.0155 46.9287 41.7953C46.8924 41.512 47.0737 41.3549 47.2876 41.2751C48.1387 40.9578 48.8915 40.4035 49.7967 40.2167C50.4892 40.1666 51.1763 40.1134 51.8449 40.3899C52.6407 40.7178 53.2478 41.6147 52.2259 42.3347C50.8948 42.6316 49.5625 42.9074 48.2093 42.4547Z" fill="#FDFAF3"/>
<path d="M54.797 41.6722C56.0519 42.7472 57.4093 43.6812 58.7588 44.6258C58.0626 44.5874 57.3522 44.7662 56.6688 44.499C56.0801 43.4858 54.652 42.9971 53.6128 43.4146C53.3412 43.5241 53.4924 43.7047 53.4389 43.8489C52.3604 43.6713 51.2801 43.5037 50.2041 43.3107C49.9749 43.2693 49.753 43.2334 49.5226 43.2687C49.3315 43.1481 49.141 43.0274 48.9498 42.9056C48.9621 42.5957 49.2024 42.6118 49.3978 42.6161C51.0921 42.6538 52.7255 42.3786 54.2827 41.6846C54.4424 41.6147 54.6231 41.5491 54.797 41.6722Z" fill="#FDC59B"/>
<path d="M46.619 41.3505C47.2169 40.9083 47.9119 40.6058 48.4429 40.0658C49.1133 39.3829 49.0629 38.8133 48.2487 38.3104C48.0145 38.1669 47.73 38.0704 47.4578 38.032C46.4217 37.8842 45.3783 37.8384 44.3618 37.5075C43.7633 37.3127 43.1039 37.8638 42.9257 38.5077C42.7788 39.0372 42.7327 39.5759 42.7475 40.1221C42.5263 40.1376 42.3333 40.0516 42.1459 39.9471C42.0574 39.8444 41.9972 39.7139 42.0457 39.5939C42.4697 38.5318 42.7334 37.4104 43.2299 36.3762C44.8387 36.7993 46.4469 37.2254 48.0569 37.6436C48.6518 37.7976 49.1526 38.0784 49.4667 38.6326C49.6768 39.0038 50.0265 39.2271 50.3399 39.4887C50.4259 39.6656 50.3399 39.8017 50.2397 39.9353C49.2153 40.5402 48.1086 40.9689 47.0264 41.4526C46.874 41.5194 46.729 41.4872 46.619 41.3505Z" fill="#FCC69E"/>
<path d="M41.2167 39.6829C42.2841 38.7056 42.2067 36.6205 41.0643 35.5745C41.7329 35.6556 42.3007 36.0217 42.922 36.2364C43.1045 36.4881 43.0683 36.7547 43.0087 37.0417C42.8286 37.8984 42.4445 38.6778 42.1305 39.4844C42.0549 39.6792 41.9437 39.8555 41.685 39.811C41.5234 39.793 41.3433 39.8382 41.2167 39.6829Z" fill="#FCC49D"/>
<path d="M36.2612 37.158C36.4622 37.7531 37.0662 38.0964 37.2193 38.7199C36.6945 38.7069 36.1629 38.7644 35.6528 38.5794C35.8409 38.5331 36.0117 38.5547 36.008 38.2232C36.0007 37.5162 35.7131 36.9409 35.3892 36.3483C34.8239 35.3135 34.3113 34.2508 34.1307 33.0626C34.1835 33.0552 34.2308 33.0688 34.2708 33.104C34.7286 33.349 34.8318 33.837 34.9855 34.2589C35.3505 35.2547 35.8046 36.2061 36.2612 37.158Z" fill="#F88769"/>
<path d="M54.797 41.6722C53.1728 42.5382 51.4313 42.8413 49.6111 42.7813C49.3868 42.7738 49.1453 42.7281 48.9511 42.9062C48.704 42.7559 48.4564 42.6056 48.2093 42.4547C49.5429 42.4441 50.8801 42.4881 52.1853 42.1318C52.9534 41.8411 53.6792 41.387 54.5537 41.5027C54.6348 41.559 54.7153 41.6153 54.797 41.6722Z" fill="#F5886E"/>
<path d="M46.619 41.3505C47.9132 41.0666 49.0273 40.364 50.1906 39.7763C50.5611 39.9143 50.3079 40.0794 50.1961 40.2124C50.0781 40.3553 49.86 40.3064 49.7198 40.4233C48.7852 40.8724 47.7847 41.1829 46.9293 41.7953C46.7714 41.7037 46.6134 41.611 46.4561 41.5194C46.5102 41.4637 46.5643 41.4075 46.619 41.3505Z" fill="#F59379"/>
<path d="M41.6856 39.811C42.4415 38.7403 42.8729 37.5557 42.922 36.2364C43.0246 36.2828 43.1273 36.3298 43.2299 36.3756C43.1555 37.3603 42.8169 38.264 42.4083 39.1491C42.2921 39.4015 42.2319 39.6798 42.1459 39.9464C41.9757 39.96 41.8159 39.9372 41.6856 39.811Z" fill="#F39275"/>
<path d="M53.442 44.3023C53.4862 44.3165 53.5317 44.3264 53.579 44.3313C54.2058 44.5818 54.8339 44.833 55.4613 45.0841C54.3595 45.3142 53.434 44.8447 52.3463 44.4878C52.7912 44.2274 53.1286 44.3641 53.442 44.3023Z" fill="#FCF4E5"/>
<path d="M15.7123 35.4304C16.1615 34.0183 17.2418 33.2946 18.5341 32.8034C18.2257 33.5358 17.7752 34.1018 17.0101 34.4296C16.5499 34.6269 16.1523 34.9857 15.877 35.4391C15.8223 35.4366 15.767 35.4335 15.7123 35.4304Z" fill="#E2484F"/>
<path d="M53.4389 43.8489C53.2668 43.7493 53.0948 43.6497 52.9147 43.5452C54.0891 42.7033 56.1115 43.0182 56.8575 44.1365C57.0308 44.3957 56.8532 44.4427 56.6695 44.499C55.5725 44.3833 54.5014 44.1377 53.4389 43.8489Z" fill="#FCFAF2"/>
<path d="M45.7119 26.3854C45.1558 24.3231 45.9719 22.7532 47.4596 21.424C48.6076 20.6854 49.844 20.5128 51.1339 20.9229C53.4475 21.6584 55.2167 24.3516 54.8794 26.5728C54.6372 28.1662 53.5219 29.1558 51.926 29.2053C51.1431 29.2294 50.3958 29.0705 49.6572 28.8224C49.1717 28.6591 48.6715 28.5447 48.1774 28.408C47.1044 28.0455 46.249 27.4134 45.7119 26.3854Z" fill="#FDFBF4"/>
<path d="M25.933 31.181C26.7915 30.9373 27.6715 31.0437 28.5324 31.0919C32.3719 31.3084 36.1125 32.0135 39.6761 33.5308C39.7665 33.5692 39.8789 33.5562 39.9809 33.5673C42.6172 34.8508 45.3236 35.9302 48.2087 36.5129C49.2848 36.7294 50.2551 37.1883 50.9993 38.0469C51.1332 38.2015 51.2856 38.3302 51.4927 38.4025C53.0069 38.9326 54.2452 39.8908 55.3286 41.0462C55.6236 41.3604 56.1858 41.431 56.2184 41.9907C55.6936 41.5745 55.1534 41.1761 54.6471 40.7382C53.67 39.8939 52.5866 39.2778 51.3047 39.065C50.7141 38.9667 50.2367 38.6865 49.8858 38.2071C49.4329 37.5891 48.8331 37.2403 48.092 37.0974C45.1644 36.5351 42.4458 35.3593 39.7241 34.1915C36.5328 32.822 33.2452 31.8676 29.7535 31.6826C28.4746 31.6146 27.2063 31.3536 25.933 31.181Z" fill="#FC9769"/>
<path d="M49.7198 40.4233C49.844 40.1833 50.3092 40.1963 50.1906 39.7763C50.2403 39.6798 50.2895 39.584 50.3393 39.4881C51.9579 39.7034 53.4666 40.153 54.5531 41.5021C53.7843 41.7922 53.0456 42.1949 52.1847 42.1312C52.7537 41.4415 52.6413 41.0103 51.8154 40.6417C51.1375 40.3392 50.4253 40.4308 49.7198 40.4233Z" fill="#FCC49C"/>
<path d="M36.2612 37.158C35.3247 35.9432 34.881 34.4822 34.272 33.1034C34.8171 33.1597 35.3302 33.3267 35.8249 33.5593C35.1459 33.7263 35.297 34.2675 35.4027 34.6882C35.5471 35.2597 35.8083 35.8015 36.0265 36.3533C36.1309 36.6156 36.3147 36.8512 36.2612 37.158Z" fill="#FCC6A0"/>
<path d="M61.3036 41.0654C61.1929 40.4518 61.4486 39.8617 61.7976 39.3025C61.9334 39.0854 62.0834 38.8225 62.3894 38.8955C62.7637 38.984 62.701 39.3267 62.6979 39.6013C62.6899 40.4345 62.3753 41.165 61.9273 41.8466C61.8148 42.018 61.6975 42.2672 61.4799 42.2196C61.2212 42.1639 61.3269 41.8763 61.3072 41.6839C61.2894 41.5033 61.3036 41.3209 61.3036 41.0654Z" fill="#FDFAF3"/>
<path d="M32.5575 27.7926C32.2736 26.9915 32.3854 26.2468 32.8685 25.5546C34.0772 24.5081 35.3222 24.6955 36.5838 25.4458C37.2469 26.1256 37.631 26.861 37.0423 27.7901C36.2852 28.5509 35.3745 28.8701 34.315 28.7451C33.6077 28.661 32.9588 28.455 32.5575 27.7926Z" fill="#FDFDFC"/>
<path d="M40.4277 22.6388C40.2753 22.8398 40.1235 23.0396 39.9711 23.24C39.8519 23.2839 39.7357 23.3384 39.6128 23.3681C38.97 23.5252 38.4274 23.2178 38.3205 22.6425C38.2228 22.1149 38.6542 21.5143 39.2177 21.393C39.8384 21.2594 40.2986 21.5879 40.4123 22.2547C40.4344 22.3796 40.4234 22.5108 40.4277 22.6388Z" fill="#FDFBF7"/>
<path d="M20.1153 41.7192C19.9094 41.8918 19.7454 41.7928 19.5764 41.7514C19.4332 41.7167 19.2845 41.7056 18.9133 41.6512C20.0465 42.2301 21.0678 42.3371 22.0523 42.5765C22.236 42.621 22.5506 42.5103 22.5758 42.7714C22.606 43.0924 22.268 43.1425 22.0344 43.2149C20.8933 43.5668 19.7945 43.2248 18.7062 42.9433C17.664 42.6736 16.5093 41.0258 16.5277 39.9427C16.5333 39.6477 16.6955 39.5264 16.9548 39.493C17.3241 39.446 17.6984 39.4757 17.9823 39.7244C18.7117 40.3646 19.4848 40.9609 20.1153 41.7192Z" fill="#FDFBF3"/>
</svg>
