<svg width="82" height="82" viewBox="0 0 82 82" fill="none" xmlns="http://www.w3.org/2000/svg">
<rect width="82" height="82" rx="10" fill="#5A4335"/>
<path d="M44.4077 22.4099C44.4077 22.4099 38.2639 25.8615 35.5669 26.7622C32.8693 27.6624 32.8693 29.4637 30.1723 30.5139C27.4748 31.5646 22.5295 33.2154 21.7802 36.5175C21.031 39.8191 16.1795 44.5458 15.7297 46.6472C15.28 48.7481 12.5829 54.6012 14.9805 57.4527C17.378 60.3042 30.6216 59.7799 39.6127 59.7799C48.6037 59.7799 53.3988 58.8792 57.1456 58.7292C60.8914 58.5791 66.4361 57.6785 67.4849 54.3769C68.5342 51.0752 67.3347 50.0245 64.0381 45.2221C60.7416 40.4192 58.1943 39.6691 57.5948 38.0183C56.9953 36.367 56.8456 32.3152 54.5978 30.0638C52.35 27.8129 49.053 20.1584 44.4077 22.4099Z" fill="#E0E0E0"/>
<path d="M31.7455 43.0273C31.7489 43.1562 31.7568 43.2836 31.7685 43.4105C31.7808 43.5369 31.797 43.6618 31.8181 43.7853C31.8388 43.9088 31.8633 44.0303 31.8928 44.1493C31.9217 44.2683 31.9551 44.3849 31.9924 44.4981C32.0298 44.6117 32.071 44.7219 32.1162 44.8291C32.1608 44.9359 32.2099 45.0392 32.262 45.1385C32.3145 45.2379 32.3705 45.3328 32.4299 45.4233C32.4888 45.5143 32.5512 45.6004 32.617 45.6816C32.6823 45.7627 32.7505 45.839 32.8217 45.9098C32.8929 45.9806 32.9666 46.0466 33.0427 46.1066C33.1188 46.1666 33.1973 46.2207 33.2774 46.2694C33.3579 46.3176 33.4399 46.3604 33.5238 46.3968C33.6073 46.4332 33.6927 46.4637 33.7787 46.4878C33.8656 46.5124 33.953 46.5301 34.0409 46.5419C34.1292 46.5532 34.2181 46.5586 34.307 46.5576C34.3963 46.5567 34.4857 46.5493 34.5751 46.5355C34.6644 46.5217 34.7533 46.5016 34.8417 46.4755C34.9305 46.4489 35.0179 46.417 35.1048 46.3781C35.1922 46.3397 35.2777 46.295 35.3621 46.2448C35.4466 46.1941 35.5296 46.1381 35.6106 46.0761C35.6921 46.0141 35.7711 45.9467 35.8482 45.8744C35.9253 45.8016 36.0004 45.7239 36.0726 45.6407C36.1453 45.5581 36.215 45.4705 36.2818 45.3781C36.3485 45.2861 36.4124 45.1897 36.4728 45.0888C36.5336 44.9885 36.5911 44.8837 36.6451 44.776C36.6991 44.6678 36.7497 44.5566 36.7963 44.442C36.843 44.3274 36.8862 44.2098 36.925 44.0903C36.9642 43.9703 36.9991 43.8483 37.0305 43.7243C37.0615 43.6003 37.0885 43.4744 37.111 43.3475C37.1336 43.2206 37.1523 43.0927 37.1665 42.9638C37.1803 42.835 37.1901 42.7061 37.1955 42.5767C37.2009 42.4473 37.2019 42.3185 37.1984 42.1896C37.195 42.0612 37.1876 41.9333 37.1754 41.8069C37.1631 41.68 37.1469 41.555 37.1258 41.4316C37.1052 41.3081 37.0801 41.1871 37.0511 41.0676C37.0222 40.9485 36.9888 40.8324 36.9515 40.7188C36.9142 40.6052 36.8729 40.495 36.8282 40.3878C36.7831 40.281 36.7345 40.1777 36.6819 40.0784C36.6294 39.9795 36.5734 39.8841 36.514 39.7935C36.4551 39.703 36.3927 39.617 36.3269 39.5358C36.2616 39.4541 36.1934 39.3784 36.1222 39.3071C36.051 39.2362 35.9773 39.1708 35.9012 39.1108C35.8251 39.0508 35.7466 38.9962 35.6665 38.948C35.586 38.8993 35.504 38.857 35.4201 38.8201C35.3366 38.7837 35.2512 38.7532 35.1647 38.7291C35.0783 38.705 34.9909 38.6868 34.903 38.6755C34.8147 38.6637 34.7258 38.6582 34.6364 38.6597C34.5476 38.6607 34.4582 38.6681 34.3688 38.6819C34.2795 38.6951 34.1906 38.7153 34.1022 38.7419C34.0134 38.7679 33.926 38.8004 33.8391 38.8388C33.7522 38.8776 33.6662 38.9219 33.5818 38.9726C33.4973 39.0227 33.4144 39.0793 33.3333 39.1408C33.2523 39.2028 33.1733 39.2702 33.0957 39.343C33.0186 39.4158 32.944 39.4935 32.8713 39.5761C32.7991 39.6593 32.7294 39.7468 32.6626 39.8388C32.5959 39.9313 32.532 40.0277 32.4712 40.128C32.4103 40.2289 32.3528 40.3332 32.2988 40.4414C32.2448 40.5496 32.1947 40.6608 32.1476 40.7754C32.1009 40.89 32.0577 41.0071 32.0189 41.1271C31.9797 41.2466 31.9443 41.3686 31.9134 41.4931C31.8825 41.617 31.8554 41.7424 31.8329 41.8694C31.8103 41.9968 31.7921 42.1247 31.7779 42.2535C31.7636 42.3819 31.7538 42.5113 31.7484 42.6407C31.743 42.77 31.742 42.8989 31.7455 43.0273Z" fill="white"/>
<path d="M32.6072 43.6766C32.6096 43.7666 32.615 43.8566 32.6234 43.9457C32.6322 44.0347 32.6435 44.1227 32.6582 44.2093C32.673 44.2964 32.6901 44.3815 32.7108 44.4651C32.7314 44.5487 32.7545 44.6309 32.781 44.7106C32.807 44.7902 32.836 44.868 32.8679 44.9432C32.8993 45.0185 32.9337 45.0908 32.9705 45.1606C33.0073 45.2305 33.0466 45.2974 33.0883 45.3613C33.1301 45.4248 33.1738 45.4853 33.2199 45.5424C33.2661 45.5994 33.3137 45.653 33.3638 45.7032C33.4139 45.7529 33.4659 45.7991 33.5194 45.8414C33.5729 45.8837 33.6279 45.9216 33.6844 45.956C33.7409 45.99 33.7983 46.02 33.8577 46.0456C33.9161 46.0711 33.9761 46.0928 34.0369 46.1095C34.0978 46.1267 34.1592 46.1395 34.2211 46.1474C34.2829 46.1558 34.3453 46.1592 34.4081 46.1587C34.471 46.1577 34.5338 46.1528 34.5967 46.143C34.6595 46.1336 34.7219 46.1194 34.7842 46.1007C34.8466 46.0825 34.908 46.0593 34.9693 46.0323C35.0302 46.0052 35.0906 45.9738 35.15 45.9383C35.2094 45.9029 35.2674 45.8636 35.3243 45.8198C35.3818 45.7765 35.4372 45.7288 35.4917 45.6776C35.5462 45.6265 35.5988 45.5719 35.6494 45.5138C35.7004 45.4553 35.7495 45.3938 35.7962 45.3289C35.8433 45.2639 35.888 45.1961 35.9307 45.1257C35.9739 45.0549 36.0142 44.9811 36.052 44.9053C36.0898 44.8291 36.1256 44.7509 36.158 44.6702C36.1909 44.59 36.2214 44.5074 36.2489 44.4233C36.2764 44.3387 36.3009 44.2531 36.3225 44.1655C36.3446 44.0785 36.3633 43.9904 36.3795 43.9009C36.3952 43.8114 36.4079 43.7218 36.4178 43.6308C36.4281 43.5403 36.4349 43.4498 36.4384 43.3588C36.4423 43.2678 36.4428 43.1773 36.4403 43.0868C36.4384 42.9963 36.433 42.9068 36.4241 42.8177C36.4158 42.7287 36.404 42.6406 36.3898 42.5536C36.375 42.467 36.3574 42.3819 36.3368 42.2978C36.3166 42.2142 36.2931 42.1325 36.267 42.0523C36.2405 41.9727 36.2115 41.8949 36.1801 41.8202C36.1482 41.7449 36.1138 41.6721 36.0775 41.6023C36.0402 41.5324 36.0014 41.466 35.9597 41.4021C35.9179 41.3381 35.8742 41.2776 35.8281 41.2205C35.7819 41.1635 35.7338 41.1099 35.6837 41.0602C35.6336 41.01 35.5821 40.9643 35.5286 40.922C35.4751 40.8797 35.4201 40.8413 35.3636 40.8073C35.3071 40.7734 35.2492 40.7434 35.1903 40.7178C35.1314 40.6917 35.0715 40.6706 35.0106 40.6534C34.9502 40.6367 34.8888 40.6239 34.8265 40.6155C34.7646 40.6076 34.7022 40.6037 34.6394 40.6047C34.5765 40.6052 34.5137 40.6106 34.4513 40.6199C34.3885 40.6298 34.3261 40.644 34.2638 40.6622C34.2014 40.6809 34.1396 40.7036 34.0787 40.7306C34.0173 40.7582 33.9574 40.7891 33.898 40.8246C33.8386 40.8605 33.7801 40.8998 33.7232 40.9431C33.6662 40.9869 33.6103 41.0341 33.5563 41.0853C33.5018 41.1364 33.4492 41.1915 33.3982 41.2496C33.3476 41.3076 33.2985 41.3696 33.2513 41.434C33.2047 41.499 33.16 41.5668 33.1168 41.6377C33.0746 41.7085 33.0338 41.7818 32.996 41.858C32.9582 41.9338 32.9229 42.012 32.89 42.0927C32.8571 42.1733 32.8266 42.256 32.7991 42.3401C32.7716 42.4242 32.7471 42.5103 32.725 42.5974C32.7034 42.6844 32.6842 42.773 32.6685 42.8625C32.6528 42.9515 32.6396 43.0415 32.6297 43.1321C32.6199 43.2226 32.6131 43.3136 32.6091 43.4046C32.6057 43.4951 32.6047 43.5861 32.6072 43.6766Z" fill="#ADADAD"/>
<path d="M33.161 43.5915C33.1644 43.7204 33.1762 43.8468 33.1973 43.9703C33.218 44.0942 33.2469 44.2128 33.2842 44.3269C33.3216 44.4405 33.3667 44.5473 33.4193 44.6471C33.4718 44.7465 33.5307 44.837 33.5965 44.9186C33.6623 44.9998 33.7335 45.0706 33.8096 45.1306C33.8862 45.1911 33.9662 45.2394 34.0502 45.2762C34.1342 45.3126 34.2206 45.3367 34.3089 45.3486C34.3973 45.3604 34.4862 45.3589 34.5756 45.3456C34.6654 45.3318 34.7538 45.3063 34.8412 45.2679C34.9281 45.2295 35.0125 45.1798 35.094 45.1179C35.1756 45.0564 35.2526 44.9841 35.3253 44.9014C35.398 44.8183 35.4652 44.7268 35.5261 44.626C35.5875 44.5256 35.6415 44.4179 35.6886 44.3033C35.7363 44.1882 35.7751 44.0691 35.8065 43.9447C35.8379 43.8202 35.861 43.6938 35.8752 43.5644C35.8895 43.4356 35.8953 43.3062 35.8919 43.1773C35.8885 43.0484 35.8767 42.922 35.8556 42.7981C35.835 42.6746 35.806 42.5556 35.7687 42.4419C35.7309 42.3278 35.6862 42.2211 35.6336 42.1217C35.5811 42.0223 35.5217 41.9318 35.4564 41.8502C35.3906 41.7685 35.3194 41.6977 35.2433 41.6377C35.1672 41.5777 35.0867 41.529 35.0027 41.4926C34.9188 41.4557 34.8323 41.4316 34.744 41.4203C34.6556 41.4084 34.5667 41.4094 34.4774 41.4232C34.3875 41.4365 34.2991 41.4621 34.2122 41.5004C34.1248 41.5388 34.0404 41.589 33.9589 41.6505C33.8774 41.712 33.8003 41.7843 33.7276 41.8674C33.6549 41.95 33.5882 42.0415 33.5268 42.1424C33.4659 42.2432 33.4114 42.3509 33.3643 42.4655C33.3171 42.5802 33.2779 42.6997 33.2464 42.8241C33.2155 42.9481 33.1924 43.075 33.1777 43.2039C33.1635 43.3332 33.1581 43.4621 33.161 43.5915Z" fill="#3F1A03"/>
<path d="M34.9197 41.8394C34.9207 41.8713 34.9247 41.9023 34.9315 41.9328C34.9379 41.9633 34.9477 41.9923 34.9605 42.0204C34.9728 42.0479 34.9875 42.0735 35.0052 42.0976C35.0229 42.1217 35.043 42.1433 35.0651 42.1625C35.0872 42.1817 35.1112 42.1984 35.1368 42.2122C35.1628 42.226 35.1903 42.2368 35.2188 42.2447C35.2472 42.2525 35.2762 42.2575 35.3066 42.2589C35.3366 42.2604 35.367 42.2589 35.3975 42.2545C35.4593 42.2452 35.5183 42.224 35.5747 42.1906C35.6307 42.1576 35.6803 42.1148 35.723 42.0627C35.7652 42.01 35.7976 41.9525 35.8197 41.8895C35.8423 41.8261 35.8526 41.7621 35.8512 41.6977C35.8502 41.6657 35.8462 41.6347 35.8399 41.6042C35.833 41.5737 35.8232 41.5447 35.8109 41.5172C35.7981 41.4891 35.7834 41.4635 35.7657 41.4394C35.748 41.4153 35.7279 41.3937 35.7058 41.3745C35.6837 41.3553 35.6597 41.3386 35.6336 41.3248C35.6081 41.3111 35.5806 41.3002 35.5521 41.2924C35.5237 41.2845 35.4942 41.2796 35.4643 41.2781C35.4343 41.2761 35.4039 41.2781 35.3734 41.2825C35.312 41.2919 35.2531 41.313 35.1967 41.3465C35.1402 41.3794 35.0906 41.4222 35.0484 41.4744C35.0057 41.527 34.9733 41.5846 34.9512 41.6475C34.9291 41.711 34.9183 41.7749 34.9197 41.8394Z" fill="white"/>
<path d="M35.6268 42.6844C35.6273 42.7189 35.6346 42.7513 35.6479 42.7813C35.6611 42.8113 35.6798 42.8364 35.7039 42.8571C35.7274 42.8782 35.7549 42.8925 35.7859 42.9014C35.8163 42.9097 35.8482 42.9112 35.8811 42.9063C35.9135 42.9018 35.9449 42.8905 35.9754 42.8733C36.0053 42.8561 36.0318 42.8335 36.0544 42.8059C36.0775 42.7784 36.0947 42.7479 36.107 42.7144C36.1192 42.681 36.1246 42.647 36.1246 42.6131C36.1237 42.5787 36.1163 42.5467 36.103 42.5167C36.0898 42.4872 36.0711 42.4616 36.0476 42.4409C36.0235 42.4203 35.9965 42.406 35.966 42.3972C35.9351 42.3888 35.9037 42.3868 35.8708 42.3922C35.8384 42.3967 35.807 42.4075 35.777 42.4252C35.7471 42.4424 35.7206 42.465 35.6975 42.4921C35.6749 42.5196 35.6572 42.5501 35.6454 42.5836C35.6332 42.617 35.6273 42.651 35.6273 42.6854L35.6268 42.6844Z" fill="white"/>
<path d="M41.7961 43.9584C41.7996 44.0873 41.8069 44.2147 41.8192 44.3416C41.8315 44.4681 41.8477 44.593 41.8683 44.7165C41.8889 44.8399 41.914 44.9614 41.9429 45.0805C41.9724 45.1995 42.0053 45.3161 42.0426 45.4297C42.0799 45.5428 42.1212 45.6535 42.1663 45.7603C42.2115 45.867 42.2601 45.9703 42.3126 46.0697C42.3647 46.169 42.4207 46.264 42.4801 46.355C42.5395 46.4455 42.6018 46.5316 42.6671 46.6127C42.7329 46.6939 42.8012 46.7701 42.8724 46.841C42.9436 46.9118 43.0172 46.9777 43.0933 47.0377C43.1694 47.0977 43.2475 47.1518 43.328 47.2005C43.408 47.2488 43.4905 47.2915 43.574 47.3279C43.658 47.3643 43.7429 47.3948 43.8293 47.4189C43.9157 47.4435 44.0031 47.4613 44.0915 47.4731C44.1799 47.4844 44.2683 47.4898 44.3576 47.4888C44.447 47.4878 44.5364 47.4804 44.6252 47.4667C44.7146 47.4529 44.8035 47.4327 44.8923 47.4067C44.9807 47.3806 45.0686 47.3481 45.1555 47.3093C45.2424 47.2709 45.3283 47.2266 45.4128 47.1759C45.4972 47.1253 45.5797 47.0692 45.6607 47.0072C45.7422 46.9457 45.8218 46.8784 45.8989 46.8055C45.9759 46.7327 46.0506 46.655 46.1232 46.5719C46.1954 46.4893 46.2651 46.4017 46.3319 46.3097C46.3987 46.2172 46.4625 46.1208 46.5234 46.0205C46.5843 45.9196 46.6412 45.8154 46.6957 45.7071C46.7497 45.5989 46.7998 45.4878 46.847 45.3731C46.8936 45.2585 46.9368 45.1415 46.9756 45.0214C47.0149 44.9014 47.0497 44.7794 47.0812 44.6555C47.1121 44.5315 47.1391 44.4061 47.1617 44.2787C47.1843 44.1518 47.2029 44.0239 47.2167 43.895C47.2309 43.7661 47.2407 43.6372 47.2461 43.5079C47.2515 43.3785 47.2525 43.2496 47.2491 43.1207C47.2457 42.9924 47.2378 42.8645 47.2255 42.738C47.2137 42.6111 47.197 42.4862 47.1764 42.3627C47.1558 42.2393 47.1308 42.1178 47.1018 41.9987C47.0723 41.8797 47.0394 41.7636 47.0021 41.65C46.9648 41.5363 46.9236 41.4262 46.8784 41.3189C46.8332 41.2122 46.7846 41.1089 46.7326 41.0095C46.68 40.9102 46.6241 40.8152 46.5646 40.7247C46.5057 40.6337 46.4434 40.5481 46.3776 40.4665C46.3118 40.3853 46.2435 40.3091 46.1723 40.2382C46.1011 40.1674 46.0275 40.102 45.9514 40.042C45.8753 39.9814 45.7972 39.9273 45.7167 39.8791C45.6362 39.8304 45.5542 39.7876 45.4707 39.7512C45.3868 39.7148 45.3018 39.6843 45.2149 39.6602C45.1285 39.6361 45.0411 39.6179 44.9532 39.6066C44.8648 39.5948 44.776 39.5894 44.6871 39.5904C44.5977 39.5919 44.5084 39.5992 44.4195 39.613C44.3301 39.6263 44.2408 39.6465 44.1524 39.6725C44.0635 39.6991 43.9761 39.7316 43.8892 39.7699C43.8023 39.8083 43.7164 39.8531 43.6319 39.9037C43.5475 39.9539 43.465 40.01 43.3835 40.072C43.3025 40.1339 43.2234 40.2013 43.1459 40.2741C43.0688 40.3469 42.9941 40.4246 42.922 40.5073C42.8493 40.5904 42.7796 40.6775 42.7128 40.77C42.646 40.8619 42.5822 40.9584 42.5213 41.0592C42.4604 41.16 42.403 41.2643 42.3495 41.3725C42.295 41.4803 42.2449 41.5919 42.1977 41.7065C42.1511 41.8207 42.1079 41.9382 42.0691 42.0582C42.0298 42.1778 41.995 42.2998 41.964 42.4237C41.9326 42.5482 41.9056 42.6736 41.883 42.8005C41.8604 42.9279 41.8418 43.0558 41.828 43.1847C41.8138 43.3131 41.804 43.4424 41.7986 43.5718C41.7932 43.7012 41.7927 43.8301 41.7961 43.9584Z" fill="white"/>
<path d="M42.6573 44.6077C42.6598 44.6978 42.6652 44.7878 42.6735 44.8768C42.6824 44.9659 42.6936 45.0539 42.7084 45.1405C42.7226 45.2275 42.7403 45.3126 42.7609 45.3963C42.7815 45.4804 42.8046 45.562 42.8311 45.6417C42.8571 45.7219 42.8861 45.7991 42.918 45.8744C42.9495 45.9496 42.9838 46.022 43.0206 46.0918C43.0575 46.1617 43.0968 46.2286 43.1385 46.2925C43.1802 46.356 43.2239 46.4165 43.2701 46.474C43.3162 46.5311 43.3643 46.5842 43.4144 46.6344C43.4645 46.6841 43.5161 46.7303 43.5696 46.7726C43.6231 46.8149 43.6781 46.8528 43.7346 46.8872C43.791 46.9211 43.849 46.9512 43.9074 46.9767C43.9663 47.0023 44.0262 47.024 44.0871 47.0407C44.148 47.0579 44.2093 47.0707 44.2712 47.0786C44.3336 47.0869 44.3959 47.0904 44.4588 47.0899C44.5211 47.0889 44.584 47.084 44.6468 47.0741C44.7097 47.0648 44.7725 47.0505 44.8344 47.0318C44.8967 47.0136 44.9586 46.9905 45.0195 46.9635C45.0809 46.9364 45.1408 46.9049 45.2002 46.8695C45.2596 46.8341 45.318 46.7947 45.375 46.7509C45.4319 46.7077 45.4879 46.6599 45.5419 46.6088C45.5964 46.5576 45.6489 46.503 45.6995 46.445C45.7506 46.3865 45.7997 46.325 45.8468 46.26C45.8935 46.1951 45.9386 46.1277 45.9813 46.0569C46.0241 45.986 46.0643 45.9123 46.1021 45.8365C46.1399 45.7603 46.1758 45.6821 46.2082 45.6014C46.2411 45.5212 46.2715 45.4386 46.299 45.3545C46.3265 45.2698 46.3511 45.1843 46.3727 45.0972C46.3948 45.0096 46.4139 44.9216 46.4296 44.8321C46.4453 44.743 46.4586 44.653 46.4684 44.562C46.4782 44.4715 46.4851 44.381 46.489 44.29C46.4925 44.199 46.4935 44.1085 46.491 44.018C46.4885 43.9275 46.4826 43.8379 46.4743 43.7489C46.466 43.6599 46.4542 43.5718 46.4399 43.4847C46.4252 43.3982 46.4075 43.3131 46.3874 43.229C46.3668 43.1453 46.3437 43.0637 46.3172 42.984C46.2912 42.9038 46.2622 42.8266 46.2303 42.7513C46.1989 42.6761 46.1645 42.6033 46.1277 42.5334C46.0908 42.4636 46.0516 42.3972 46.0098 42.3332C45.9681 42.2693 45.9244 42.2088 45.8782 42.1517C45.8321 42.0946 45.784 42.041 45.7339 41.9913C45.6838 41.9412 45.6322 41.8954 45.5787 41.8531C45.5252 41.8108 45.4702 41.7724 45.4138 41.7385C45.3573 41.7046 45.2994 41.6746 45.2404 41.649C45.1815 41.6229 45.1216 41.6018 45.0612 41.5845C45.0003 41.5678 44.939 41.555 44.8766 41.5467C44.8147 41.5388 44.7524 41.5349 44.6895 41.5358C44.6272 41.5363 44.5643 41.5417 44.5015 41.5511C44.4386 41.5609 44.3763 41.5752 44.3139 41.5934C44.2516 41.6121 44.1902 41.6347 44.1288 41.6618C44.0679 41.6888 44.0075 41.7203 43.9481 41.7557C43.8887 41.7911 43.8303 41.831 43.7733 41.8743C43.7164 41.9181 43.6609 41.9653 43.6064 42.0164C43.5519 42.0676 43.4994 42.1222 43.4488 42.1807C43.3977 42.2388 43.3491 42.3003 43.302 42.3652C43.2549 42.4301 43.2102 42.498 43.1675 42.5688C43.1247 42.6397 43.0845 42.713 43.0462 42.7887C43.0084 42.865 42.9725 42.9432 42.9396 43.0238C42.9067 43.1045 42.8768 43.1867 42.8493 43.2713C42.8218 43.3554 42.7972 43.441 42.7756 43.5285C42.7535 43.6156 42.7349 43.7041 42.7187 43.7932C42.703 43.8827 42.6897 43.9727 42.6799 44.0632C42.6701 44.1537 42.6632 44.2447 42.6598 44.3357C42.6558 44.4262 42.6549 44.5172 42.6573 44.6077Z" fill="#ADADAD"/>
<path d="M43.2111 44.5227C43.2146 44.6515 43.2269 44.778 43.2475 44.9014C43.2681 45.0254 43.2976 45.1439 43.3349 45.258C43.3722 45.3717 43.4174 45.4784 43.4699 45.5783C43.5219 45.6776 43.5814 45.7681 43.6467 45.8498C43.7125 45.931 43.7836 46.0018 43.8598 46.0623C43.9363 46.1223 44.0164 46.1705 44.1003 46.2074C44.1843 46.2438 44.2707 46.2679 44.3591 46.2797C44.4475 46.2915 44.5363 46.2905 44.6262 46.2768C44.7156 46.263 44.8039 46.2374 44.8913 46.199C44.9782 46.1607 45.0627 46.111 45.1442 46.049C45.2257 45.9875 45.3033 45.9152 45.3759 45.8326C45.4486 45.7499 45.5154 45.658 45.5768 45.5571C45.6376 45.4568 45.6916 45.349 45.7393 45.2344C45.7859 45.1198 45.8252 45.0003 45.8566 44.8758C45.888 44.7514 45.9111 44.625 45.9254 44.4956C45.9401 44.3667 45.9455 44.2374 45.9425 44.1085C45.9391 43.9796 45.9268 43.8532 45.9062 43.7292C45.8856 43.6058 45.8566 43.4867 45.8193 43.3731C45.782 43.259 45.7368 43.1522 45.6843 43.0529C45.6317 42.953 45.5723 42.8625 45.507 42.7813C45.4412 42.6997 45.3705 42.6289 45.2939 42.5688C45.2178 42.5088 45.1378 42.4601 45.0534 42.4237C44.9694 42.3868 44.883 42.3627 44.7946 42.3509C44.7062 42.3396 44.6174 42.3406 44.5275 42.3544C44.4381 42.3677 44.3498 42.3937 44.2624 42.4316C44.175 42.47 44.0905 42.5201 44.0095 42.5816C43.9275 42.6436 43.8504 42.7159 43.7778 42.7986C43.7051 42.8812 43.6383 42.9732 43.5769 43.0735C43.5161 43.1744 43.462 43.2821 43.4149 43.3967C43.3673 43.5113 43.328 43.6308 43.2966 43.7553C43.2652 43.8797 43.2426 44.0062 43.2283 44.1355C43.2136 44.2644 43.2082 44.3938 43.2111 44.5227Z" fill="#3F1A03"/>
<path d="M44.9704 42.7705C44.9714 42.8025 44.9753 42.8335 44.9822 42.864C44.989 42.8945 44.9984 42.9235 45.0111 42.9515C45.0234 42.9791 45.0386 43.0047 45.0563 43.0288C45.074 43.0529 45.0936 43.0745 45.1157 43.0937C45.1383 43.1129 45.1619 43.1296 45.1879 43.1434C45.2139 43.1572 45.2409 43.168 45.2694 43.1758C45.2979 43.1837 45.3273 43.1886 45.3573 43.1901C45.3872 43.1916 45.4177 43.1901 45.4481 43.1857C45.5095 43.1763 45.5684 43.1552 45.6249 43.1217C45.6813 43.0883 45.7309 43.046 45.7732 42.9938C45.8159 42.9412 45.8483 42.8837 45.8704 42.8207C45.8925 42.7572 45.9028 42.6933 45.9013 42.6289C45.9003 42.5969 45.8969 42.5659 45.89 42.5354C45.8831 42.5049 45.8733 42.4759 45.861 42.4483C45.8488 42.4203 45.8335 42.3947 45.8159 42.3706C45.7982 42.3465 45.7781 42.3249 45.756 42.3057C45.7339 42.2865 45.7098 42.2698 45.6843 42.256C45.6583 42.2422 45.6313 42.2314 45.6028 42.2235C45.5743 42.2157 45.5448 42.2107 45.5149 42.2093C45.4849 42.2078 45.4545 42.2093 45.4241 42.2137C45.3622 42.223 45.3033 42.2442 45.2473 42.2776C45.1908 42.3106 45.1412 42.3534 45.0985 42.406C45.0563 42.4582 45.0239 42.5157 45.0018 42.5787C44.9792 42.6421 44.9689 42.7061 44.9704 42.7705Z" fill="white"/>
<path d="M45.6769 43.6156C45.6779 43.65 45.6848 43.6825 45.6985 43.7125C45.7113 43.742 45.7299 43.7676 45.754 43.7882C45.7776 43.8094 45.8051 43.8237 45.836 43.8325C45.8669 43.8409 45.8984 43.8428 45.9313 43.8374C45.9641 43.833 45.9956 43.8222 46.0255 43.8045C46.056 43.7873 46.082 43.7646 46.1046 43.7371C46.1276 43.7095 46.1453 43.6795 46.1571 43.6456C46.1694 43.6121 46.1753 43.5782 46.1748 43.5443C46.1738 43.5098 46.1664 43.4779 46.1532 43.4479C46.1399 43.4183 46.1213 43.3928 46.0977 43.3721C46.0736 43.3514 46.0466 43.3367 46.0162 43.3283C45.9858 43.32 45.9538 43.318 45.9214 43.3234C45.8885 43.3278 45.8571 43.3387 45.8272 43.3564C45.7972 43.3736 45.7707 43.3962 45.7476 43.4238C45.725 43.4508 45.7074 43.4813 45.6951 43.5148C45.6833 43.5482 45.6774 43.5821 45.6779 43.6166L45.6769 43.6156Z" fill="white"/>
<path d="M38.6022 48.8145C38.6022 48.8145 36.6971 48.052 35.4898 49.904C34.7729 51.0039 35.5232 54.1471 39.6888 53.7925C43.6236 53.4575 44.4573 49.7633 42.7879 48.9192C40.5672 47.7967 40.3069 49.5021 38.6022 48.8145Z" fill="black"/>
<path d="M41.7887 52.5268C41.7902 52.5888 41.777 52.6513 41.7495 52.7133C41.7225 52.7752 41.6812 52.8362 41.6267 52.8962C41.5717 52.9562 41.5045 53.0143 41.4249 53.0694C41.3449 53.125 41.254 53.1771 41.1514 53.2258C41.0498 53.275 40.9383 53.3193 40.818 53.3596C40.6978 53.3999 40.5706 53.4354 40.4365 53.4659C40.303 53.4959 40.1645 53.521 40.0221 53.5396C39.8798 53.5588 39.7359 53.5721 39.5906 53.579C39.4452 53.5864 39.3014 53.5874 39.1585 53.5819C39.0156 53.577 38.8771 53.5657 38.7421 53.549C38.6076 53.5318 38.4794 53.5087 38.3577 53.4801C38.2364 53.4516 38.124 53.4181 38.0204 53.3793C37.9168 53.3404 37.8245 53.2976 37.7425 53.2499C37.661 53.2022 37.5922 53.151 37.5353 53.0969C37.4788 53.0423 37.4356 52.9853 37.4066 52.9258C37.3772 52.8667 37.3619 52.8057 37.361 52.7437C37.36 52.6818 37.3732 52.6198 37.4007 52.5578C37.4277 52.4953 37.469 52.4343 37.5235 52.3743C37.578 52.3143 37.6452 52.2568 37.7253 52.2012C37.8053 52.1456 37.8961 52.0935 37.9983 52.0448C38.1004 51.9961 38.2114 51.9513 38.3317 51.911C38.4519 51.8706 38.5791 51.8352 38.7132 51.8052C38.8467 51.7747 38.9852 51.7501 39.1276 51.7309C39.2699 51.7117 39.4138 51.699 39.5591 51.6916C39.7045 51.6847 39.8483 51.6837 39.9912 51.6886C40.1341 51.6935 40.2726 51.7049 40.4076 51.7221C40.5421 51.7393 40.6703 51.7619 40.7915 51.7905C40.9128 51.819 41.0257 51.8524 41.1293 51.8913C41.2324 51.9302 41.3252 51.9734 41.4067 52.0212C41.4883 52.0684 41.5575 52.1195 41.6139 52.1741C41.6709 52.2287 41.7136 52.2858 41.7431 52.3448C41.7725 52.4043 41.7878 52.4648 41.7887 52.5268Z" fill="#F21616"/>
<path d="M17.4246 46.4627C17.3986 46.4735 17.38 46.4917 17.3692 46.5183C17.3584 46.5439 17.3584 46.5694 17.3687 46.5955C17.379 46.6211 17.3972 46.6398 17.4227 46.6506C17.4227 46.6506 18.4533 47.1022 19.5389 47.6393C20.0819 47.9074 20.6392 48.1971 21.0845 48.4618C21.3074 48.5936 21.5028 48.719 21.6531 48.8312C21.8038 48.9433 21.9104 49.0457 21.9516 49.1101C22.0788 49.3108 22.342 49.5272 22.6719 49.7604C23.0018 49.994 23.3961 50.238 23.7776 50.4604C24.5342 50.9016 25.2256 51.2518 25.2364 51.2572C25.2364 51.2572 26.049 51.8072 26.9224 52.4988C27.3594 52.8451 27.8102 53.2258 28.1818 53.5883C28.554 53.9509 28.8461 54.2991 28.9596 54.5554C29.2316 55.1683 30 55.6676 30.764 56.0562C31.528 56.4443 32.2939 56.7129 32.5723 56.8073C32.5988 56.8162 32.6243 56.8147 32.6499 56.8024C32.6749 56.7901 32.6916 56.7704 32.7009 56.7439C32.7098 56.7178 32.7083 56.6917 32.696 56.6666C32.6838 56.6416 32.6646 56.6248 32.6381 56.6155C32.3626 56.522 31.6041 56.2564 30.8553 55.8762C30.1065 55.4954 29.3749 54.9907 29.1457 54.4743C29.0092 54.1658 28.7043 53.8141 28.3247 53.4442C27.9447 53.0738 27.4876 52.6892 27.0471 52.3409C26.1668 51.6439 25.3513 51.0895 25.3513 51.0895C25.3478 51.087 25.3434 51.0851 25.3395 51.0831C25.3395 51.0831 24.6369 50.7275 23.8802 50.2862C23.5022 50.0659 23.1108 49.8224 22.7888 49.5946C22.4667 49.3664 22.2133 49.1455 22.1215 49.0014C22.0528 48.8932 21.9334 48.7879 21.7739 48.6689C21.6148 48.5503 21.4145 48.4219 21.1876 48.2876C20.7349 48.0186 20.1757 47.7269 19.6302 47.4573C18.5392 46.9172 17.5037 46.4647 17.5037 46.4647C17.4777 46.4529 17.4512 46.4519 17.4246 46.4627Z" fill="#969696"/>
<path d="M34.0531 30.7736C34.0291 30.7598 34.0036 30.7559 33.9765 30.7628C33.9495 30.7702 33.9294 30.7854 33.9152 30.8095C33.9009 30.8336 33.897 30.8587 33.9044 30.8858C33.9112 30.9128 33.9265 30.9335 33.9505 30.9477C33.9505 30.9477 34.4096 31.2193 34.8662 31.5606C35.095 31.7313 35.3219 31.9202 35.4883 32.0963C35.6548 32.2729 35.749 32.4416 35.749 32.5317C35.749 32.7014 35.8168 32.8509 35.9165 32.9763C36.0166 33.1018 36.1487 33.207 36.2916 33.3064C36.5783 33.5061 36.9127 33.6847 37.1307 33.8918C37.3585 34.1072 37.7533 34.5386 38.1078 34.9793C38.4628 35.4196 38.7799 35.883 38.856 36.1122C39.0323 36.6415 39.0912 36.8923 39.5847 37.4762C40.0811 38.064 40.8603 38.736 40.8603 38.736C40.8814 38.7547 40.9059 38.763 40.9344 38.7611C40.9624 38.7591 40.9855 38.7473 41.0041 38.7256C41.0218 38.7045 41.0297 38.6799 41.0272 38.6518C41.0248 38.6243 41.0135 38.6012 40.9919 38.5835C40.9919 38.5835 40.2166 37.9115 39.7384 37.3459C39.2572 36.7762 39.2277 36.5844 39.0495 36.0487C38.9484 35.7457 38.6238 35.2996 38.2639 34.8524C37.9035 34.4058 37.5092 33.9714 37.2687 33.7432C37.0192 33.5066 36.679 33.329 36.4079 33.1401C36.2724 33.0457 36.1541 32.9498 36.0746 32.8494C35.9945 32.7491 35.9523 32.6497 35.9523 32.5312C35.9523 32.3329 35.8143 32.1465 35.6341 31.9561C35.4539 31.7653 35.2207 31.5729 34.9865 31.3983C34.5186 31.0491 34.0531 30.7736 34.0531 30.7736Z" fill="#969696"/>
<path d="M58.3313 41.4365C58.3043 41.4434 58.2832 41.4586 58.2685 41.4822C58.2542 41.5063 58.2503 41.5319 58.2567 41.5595C58.2567 41.5595 58.4217 42.2506 58.5095 43.0066C58.5528 43.3844 58.5773 43.7789 58.5528 44.106C58.5287 44.4326 58.4501 44.685 58.3338 44.7878C57.9969 45.0859 57.5943 45.7416 57.179 46.4233C56.7631 47.1046 56.3403 47.811 56.0222 48.1691C55.3642 48.9084 54.5094 49.6379 53.7042 51.1249C53.3173 51.8401 52.8936 52.0428 52.4212 52.1195C51.9489 52.1958 51.4211 52.1244 50.8874 52.2637C50.3458 52.4053 49.2528 52.9597 48.2733 53.4816C47.2938 54.004 46.4434 54.492 46.4434 54.492C46.4188 54.5057 46.4031 54.5264 46.3957 54.5534C46.3884 54.5805 46.3918 54.6061 46.4061 54.6302C46.4198 54.6543 46.4399 54.6695 46.4664 54.6769C46.493 54.6843 46.518 54.6813 46.5421 54.6681C46.5421 54.6681 47.392 54.1801 48.3681 53.6597C49.3447 53.1392 50.4612 52.5844 50.9384 52.4594C51.423 52.333 51.9396 52.4024 52.4526 52.3192C52.9662 52.2356 53.4719 51.9793 53.8819 51.2218C54.6719 49.7628 55.5007 49.058 56.1719 48.3034C56.5181 47.9143 56.9359 47.2084 57.3508 46.5281C57.7657 45.8473 58.183 45.1906 58.4663 44.9403C58.6598 44.7691 58.7305 44.4681 58.7565 44.1198C58.7816 43.771 58.7555 43.3682 58.7109 42.983C58.622 42.2117 58.4541 41.5117 58.4541 41.5117C58.4477 41.4842 58.4325 41.4635 58.4084 41.4488C58.3848 41.434 58.3583 41.4301 58.3313 41.4365Z" fill="#969696"/>
</svg>
