<svg width="82" height="82" viewBox="0 0 82 82" fill="none" xmlns="http://www.w3.org/2000/svg">
<rect width="82" height="82" rx="10" fill="#E0F980"/>
<path d="M20.737 24.3571C17.928 24.4769 15.2612 26.013 13.5563 28.1523C12.3398 29.679 11.6111 31.6609 11.7548 33.7006C11.9356 36.2701 13.4825 38.7045 15.5025 40.4003C16.2719 41.0456 17.1406 41.6134 18.0954 41.8121C19.6512 42.135 21.2871 41.3255 21.9196 39.9195C23.3044 40.5635 24.9883 40.324 26.032 39.3355C27.0758 38.3466 27.4205 36.6638 26.874 35.2255C27.7942 35.0264 28.5918 34.4097 29.009 33.5683C29.6441 32.2865 29.3657 30.6482 28.7051 29.2807C27.7853 27.3777 26.1435 25.8049 24.2247 24.9882C23.0762 24.4993 21.8945 24.3078 20.737 24.3571Z" fill="#88A80D"/>
<path d="M26.1772 28.7493C24.1501 28.7475 22.2706 29.7893 21.1069 31.3048C20.2762 32.3861 19.8125 33.8177 19.9812 35.3193C20.1938 37.2106 21.3898 39.0472 22.904 40.3563C23.4809 40.8546 24.1268 41.2995 24.8241 41.4758C25.9588 41.7628 27.1158 41.221 27.528 40.2092C28.5499 40.7259 29.7597 40.6044 30.483 39.9123C31.2059 39.2203 31.4015 37.9959 30.9606 36.9227C31.6195 36.806 32.1763 36.3791 32.4511 35.775C32.8696 34.8542 32.6158 33.6428 32.0948 32.6184C31.3693 31.1922 30.1321 29.9853 28.7186 29.3242C27.8727 28.9287 27.0124 28.7506 26.1772 28.7493Z" fill="#633E25"/>
<mask id="mask0_533_184" style="mask-type:luminance" maskUnits="userSpaceOnUse" x="51" y="24" width="19" height="18">
<path d="M51.729 24.3365H69.3587V41.9265H51.729V24.3365Z" fill="white"/>
</mask>
<g mask="url(#mask0_533_184)">
<path d="M60.3607 24.3573C63.1698 24.477 65.837 26.0131 67.5414 28.1524C68.7575 29.6791 69.4862 31.661 69.3425 33.7008C69.1617 36.2702 67.6152 38.7046 65.5953 40.4004C64.8258 41.0458 63.9571 41.6136 63.0019 41.8122C61.4461 42.1352 59.8106 41.3256 59.1781 39.9196C57.7933 40.5636 56.1095 40.3241 55.0657 39.3356C54.0219 38.3467 53.6772 36.664 54.2238 35.2256C53.3035 35.0265 52.5055 34.4098 52.0887 33.5684C51.4536 32.2866 51.732 30.6483 52.3927 29.2808C53.312 27.3779 54.9538 25.805 56.873 24.9883C58.0216 24.4994 59.2032 24.3079 60.3607 24.3573Z" fill="#88A80D"/>
</g>
<path d="M55.4006 28.7493C57.4278 28.7475 59.3067 29.7893 60.4714 31.3048C61.3021 32.3861 61.7654 33.8177 61.5966 35.3193C61.3845 37.2106 60.1885 39.0472 58.6738 40.3563C58.0969 40.8546 57.451 41.2995 56.7541 41.4758C55.619 41.7628 54.462 41.221 54.0498 40.2092C53.0279 40.7259 51.8181 40.6044 51.0952 39.9123C50.3719 39.2203 50.1763 37.9959 50.6172 36.9227C49.9584 36.806 49.4011 36.3791 49.1267 35.775C48.7082 34.8542 48.962 33.6428 49.483 32.6184C50.2086 31.1922 51.4457 29.9853 52.8592 29.3242C53.7051 28.9287 54.5654 28.7506 55.4006 28.7493Z" fill="#633E25"/>
<mask id="mask1_533_184" style="mask-type:luminance" maskUnits="userSpaceOnUse" x="16" y="23" width="49" height="38">
<path d="M16.4375 23H64.8525V60.1847H16.4375V23Z" fill="white"/>
</mask>
<g mask="url(#mask1_533_184)">
<path d="M62.8432 34.4941C54.4625 18.7546 26.1981 19.2138 18.1531 35.6615C15.1497 41.8018 16.1922 49.1832 20.8816 54.1489C26.1121 59.6874 34.3384 60.2996 39.2292 60.17C41.3987 60.1126 40.192 60.0888 42.3619 60.0879C47.3078 60.0865 55.8666 58.8976 60.9898 52.8169C65.3144 47.6848 65.9988 40.4209 62.8432 34.4941Z" fill="#88A80D"/>
</g>
<path d="M40.4569 46.1231C39.5858 46.1231 38.709 45.9872 37.834 45.7163C35.2563 44.9175 33.6087 43.2352 33.5398 43.1643C33.3948 43.0145 33.3921 42.7688 33.5335 42.6149C33.6745 42.462 33.9064 42.4588 34.0514 42.6082C34.067 42.6243 35.6564 44.2412 38.0667 44.9794C41.2674 45.9598 44.3455 45.005 47.215 42.1413C47.3623 41.9942 47.5941 42.0014 47.7329 42.1575C47.8716 42.3135 47.8649 42.5593 47.7177 42.706C46.0298 44.3905 44.2336 45.4647 42.3784 45.8997C41.7437 46.0486 41.1018 46.1231 40.4569 46.1231Z" fill="black"/>
<path d="M15.6457 34.9668C16.5623 38.1135 19.8499 39.9196 22.9889 39.0006C26.1278 38.0812 27.9289 34.7856 27.0122 31.6385C26.0956 28.4919 22.808 26.6858 19.6691 27.6048C16.5306 28.5237 14.729 31.8202 15.6457 34.9668Z" fill="#E0F980"/>
<path d="M17.5822 34.2361C18.2048 36.4068 20.4379 37.6523 22.5693 37.0181C24.7012 36.3844 25.9244 34.111 25.3018 31.9407C24.6792 29.7705 22.4467 28.525 20.3148 29.1587C18.1829 29.7924 16.9596 32.0659 17.5822 34.2361Z" fill="black"/>
<path d="M23.4906 28.5789C23.1871 28.5757 22.9383 28.8202 22.9356 29.1247C22.9324 29.4292 23.1759 29.6781 23.4798 29.6813C23.7833 29.6844 24.0317 29.44 24.0349 29.1359C24.038 28.8314 23.7945 28.582 23.4906 28.5789Z" fill="#FBFEFF"/>
<path d="M18.2301 28.9291C17.4554 28.9215 16.8211 29.5449 16.8131 30.3213C16.8054 31.0981 17.4272 31.734 18.2015 31.7417C18.9763 31.7497 19.6105 31.1268 19.6186 30.35C19.6266 29.5732 19.0049 28.9372 18.2301 28.9291Z" fill="#FBFEFF"/>
<path d="M55.2098 35.3328C56.3279 38.4548 59.7587 40.0765 62.8726 38.9553C65.9869 37.8341 67.6045 34.3946 66.4864 31.2726C65.3679 28.1506 61.9371 26.5288 58.8232 27.6501C55.7089 28.7709 54.0913 32.2108 55.2098 35.3328Z" fill="#E0F980"/>
<path d="M56.89 34.7138C57.6397 36.9468 59.9399 38.1066 62.0279 37.3047C64.1155 36.5028 65.2 34.0428 64.4502 31.8098C63.7005 29.5772 61.3999 28.4169 59.3124 29.2188C57.2248 30.0207 56.1398 32.4807 56.89 34.7138Z" fill="black"/>
<path d="M63.4303 29.1207C63.0834 29.1539 62.8292 29.4629 62.8623 29.8105C62.8954 30.1581 63.2038 30.4133 63.5502 30.3801C63.8971 30.3469 64.1513 30.0379 64.1182 29.6903C64.0851 29.3427 63.7772 29.0875 63.4303 29.1207Z" fill="#FBFEFF"/>
<path d="M58.5449 28.704C57.8051 28.7748 57.2621 29.4337 57.3329 30.1759C57.4036 30.9177 58.0611 31.4618 58.801 31.3909C59.5413 31.32 60.0838 30.6612 60.013 29.9194C59.9423 29.1771 59.2852 28.6331 58.5449 28.704Z" fill="#FBFEFF"/>
<path d="M38.6386 38.3413C38.7465 38.3413 38.8602 38.2938 38.9371 38.2171C39.0101 38.1435 39.0652 38.0233 39.0607 37.9179C39.0558 37.8085 39.0199 37.695 38.9371 37.6188C38.8543 37.5425 38.7527 37.495 38.6386 37.495C38.5303 37.495 38.4166 37.5416 38.3401 37.6188C38.2667 37.6923 38.2116 37.8125 38.2161 37.9179C38.221 38.0274 38.2568 38.1408 38.3401 38.2171C38.4224 38.2933 38.524 38.3413 38.6386 38.3413Z" fill="black"/>
<path d="M42.4941 38.3413C42.6024 38.3413 42.7156 38.2938 42.7926 38.2171C42.8656 38.1435 42.9206 38.0233 42.9161 37.9179C42.9112 37.8085 42.8754 37.695 42.7926 37.6188C42.7098 37.5425 42.6082 37.495 42.4941 37.495C42.3858 37.495 42.2716 37.5416 42.1955 37.6188C42.1221 37.6923 42.0671 37.8125 42.0715 37.9179C42.0765 38.0274 42.1123 38.1408 42.1955 38.2171C42.2779 38.2933 42.3795 38.3413 42.4941 38.3413Z" fill="black"/>
<path d="M23.7824 41.3403C27.5287 41.7404 27.8488 43.2339 27.5605 44.2416C27.2723 45.249 21.1344 44.4923 20.6027 43.442C20.071 42.3916 20.6994 41.0116 23.7824 41.3403Z" fill="#FBC9B4"/>
<path d="M57.2725 41.4668C61.0072 40.9667 61.6706 42.3423 61.6276 43.3895C61.5851 44.4367 55.4432 45.157 54.6787 44.2627C53.9142 43.368 54.1994 41.8781 57.2725 41.4668Z" fill="#FBC9B4"/>
</svg>
