<svg width="82" height="82" viewBox="0 0 82 82" fill="none" xmlns="http://www.w3.org/2000/svg">
<rect width="82" height="82" rx="10" fill="#EFD0F3"/>
<mask id="mask0_533_187" style="mask-type:luminance" maskUnits="userSpaceOnUse" x="14" y="13" width="52" height="56">
<path d="M14.7188 13.2222H65.2448V68.7777H14.7188V13.2222Z" fill="white"/>
</mask>
<g mask="url(#mask0_533_187)">
<path d="M53.3964 20.1502C53.1642 20.4048 52.9411 20.6349 52.7349 20.8794C52.3414 21.3452 52.0536 21.8748 51.8561 22.4496C51.7064 22.8856 51.5823 23.3302 51.4495 23.7719C51.4302 23.8346 51.4167 23.9002 51.4124 23.9658C51.3998 24.1495 51.4809 24.2253 51.6461 24.1553C52.155 23.9412 52.6857 23.9788 53.2091 24.027C54.2023 24.1187 55.1864 24.0589 56.169 23.9205C56.3901 23.8891 56.6118 23.8592 56.8624 23.8245C56.8406 23.9185 56.831 23.9798 56.8126 24.0386C56.66 24.5252 56.746 25.0104 56.8266 25.4936C56.957 26.2753 57.0782 27.0575 57.0116 27.8532C56.9802 28.2284 56.9319 28.6022 56.886 28.9754C56.8715 29.0917 56.8455 29.2036 57.0034 29.2561C57.0309 29.2388 57.0661 29.2233 57.0922 29.1982C57.3993 28.907 57.6876 28.5925 58.0149 28.3259C58.7132 27.7568 59.2684 27.0783 59.6938 26.2888C59.7648 26.1572 59.8416 26.0289 59.9164 25.8972C59.942 25.9127 59.9637 25.918 59.9666 25.9286C60.1863 26.6785 60.6721 27.2745 61.1072 27.9C61.2356 28.0847 61.4176 28.2641 61.4577 28.4686C61.4954 28.6625 61.3853 28.8882 61.3297 29.0975C60.9155 30.6653 60.3751 32.1906 59.8034 33.7073C58.2177 37.9135 56.31 41.9654 53.9874 45.8157C52.0497 49.0275 50.0459 52.1979 47.8151 55.2182C45.7644 57.995 43.4916 60.5698 40.8784 62.8335C39.2845 64.2146 37.5819 65.441 35.694 66.3954C33.9484 67.2779 32.1063 67.8614 30.1768 68.1817C28.7379 68.4204 27.2894 68.4932 25.836 68.4493C24.4806 68.4078 23.1532 68.1773 21.8804 67.6989C20.2691 67.0932 18.963 66.0646 17.8843 64.7379C16.5912 63.1474 15.7979 61.3231 15.3773 59.3285C15.0765 57.901 14.9611 56.4557 15.0514 55.0007C15.2276 52.1689 16.0229 49.5416 17.7023 47.2172C18.6854 45.8562 19.8558 44.6723 21.1359 43.5925C22.7925 42.1955 24.6037 41.0241 26.4869 39.9621C28.1286 39.0362 29.7799 38.1286 31.4313 37.2205C34.8794 35.3248 37.9528 32.942 40.6765 30.1097C42.1073 28.6215 43.5133 27.1096 44.9295 25.6074C46.2757 24.179 47.6659 22.7968 49.2245 21.5975C49.7991 21.1552 50.4046 20.7526 50.9923 20.3272C51.1067 20.2443 51.2221 20.21 51.3612 20.2288C51.8991 20.3031 52.4336 20.224 52.9691 20.1873C53.1159 20.1777 53.2622 20.1623 53.3964 20.1502ZM17.4251 55.7622C17.4613 56.2594 17.4908 56.7571 17.5391 57.2533C17.5492 57.3589 17.528 57.548 17.697 57.5369C17.8833 57.5243 17.809 57.3435 17.7959 57.2403C17.7008 56.4991 17.7124 55.7579 17.738 55.0128C17.781 53.7531 18.0359 52.5489 18.5724 51.4065C19.6153 49.1852 21.076 47.2688 22.865 45.6026C24.1778 44.3805 25.5883 43.2743 27.1107 42.3232C29.0919 41.0858 31.089 39.8734 33.0923 38.6711C33.9557 38.1527 34.8514 37.6874 35.7316 37.1974C35.8142 37.1516 35.9006 37.1091 35.9706 37.0488C36.0044 37.0204 36.0291 36.9418 36.0131 36.9066C35.9977 36.8738 35.9243 36.8579 35.8745 36.8535C35.8422 36.8506 35.806 36.8796 35.7731 36.8969C35.0822 37.263 34.3777 37.6059 33.7041 38.0008C32.0624 38.9629 30.4284 39.939 28.8031 40.9281C27.0552 41.9919 25.3628 43.1334 23.7805 44.4394C21.8176 46.0593 20.1832 47.9492 18.9113 50.1507C18.3908 51.0515 17.9731 51.9977 17.724 53.0114C17.5024 53.9142 17.471 54.8368 17.4251 55.7622ZM50.3612 19.8044C51.9363 19.2045 53.3945 18.4643 54.956 17.9849C55.633 17.7775 56.3191 17.6121 57.0275 17.5514C58.0763 17.4612 59.0545 17.696 59.9584 18.2149C60.295 18.4078 60.6185 18.3784 60.9048 18.0963C61.294 17.7139 61.5692 17.2548 61.7967 16.7648C62.2168 15.8582 62.4543 14.9023 62.5649 13.9123C62.5697 13.866 62.5765 13.8197 62.5876 13.7358C63.2699 14.1915 63.9975 14.4596 64.8498 14.4712C64.802 14.5807 64.7744 14.6776 64.7213 14.7581C64.6025 14.9385 64.4775 15.1165 64.3433 15.2862C63.6528 16.1601 63.0014 17.0599 62.4799 18.0471C62.2641 18.4556 62.0516 18.8645 61.9739 19.3294C61.9169 19.6718 61.9734 19.9795 62.1699 20.2698C62.6953 21.0453 62.9478 21.9129 63.0386 22.8373C63.1612 24.0912 63.0096 25.3195 62.7189 26.5362C62.5166 27.3821 62.366 28.2333 62.3998 29.1076C62.4012 29.1351 62.393 29.163 62.3848 29.2257C62.3288 29.1645 62.2844 29.1249 62.251 29.0777C61.7749 28.3987 61.3066 27.7144 60.8237 27.0406C60.4954 26.5825 60.2385 26.0959 60.1414 25.5365C60.1231 25.4309 60.084 25.3566 59.9734 25.3422C59.8652 25.3282 59.8358 25.4111 59.7952 25.4888C59.6021 25.8553 59.4114 26.2232 59.2052 26.582C58.9116 27.0932 58.5229 27.5287 58.0821 27.9179C57.8421 28.1305 57.6026 28.3432 57.3621 28.5549C57.3298 28.5834 57.2931 28.6075 57.2279 28.6562C57.2433 28.3736 57.2477 28.132 57.2713 27.8923C57.3476 27.1241 57.2395 26.3698 57.1144 25.6161C57.085 25.4396 57.0579 25.2626 57.0251 25.087C56.943 24.64 56.9739 24.2089 57.1685 23.7898C57.2622 23.5877 57.1748 23.4951 56.942 23.527C56.4379 23.5959 55.9343 23.6663 55.4307 23.7372C54.6977 23.8399 53.9628 23.8182 53.2284 23.77C52.7562 23.7387 52.2868 23.7136 51.8228 23.8346C51.7987 23.8409 51.7697 23.8288 51.719 23.8226C51.8522 23.2675 52.013 22.7312 52.2356 22.2147C52.6152 21.3356 53.183 20.6132 54.0125 20.1126C54.0526 20.0885 54.1033 20.0663 54.1236 20.0297C54.1477 19.9858 54.1593 19.9221 54.1458 19.8768C54.1366 19.8464 54.0744 19.8165 54.0343 19.8141C53.9503 19.8097 53.8653 19.8218 53.7808 19.8295C53.2743 19.8787 52.7682 19.9332 52.2612 19.9771C51.6746 20.0277 51.0937 19.9718 50.5162 19.8676C50.4814 19.8613 50.4491 19.8411 50.3612 19.8044ZM60.1323 19.1327C60.0265 19.0304 59.9633 18.9504 59.8826 18.8944C59.4514 18.595 58.9724 18.4088 58.4606 18.2945C57.5929 18.1011 56.7373 18.1971 55.8846 18.389C55.7566 18.418 55.6267 18.4517 55.5094 18.5072C55.4563 18.5327 55.3954 18.6205 55.4003 18.674C55.4095 18.771 55.507 18.7594 55.5823 18.7459C55.6282 18.7377 55.6712 18.715 55.7165 18.7039C56.4056 18.5347 57.0999 18.4122 57.8136 18.47C58.5388 18.5294 59.2216 18.7174 59.8213 19.1495C59.859 19.1765 59.901 19.2214 59.9391 19.2195C59.9903 19.2166 60.04 19.1765 60.1323 19.1327ZM62.8691 13.5819C63.5069 13.5969 64.0941 13.7782 64.6373 14.1052C63.9874 14.1389 63.4041 13.9431 62.8691 13.5819ZM50.7185 20.1767C50.4462 20.1044 50.2178 20.0504 49.9942 19.9809C49.9324 19.9617 49.8494 19.9057 49.8378 19.8527C49.8151 19.7533 49.8798 19.6738 49.9846 19.6443C51.1236 19.3212 52.154 18.7343 53.2501 18.3056C54.226 17.9237 55.2081 17.574 56.2385 17.3652C57.59 17.0922 58.8624 17.2866 60.0666 17.9502C60.3708 18.1175 60.464 18.1069 60.7083 17.8614C60.9908 17.5774 61.1994 17.2408 61.3785 16.8863C61.8256 16.0043 62.1042 15.0692 62.2317 14.0888C62.2592 13.8742 62.2732 13.6576 62.2969 13.4426C62.3167 13.2665 62.3645 13.2207 62.5258 13.227C63.3693 13.2603 64.1622 13.4754 64.8976 13.8925C64.9787 13.9388 65.0598 13.9923 65.124 14.0584C65.2119 14.1491 65.2443 14.2518 65.2109 14.3921C65.1342 14.721 64.9898 15.0108 64.7894 15.278C64.3722 15.8369 63.9517 16.3935 63.5417 16.9572C63.1356 17.5152 62.787 18.1093 62.5031 18.7372C62.3882 18.9914 62.3235 19.2706 62.2559 19.5431C62.2143 19.7109 62.2539 19.8744 62.3549 20.0268C63.041 21.0636 63.3288 22.2152 63.3645 23.4488C63.3978 24.5913 63.2085 25.7014 62.9401 26.8024C62.7378 27.6319 62.6349 28.4696 62.6817 29.3232C62.6924 29.5204 62.7204 29.7167 62.7363 29.9134C62.7498 30.0798 62.7049 30.1584 62.5914 30.1734C62.4534 30.1912 62.4099 30.0948 62.3862 29.9887C62.2858 29.5431 62.0043 29.1958 61.7566 28.8303C61.7489 28.8187 61.7233 28.8187 61.6919 28.8086C61.562 29.2672 61.4369 29.7268 61.3022 30.184C60.6948 32.2466 59.9063 34.2445 59.0922 36.2314C57.3341 40.5244 55.1477 44.5927 52.6543 48.5028C51.0174 51.0704 49.367 53.6273 47.523 56.053C45.5433 58.6576 43.3574 61.0718 40.8649 63.1981C39.2821 64.5484 37.594 65.7468 35.7268 66.6785C33.8301 67.6251 31.8272 68.226 29.7288 68.5192C28.4835 68.6933 27.2319 68.7502 25.9765 68.7199C24.5733 68.6861 23.1981 68.4657 21.8766 67.9835C20.0895 67.3315 18.6656 66.1851 17.5082 64.694C16.2585 63.0847 15.4956 61.2565 15.0924 59.2706C14.8331 57.9907 14.7163 56.6958 14.7646 55.3928C14.907 51.5222 16.2324 48.1378 18.9253 45.3103C20.47 43.689 22.2073 42.3122 24.0837 41.1012C25.7481 40.0268 27.4864 39.0801 29.2242 38.133C30.7133 37.3208 32.1976 36.5 33.6307 35.59C35.9504 34.1167 38.0571 32.3792 39.9779 30.4227C41.5558 28.8153 43.0894 27.1641 44.6369 25.5264C45.9981 24.0864 47.394 22.684 48.9604 21.4629C49.4433 21.0868 49.9469 20.7362 50.4409 20.374C50.5162 20.319 50.593 20.266 50.7185 20.1767ZM53.3964 20.1502C53.2622 20.1623 53.1159 20.1777 52.9691 20.1873C52.4336 20.224 51.8991 20.3031 51.3612 20.2288C51.2221 20.21 51.1067 20.2443 50.9923 20.3272C50.4046 20.7526 49.7991 21.1552 49.2245 21.5975C47.6659 22.7968 46.2757 24.179 44.9295 25.6074C43.5133 27.1096 42.1073 28.6215 40.6765 30.1097C37.9528 32.942 34.8794 35.3248 31.4313 37.2205C29.7799 38.1286 28.1286 39.0362 26.4869 39.9621C24.6037 41.0241 22.7925 42.1955 21.1359 43.5925C19.8558 44.6723 18.6854 45.8562 17.7023 47.2172C16.0229 49.5416 15.2276 52.1689 15.0514 55.0007C14.9611 56.4557 15.0765 57.901 15.3773 59.3285C15.7979 61.3231 16.5912 63.1474 17.8843 64.7379C18.963 66.0646 20.2691 67.0932 21.8804 67.6989C23.1532 68.1773 24.4806 68.4078 25.836 68.4493C27.2894 68.4932 28.7379 68.4204 30.1768 68.1817C32.1063 67.8614 33.9484 67.2779 35.694 66.3954C37.5819 65.441 39.2845 64.2146 40.8784 62.8335C43.4916 60.5698 45.7644 57.995 47.8151 55.2182C50.0459 52.1979 52.0497 49.0275 53.9874 45.8157C56.31 41.9654 58.2177 37.9135 59.8034 33.7073C60.3751 32.1906 60.9155 30.6653 61.3297 29.0975C61.3853 28.8882 61.4954 28.6625 61.4577 28.4686C61.4176 28.2641 61.2356 28.0847 61.1072 27.9C60.6721 27.2745 60.1863 26.6785 59.9666 25.9286C59.9637 25.918 59.942 25.9127 59.9164 25.8972C59.8416 26.0289 59.7648 26.1572 59.6938 26.2888C59.2684 27.0783 58.7132 27.7568 58.0149 28.3259C57.6876 28.5925 57.3993 28.907 57.0922 29.1982C57.0661 29.2233 57.0309 29.2388 57.0034 29.2561C56.8455 29.2036 56.8715 29.0917 56.886 28.9754C56.9319 28.6022 56.9802 28.2284 57.0116 27.8532C57.0782 27.0575 56.957 26.2753 56.8266 25.4936C56.746 25.0104 56.66 24.5252 56.8126 24.0386C56.831 23.9798 56.8406 23.9185 56.8624 23.8245C56.6118 23.8592 56.3901 23.8891 56.169 23.9205C55.1864 24.0589 54.2023 24.1187 53.2091 24.027C52.6857 23.9788 52.155 23.9412 51.6461 24.1553C51.4809 24.2253 51.3998 24.1495 51.4124 23.9658C51.4167 23.9002 51.4302 23.8346 51.4495 23.7719C51.5823 23.3302 51.7064 22.8856 51.8561 22.4496C52.0536 21.8748 52.3414 21.3452 52.7349 20.8794C52.9411 20.6349 53.1642 20.4048 53.3964 20.1502ZM50.3612 19.8044C50.4491 19.8411 50.4814 19.8613 50.5162 19.8676C51.0937 19.9718 51.6746 20.0277 52.2612 19.9771C52.7682 19.9332 53.2743 19.8787 53.7808 19.8295C53.8653 19.8218 53.9503 19.8097 54.0343 19.8141C54.0744 19.8165 54.1366 19.8464 54.1458 19.8768C54.1593 19.9221 54.1477 19.9858 54.1236 20.0297C54.1033 20.0663 54.0526 20.0885 54.0125 20.1126C53.183 20.6132 52.6152 21.3356 52.2356 22.2147C52.013 22.7312 51.8522 23.2675 51.719 23.8226C51.7697 23.8288 51.7987 23.8409 51.8228 23.8346C52.2868 23.7136 52.7562 23.7387 53.2284 23.77C53.9628 23.8182 54.6977 23.8399 55.4307 23.7372C55.9343 23.6663 56.4379 23.5959 56.942 23.527C57.1748 23.4951 57.2622 23.5877 57.1685 23.7898C56.9739 24.2084 56.943 24.64 57.0251 25.087C57.0579 25.2626 57.085 25.4396 57.1144 25.6161C57.2395 26.3698 57.3476 27.1241 57.2713 27.8923C57.2477 28.132 57.2433 28.3736 57.2279 28.6562C57.2931 28.6075 57.3298 28.5834 57.3621 28.5549C57.6026 28.3432 57.8421 28.1305 58.0821 27.9179C58.5229 27.5287 58.9116 27.0932 59.2052 26.582C59.4114 26.2232 59.6021 25.8548 59.7952 25.4888C59.8358 25.4111 59.8652 25.3282 59.9734 25.3422C60.084 25.3566 60.1231 25.4309 60.1414 25.5365C60.2385 26.0959 60.4954 26.5825 60.8237 27.0406C61.3066 27.7144 61.7749 28.3987 62.251 29.0777C62.2844 29.1249 62.3288 29.1645 62.3848 29.2257C62.393 29.163 62.4012 29.1351 62.3998 29.1076C62.366 28.2333 62.5166 27.3821 62.7189 26.5362C63.0096 25.3195 63.1612 24.0912 63.0386 22.8373C62.9478 21.9129 62.6953 21.0453 62.1699 20.2698C61.9734 19.9795 61.9169 19.6718 61.9739 19.3294C62.0516 18.8645 62.2641 18.4556 62.4799 18.0471C63.0014 17.0599 63.6528 16.1601 64.3433 15.2862C64.4775 15.1165 64.6025 14.9385 64.7213 14.7581C64.7744 14.6776 64.802 14.5807 64.8498 14.4712C63.9975 14.4596 63.2699 14.1915 62.5876 13.7358C62.5765 13.8197 62.5697 13.866 62.5649 13.9123C62.4543 14.9023 62.2168 15.8582 61.7967 16.7648C61.5692 17.2548 61.294 17.7139 60.9048 18.0963C60.6185 18.3784 60.295 18.4078 59.9584 18.2149C59.0545 17.696 58.0763 17.4612 57.0275 17.5514C56.3191 17.6121 55.633 17.7775 54.956 17.9849C53.3945 18.4643 51.9363 19.2045 50.3612 19.8044ZM64.6373 14.1052C63.9874 14.1389 63.4041 13.9431 62.8691 13.5819C63.5069 13.5969 64.0941 13.7782 64.6373 14.1052ZM17.5391 57.2533C17.5492 57.3589 17.528 57.548 17.697 57.5369C17.8833 57.5243 17.809 57.3435 17.7959 57.2403C17.7008 56.4991 17.7124 55.7579 17.738 55.0128C17.781 53.7531 18.0359 52.5489 18.5724 51.4065C19.6153 49.1852 21.076 47.2688 22.865 45.6026C24.1778 44.3805 25.5883 43.2743 27.1107 42.3232C29.0919 41.0858 31.089 39.8734 33.0923 38.6711C33.9557 38.1527 34.8514 37.6874 35.7316 37.1974C35.8142 37.1516 35.9006 37.1091 35.9706 37.0488C36.0044 37.0204 36.0291 36.9418 36.0131 36.9066C35.9977 36.8738 35.9243 36.8579 35.8745 36.8535C35.8422 36.8506 35.806 36.8796 35.7731 36.8969C35.0822 37.263 34.3777 37.6059 33.7041 38.0008C32.0624 38.9629 30.4284 39.939 28.8031 40.9281C27.0552 41.9919 25.3628 43.1334 23.7805 44.4394C21.8176 46.0593 20.1832 47.9492 18.9113 50.1507C18.3908 51.0515 17.9731 51.9977 17.724 53.0114C17.5024 53.9142 17.471 54.8368 17.4251 55.7622C17.4613 56.2594 17.4908 56.7571 17.5391 57.2533ZM59.8826 18.8944C59.4514 18.595 58.9724 18.4088 58.4606 18.2945C57.5929 18.1011 56.7373 18.1971 55.8846 18.389C55.7566 18.418 55.6267 18.4517 55.5094 18.5072C55.4563 18.5327 55.3954 18.6205 55.4003 18.674C55.4095 18.771 55.507 18.7594 55.5823 18.7459C55.6282 18.7377 55.6712 18.715 55.7165 18.7039C56.4056 18.5347 57.0999 18.4122 57.8136 18.47C58.5388 18.5294 59.2216 18.7174 59.8213 19.1495C59.859 19.1765 59.901 19.2214 59.9391 19.2195C59.9903 19.2166 60.04 19.1765 60.1323 19.1327C60.0265 19.0304 59.9633 18.9504 59.8826 18.8944Z" fill="black"/>
</g>
<path d="M53.3965 20.1503C53.1642 20.4049 52.9411 20.6349 52.735 20.8794C52.3414 21.3453 52.0536 21.8748 51.8562 22.4497C51.7065 22.8856 51.5824 23.3302 51.4496 23.772C51.4303 23.8347 51.4168 23.9003 51.4124 23.9659C51.3999 24.1496 51.481 24.2253 51.6461 24.1554C52.155 23.9413 52.6857 23.9789 53.2091 24.0271C54.2024 24.1187 55.1864 24.0589 56.169 23.9205C56.3902 23.8892 56.6118 23.8593 56.8624 23.8246C56.8407 23.9186 56.831 23.9798 56.8127 24.0387C56.6601 24.5253 56.746 25.0104 56.8267 25.4936C56.957 26.2754 57.0782 27.0576 57.0116 27.8533C56.9802 28.2285 56.9319 28.6022 56.8861 28.9755C56.8716 29.0917 56.8455 29.2036 57.0034 29.2562C57.0309 29.2388 57.0662 29.2234 57.0922 29.1983C57.3993 28.907 57.6876 28.5926 58.015 28.3259C58.7132 27.7568 59.2685 27.0783 59.6939 26.2889C59.7649 26.1572 59.8416 26.0289 59.9165 25.8973C59.9421 25.9127 59.9638 25.918 59.9667 25.9286C60.1864 26.6785 60.6721 27.2746 61.1072 27.9001C61.2356 28.0848 61.4177 28.2642 61.4577 28.4687C61.4954 28.6625 61.3853 28.8882 61.3298 29.0975C60.9155 30.6653 60.3752 32.1907 59.8035 33.7074C58.2178 37.9136 56.31 41.9655 53.9875 45.8158C52.0498 49.0276 50.0459 52.1979 47.8151 55.2183C45.7644 57.9951 43.4916 60.5698 40.8784 62.8335C39.2845 64.2147 37.582 65.4411 35.694 66.3955C33.9485 67.278 32.1064 67.8615 30.1769 68.1817C28.738 68.4204 27.2894 68.4933 25.836 68.4494C24.4806 68.4079 23.1533 68.1774 21.8805 67.699C20.2692 67.0933 18.963 66.0646 17.8843 64.7379C16.5913 63.1475 15.7979 61.3231 15.3774 59.3285C15.0765 57.901 14.9611 56.4557 15.0514 55.0008C15.2277 52.169 16.0229 49.5417 17.7023 47.2172C18.6854 45.8563 19.8558 44.6724 21.1359 43.5926C22.7926 42.1955 24.6038 41.0241 26.4869 39.9622C28.1286 39.0363 29.78 38.1287 31.4314 37.2206C34.8794 35.3248 37.9528 32.942 40.6766 30.1098C42.1073 28.6215 43.5134 27.1097 44.9296 25.6074C46.2758 24.179 47.6659 22.7969 49.2246 21.5975C49.7992 21.1553 50.4047 20.7526 50.9923 20.3273C51.1068 20.2443 51.2222 20.2101 51.3612 20.2289C51.8991 20.3031 52.4337 20.2241 52.9691 20.1874C53.1159 20.1778 53.2622 20.1623 53.3965 20.1503ZM17.4251 55.7622C17.4614 56.2595 17.4908 56.7571 17.5391 57.2534C17.5492 57.359 17.528 57.548 17.697 57.5369C17.8834 57.5244 17.809 57.3436 17.796 57.2404C17.7009 56.4991 17.7124 55.7579 17.738 55.0128C17.781 53.7532 18.036 52.549 18.5724 51.4065C19.6154 49.1853 21.076 47.2688 22.865 45.6026C24.1779 44.3806 25.5883 43.2743 27.1108 42.3233C29.0919 41.0858 31.089 39.8735 33.0924 38.6712C33.9557 38.1528 34.8514 37.6874 35.7317 37.1974C35.8142 37.1516 35.9007 37.1092 35.9707 37.0489C36.0045 37.0204 36.0291 36.9418 36.0132 36.9066C35.9977 36.8738 35.9243 36.8579 35.8746 36.8536C35.8422 36.8507 35.806 36.8796 35.7732 36.897C35.0822 37.263 34.3777 37.6059 33.7042 38.0009C32.0624 38.963 30.4285 39.939 28.8032 40.9281C27.0552 41.992 25.3628 43.1335 23.7805 44.4394C21.8177 46.0593 20.1832 47.9493 18.9114 50.1508C18.3909 51.0516 17.9732 51.9978 17.724 53.0115C17.5024 53.9143 17.471 54.8368 17.4251 55.7622Z" fill="#804189"/>
<path d="M50.3613 19.8045C51.9364 19.2046 53.3946 18.4643 54.9562 17.985C55.6331 17.7776 56.3193 17.6122 57.0276 17.5514C58.0764 17.4612 59.0547 17.6961 59.9586 18.215C60.2951 18.4079 60.6186 18.3785 60.905 18.0964C61.2942 17.7139 61.5694 17.2548 61.7968 16.7649C62.2169 15.8582 62.4545 14.9024 62.565 13.9123C62.5699 13.866 62.5766 13.8198 62.5877 13.7358C63.27 14.1916 63.9977 14.4597 64.8499 14.4713C64.8021 14.5807 64.7746 14.6777 64.7215 14.7582C64.6027 14.9386 64.4776 15.1165 64.3434 15.2863C63.6529 16.1601 63.0015 17.06 62.48 18.0472C62.2642 18.4557 62.0518 18.8646 61.974 19.3295C61.917 19.6719 61.9735 19.9796 62.1701 20.2699C62.6954 21.0454 62.9479 21.9129 63.0387 22.8374C63.1614 24.0913 63.0097 25.3196 62.7191 26.5363C62.5167 27.3822 62.3661 28.2333 62.3999 29.1077C62.4013 29.1351 62.3931 29.1631 62.3849 29.2258C62.3289 29.1646 62.2845 29.125 62.2512 29.0778C61.7751 28.3987 61.3067 27.7144 60.8238 27.0407C60.4955 26.5826 60.2386 26.096 60.1416 25.5366C60.1232 25.431 60.0841 25.3567 59.9735 25.3422C59.8654 25.3282 59.8359 25.4112 59.7954 25.4888C59.6022 25.8553 59.4115 26.2233 59.2053 26.5821C58.9117 27.0933 58.523 27.5288 58.0822 27.9179C57.8422 28.1306 57.6027 28.3433 57.3623 28.555C57.3299 28.5834 57.2932 28.6076 57.228 28.6563C57.2435 28.3737 57.2478 28.1321 57.2715 27.8924C57.3478 27.1242 57.2396 26.3699 57.1146 25.6161C57.0851 25.4396 57.0581 25.2627 57.0252 25.0871C56.9431 24.6401 56.974 24.2089 57.1686 23.7899C57.2623 23.5878 57.1749 23.4952 56.9422 23.527C56.4381 23.596 55.9345 23.6664 55.4308 23.7373C54.6979 23.84 53.963 23.8183 53.2285 23.7701C52.7563 23.7387 52.287 23.7137 51.8229 23.8347C51.7988 23.841 51.7698 23.8289 51.7191 23.8226C51.8524 23.2676 52.0132 22.7313 52.2358 22.2148C52.6153 21.3357 53.1831 20.6133 54.0127 20.1127C54.0528 20.0886 54.1035 20.0664 54.1237 20.0297C54.1479 19.9858 54.1595 19.9222 54.146 19.8769C54.1368 19.8465 54.0745 19.8166 54.0344 19.8142C53.9504 19.8098 53.8654 19.8219 53.7809 19.8296C53.2744 19.8788 52.7684 19.9333 52.2614 19.9772C51.6747 20.0278 51.0938 19.9719 50.5163 19.8677C50.4816 19.8614 50.4492 19.8412 50.3613 19.8045ZM60.1324 19.1327C60.0267 19.0305 59.9634 18.9504 59.8828 18.8945C59.4516 18.595 58.9726 18.4089 58.4608 18.2946C57.5931 18.1012 56.7374 18.1972 55.8847 18.3891C55.7568 18.418 55.6269 18.4518 55.5095 18.5073C55.4564 18.5328 55.3956 18.6206 55.4004 18.6741C55.4096 18.771 55.5071 18.7595 55.5824 18.746C55.6283 18.7378 55.6713 18.7151 55.7167 18.704C56.4057 18.5347 57.1001 18.4122 57.8137 18.4701C58.539 18.5294 59.2217 18.7175 59.8214 19.1496C59.8591 19.1766 59.9011 19.2215 59.9393 19.2195C59.9904 19.2166 60.0402 19.1766 60.1324 19.1327Z" fill="#118524"/>
<path d="M62.8691 13.582C63.507 13.597 64.0941 13.7783 64.6374 14.1053C63.9874 14.139 63.4041 13.9432 62.8691 13.582Z" fill="#004E37"/>
<mask id="mask1_533_187" style="mask-type:luminance" maskUnits="userSpaceOnUse" x="14" y="13" width="52" height="56">
<path d="M14.7188 13.2222H65.2448V68.7777H14.7188V13.2222Z" fill="white"/>
</mask>
<g mask="url(#mask1_533_187)">
<path d="M50.7185 20.1767C50.4462 20.1044 50.2178 20.0504 49.9942 19.9809C49.9324 19.9617 49.8494 19.9057 49.8378 19.8527C49.8151 19.7533 49.8798 19.6738 49.9846 19.6443C51.1236 19.3212 52.154 18.7343 53.2501 18.3056C54.226 17.9237 55.2081 17.574 56.2385 17.3652C57.59 17.0922 58.8624 17.2866 60.0666 17.9502C60.3708 18.1175 60.464 18.1069 60.7083 17.8614C60.9908 17.5774 61.1994 17.2408 61.3785 16.8863C61.8256 16.0043 62.1042 15.0692 62.2317 14.0888C62.2592 13.8742 62.2732 13.6576 62.2969 13.4426C62.3167 13.2665 62.3645 13.2207 62.5258 13.227C63.3693 13.2603 64.1622 13.4754 64.8976 13.8925C64.9787 13.9388 65.0598 13.9923 65.124 14.0584C65.2119 14.1491 65.2443 14.2518 65.2109 14.3921C65.1342 14.721 64.9898 15.0108 64.7894 15.278C64.3722 15.8369 63.9517 16.3935 63.5417 16.9572C63.1356 17.5152 62.787 18.1093 62.5031 18.7372C62.3882 18.9914 62.3235 19.2706 62.2559 19.5431C62.2143 19.7109 62.2539 19.8744 62.3549 20.0268C63.041 21.0636 63.3288 22.2152 63.3645 23.4488C63.3978 24.5913 63.2085 25.7014 62.9401 26.8024C62.7378 27.6319 62.6349 28.4696 62.6817 29.3232C62.6924 29.5204 62.7204 29.7167 62.7363 29.9134C62.7498 30.0798 62.7049 30.1584 62.5914 30.1734C62.4534 30.1912 62.4099 30.0948 62.3862 29.9887C62.2858 29.5431 62.0043 29.1958 61.7566 28.8303C61.7489 28.8187 61.7233 28.8187 61.6919 28.8086C61.562 29.2672 61.4369 29.7268 61.3022 30.184C60.6948 32.2466 59.9063 34.2445 59.0922 36.2314C57.3341 40.5244 55.1477 44.5927 52.6543 48.5028C51.0174 51.0704 49.367 53.6273 47.523 56.053C45.5433 58.6576 43.3574 61.0718 40.8649 63.1981C39.2821 64.5484 37.594 65.7468 35.7268 66.6785C33.8301 67.6251 31.8272 68.226 29.7288 68.5192C28.4835 68.6933 27.2319 68.7502 25.9765 68.7199C24.5733 68.6861 23.1981 68.4657 21.8766 67.9835C20.0895 67.3315 18.6656 66.1851 17.5082 64.694C16.2585 63.0847 15.4956 61.2565 15.0924 59.2706C14.8331 57.9907 14.7163 56.6958 14.7646 55.3928C14.907 51.5222 16.2324 48.1378 18.9253 45.3103C20.47 43.689 22.2073 42.3122 24.0837 41.1012C25.7481 40.0268 27.4864 39.0801 29.2242 38.133C30.7133 37.3208 32.1976 36.5 33.6307 35.59C35.9504 34.1167 38.0571 32.3792 39.9779 30.4227C41.5558 28.8153 43.0894 27.1641 44.6369 25.5264C45.9981 24.0864 47.394 22.684 48.9604 21.4629C49.4433 21.0868 49.9469 20.7362 50.4409 20.374C50.5162 20.319 50.593 20.266 50.7185 20.1767ZM53.3964 20.1502C53.2622 20.1623 53.1159 20.1777 52.9691 20.1873C52.4336 20.224 51.8991 20.3031 51.3612 20.2288C51.2221 20.21 51.1067 20.2443 50.9923 20.3272C50.4046 20.7526 49.7991 21.1552 49.2245 21.5975C47.6659 22.7968 46.2757 24.179 44.9295 25.6074C43.5133 27.1096 42.1073 28.6215 40.6765 30.1097C37.9528 32.942 34.8794 35.3248 31.4313 37.2205C29.7799 38.1286 28.1286 39.0362 26.4869 39.9621C24.6037 41.0241 22.7925 42.1955 21.1359 43.5925C19.8558 44.6723 18.6854 45.8562 17.7023 47.2172C16.0229 49.5416 15.2276 52.1689 15.0514 55.0007C14.9611 56.4557 15.0765 57.901 15.3773 59.3285C15.7979 61.3231 16.5912 63.1474 17.8843 64.7379C18.963 66.0646 20.2691 67.0932 21.8804 67.6989C23.1532 68.1773 24.4806 68.4078 25.836 68.4493C27.2894 68.4932 28.7379 68.4204 30.1768 68.1817C32.1063 67.8614 33.9484 67.2779 35.694 66.3954C37.5819 65.441 39.2845 64.2146 40.8784 62.8335C43.4916 60.5698 45.7644 57.995 47.8151 55.2182C50.0459 52.1979 52.0497 49.0275 53.9874 45.8157C56.31 41.9654 58.2177 37.9135 59.8034 33.7073C60.3751 32.1906 60.9155 30.6653 61.3297 29.0975C61.3853 28.8882 61.4954 28.6625 61.4577 28.4686C61.4176 28.2641 61.2356 28.0847 61.1072 27.9C60.6721 27.2745 60.1863 26.6785 59.9666 25.9286C59.9637 25.918 59.942 25.9127 59.9164 25.8972C59.8416 26.0289 59.7648 26.1572 59.6938 26.2888C59.2684 27.0783 58.7132 27.7568 58.0149 28.3259C57.6876 28.5925 57.3993 28.907 57.0922 29.1982C57.0661 29.2233 57.0309 29.2388 57.0034 29.2561C56.8455 29.2036 56.8715 29.0917 56.886 28.9754C56.9319 28.6022 56.9802 28.2284 57.0116 27.8532C57.0782 27.0575 56.957 26.2753 56.8266 25.4936C56.746 25.0104 56.66 24.5252 56.8126 24.0386C56.831 23.9798 56.8406 23.9185 56.8624 23.8245C56.6118 23.8592 56.3901 23.8891 56.169 23.9205C55.1864 24.0589 54.2023 24.1187 53.2091 24.027C52.6857 23.9788 52.155 23.9412 51.6461 24.1553C51.4809 24.2253 51.3998 24.1495 51.4124 23.9658C51.4167 23.9002 51.4302 23.8346 51.4495 23.7719C51.5823 23.3302 51.7064 22.8856 51.8561 22.4496C52.0536 21.8748 52.3414 21.3452 52.7349 20.8794C52.9411 20.6349 53.1642 20.4048 53.3964 20.1502ZM50.3612 19.8044C50.4491 19.8411 50.4814 19.8613 50.5162 19.8676C51.0937 19.9718 51.6746 20.0277 52.2612 19.9771C52.7682 19.9332 53.2743 19.8787 53.7808 19.8295C53.8653 19.8218 53.9503 19.8097 54.0343 19.8141C54.0744 19.8165 54.1366 19.8464 54.1458 19.8768C54.1593 19.9221 54.1477 19.9858 54.1236 20.0297C54.1033 20.0663 54.0526 20.0885 54.0125 20.1126C53.183 20.6132 52.6152 21.3356 52.2356 22.2147C52.013 22.7312 51.8522 23.2675 51.719 23.8226C51.7697 23.8288 51.7987 23.8409 51.8228 23.8346C52.2868 23.7136 52.7562 23.7387 53.2284 23.77C53.9628 23.8182 54.6977 23.8399 55.4307 23.7372C55.9343 23.6663 56.4379 23.5959 56.942 23.527C57.1748 23.4951 57.2622 23.5877 57.1685 23.7898C56.9739 24.2084 56.943 24.64 57.0251 25.087C57.0579 25.2626 57.085 25.4396 57.1144 25.6161C57.2395 26.3698 57.3476 27.1241 57.2713 27.8923C57.2477 28.132 57.2433 28.3736 57.2279 28.6562C57.2931 28.6075 57.3298 28.5834 57.3621 28.5549C57.6026 28.3432 57.8421 28.1305 58.0821 27.9179C58.5229 27.5287 58.9116 27.0932 59.2052 26.582C59.4114 26.2232 59.6021 25.8548 59.7952 25.4888C59.8358 25.4111 59.8652 25.3282 59.9734 25.3422C60.084 25.3566 60.1231 25.4309 60.1414 25.5365C60.2385 26.0959 60.4954 26.5825 60.8237 27.0406C61.3066 27.7144 61.7749 28.3987 62.251 29.0777C62.2844 29.1249 62.3288 29.1645 62.3848 29.2257C62.393 29.163 62.4012 29.1351 62.3998 29.1076C62.366 28.2333 62.5166 27.3821 62.7189 26.5362C63.0096 25.3195 63.1612 24.0912 63.0386 22.8373C62.9478 21.9129 62.6953 21.0453 62.1699 20.2698C61.9734 19.9795 61.9169 19.6718 61.9739 19.3294C62.0516 18.8645 62.2641 18.4556 62.4799 18.0471C63.0014 17.0599 63.6528 16.1601 64.3433 15.2862C64.4775 15.1165 64.6025 14.9385 64.7213 14.7581C64.7744 14.6776 64.802 14.5807 64.8498 14.4712C63.9975 14.4596 63.2699 14.1915 62.5876 13.7358C62.5765 13.8197 62.5697 13.866 62.5649 13.9123C62.4543 14.9023 62.2168 15.8582 61.7967 16.7648C61.5692 17.2548 61.294 17.7139 60.9048 18.0963C60.6185 18.3784 60.295 18.4078 59.9584 18.2149C59.0545 17.696 58.0763 17.4612 57.0275 17.5514C56.3191 17.6121 55.633 17.7775 54.956 17.9849C53.3945 18.4643 51.9363 19.2045 50.3612 19.8044ZM62.8691 13.5819C63.4041 13.9431 63.9874 14.1389 64.6373 14.1052C64.0941 13.7782 63.5069 13.5969 62.8691 13.5819ZM17.5391 57.2533C17.5492 57.3589 17.528 57.548 17.697 57.5369C17.8833 57.5243 17.809 57.3435 17.7959 57.2403C17.7008 56.4991 17.7124 55.7579 17.738 55.0128C17.781 53.7531 18.0359 52.5489 18.5724 51.4065C19.6153 49.1852 21.076 47.2688 22.865 45.6026C24.1778 44.3805 25.5883 43.2743 27.1107 42.3232C29.0919 41.0858 31.089 39.8734 33.0923 38.6711C33.9557 38.1527 34.8514 37.6874 35.7316 37.1974C35.8142 37.1516 35.9006 37.1091 35.9706 37.0488C36.0044 37.0204 36.0291 36.9418 36.0131 36.9066C35.9977 36.8738 35.9243 36.8579 35.8745 36.8535C35.8422 36.8506 35.806 36.8796 35.7731 36.8969C35.0822 37.263 34.3777 37.6059 33.7041 38.0008C32.0624 38.9629 30.4284 39.939 28.8031 40.9281C27.0552 41.9919 25.3628 43.1334 23.7805 44.4394C21.8176 46.0593 20.1832 47.9492 18.9113 50.1507C18.3908 51.0515 17.9731 51.9977 17.724 53.0114C17.5024 53.9142 17.471 54.8368 17.4251 55.7622C17.4613 56.2594 17.4908 56.7571 17.5391 57.2533ZM59.8826 18.8944C59.4514 18.595 58.9724 18.4088 58.4606 18.2945C57.5929 18.1011 56.7373 18.1971 55.8846 18.389C55.7566 18.418 55.6267 18.4517 55.5094 18.5072C55.4563 18.5327 55.3954 18.6205 55.4003 18.674C55.4095 18.771 55.507 18.7594 55.5823 18.7459C55.6282 18.7377 55.6712 18.715 55.7165 18.7039C56.4056 18.5347 57.0999 18.4122 57.8136 18.47C58.5388 18.5294 59.2216 18.7174 59.8213 19.1495C59.859 19.1765 59.901 19.2214 59.9391 19.2195C59.9903 19.2166 60.04 19.1765 60.1323 19.1327C60.0265 19.0304 59.9633 18.9504 59.8826 18.8944Z" fill="black"/>
</g>
<mask id="mask2_533_187" style="mask-type:luminance" maskUnits="userSpaceOnUse" x="43" y="30" width="4" height="3">
<path d="M43.3374 30.0123H46.1805V32.8518H43.3374V30.0123Z" fill="white"/>
</mask>
<g mask="url(#mask2_533_187)">
<mask id="mask3_533_187" style="mask-type:luminance" maskUnits="userSpaceOnUse" x="42" y="29" width="13" height="9">
<path d="M44.532 29.4471L54.7319 35.1334L53.15 37.9633L42.9502 32.2765L44.532 29.4471Z" fill="white"/>
</mask>
<g mask="url(#mask3_533_187)">
<mask id="mask4_533_187" style="mask-type:luminance" maskUnits="userSpaceOnUse" x="42" y="29" width="13" height="9">
<path d="M44.532 29.4471L54.7319 35.1334L53.15 37.9633L42.9502 32.2765L44.532 29.4471Z" fill="white"/>
</mask>
<g mask="url(#mask4_533_187)">
<mask id="mask5_533_187" style="mask-type:luminance" maskUnits="userSpaceOnUse" x="42" y="29" width="13" height="9">
<path d="M44.532 29.4471L54.7319 35.1334L53.15 37.9633L42.9502 32.2765L44.532 29.4471Z" fill="white"/>
</mask>
<g mask="url(#mask5_533_187)">
<path d="M45.8227 32.5721C45.8015 32.6097 45.7899 32.6372 45.7725 32.6603C45.6977 32.7578 45.5692 32.7809 45.463 32.7177C45.3611 32.6575 45.3206 32.5311 45.3679 32.4211C45.406 32.3324 45.4466 32.2451 45.4813 32.1549C45.5943 31.8622 45.6735 31.5613 45.6822 31.2444C45.6856 31.1147 45.6755 30.9855 45.6368 30.8601C45.6146 30.7868 45.5837 30.7183 45.534 30.6585C45.476 30.5896 45.4017 30.5505 45.3123 30.5404C45.2114 30.5288 45.1149 30.5481 45.0207 30.5809C44.8923 30.6252 44.7749 30.6913 44.6648 30.7685C44.4645 30.9088 44.2921 31.0781 44.1351 31.2633C44.0337 31.3833 43.9425 31.5111 43.8546 31.6413C43.7996 31.7233 43.7189 31.76 43.6204 31.7441C43.5263 31.7286 43.4611 31.6732 43.4307 31.582C43.4075 31.5126 43.4162 31.4446 43.4558 31.3838C43.6774 31.0458 43.9352 30.7386 44.253 30.4849C44.4123 30.3571 44.5832 30.2481 44.773 30.1695C44.9309 30.1044 45.0946 30.0634 45.2679 30.0663C45.4041 30.0682 45.5335 30.0986 45.6542 30.1628C45.8053 30.2423 45.9169 30.3614 45.999 30.509C46.0714 30.6392 46.1124 30.7791 46.1351 30.9247C46.1699 31.1475 46.1602 31.3694 46.1264 31.5902C46.084 31.8666 46.0052 32.1328 45.899 32.3903C45.8725 32.4554 45.8445 32.52 45.8227 32.5721Z" fill="black"/>
</g>
</g>
</g>
</g>
<mask id="mask6_533_187" style="mask-type:luminance" maskUnits="userSpaceOnUse" x="51" y="34" width="4" height="4">
<path d="M51.2485 34.3334H54.0916V37.1729H51.2485V34.3334Z" fill="white"/>
</mask>
<g mask="url(#mask6_533_187)">
<mask id="mask7_533_187" style="mask-type:luminance" maskUnits="userSpaceOnUse" x="42" y="29" width="13" height="9">
<path d="M44.532 29.4471L54.7319 35.1334L53.15 37.9633L42.9502 32.2765L44.532 29.4471Z" fill="white"/>
</mask>
<g mask="url(#mask7_533_187)">
<mask id="mask8_533_187" style="mask-type:luminance" maskUnits="userSpaceOnUse" x="42" y="29" width="13" height="9">
<path d="M44.532 29.4471L54.7319 35.1334L53.15 37.9633L42.9502 32.2765L44.532 29.4471Z" fill="white"/>
</mask>
<g mask="url(#mask8_533_187)">
<mask id="mask9_533_187" style="mask-type:luminance" maskUnits="userSpaceOnUse" x="42" y="29" width="13" height="9">
<path d="M44.532 29.4471L54.7319 35.1334L53.15 37.9633L42.9502 32.2765L44.532 29.4471Z" fill="white"/>
</mask>
<g mask="url(#mask9_533_187)">
<mask id="mask10_533_187" style="mask-type:luminance" maskUnits="userSpaceOnUse" x="51" y="33" width="4" height="5">
<path d="M52.4185 33.8439L54.7314 35.1329L53.5634 37.2225L51.251 35.9335L52.4185 33.8439Z" fill="white"/>
</mask>
<g mask="url(#mask10_533_187)">
<path d="M53.5615 34.4809C53.7107 34.5696 53.8208 34.6921 53.9005 34.8426C53.9806 34.9935 54.0217 35.1551 54.041 35.3229C54.0675 35.5529 54.0526 35.781 54.0125 36.0077C53.9637 36.2826 53.8831 36.5483 53.7744 36.8049C53.745 36.8738 53.715 36.9433 53.6817 37.0103C53.645 37.0846 53.5818 37.1256 53.4987 37.1347C53.3268 37.153 53.1916 36.9847 53.2496 36.8237C53.2708 36.7639 53.3003 36.707 53.3249 36.6481C53.4379 36.3824 53.5219 36.108 53.5605 35.8206C53.5784 35.6909 53.5856 35.5602 53.576 35.4285C53.5678 35.3234 53.5509 35.2197 53.5098 35.1213C53.4953 35.0866 53.4784 35.0523 53.4582 35.0205C53.3872 34.9053 53.2819 34.8503 53.1467 34.8517C53.0632 34.8522 52.9835 34.8715 52.9058 34.9004C52.7686 34.9511 52.646 35.0258 52.5301 35.1126C52.3534 35.2452 52.1994 35.4005 52.0589 35.5698C51.971 35.6754 51.8899 35.7859 51.8145 35.9011C51.8 35.9228 51.7836 35.9436 51.7648 35.9614C51.6813 36.0405 51.5543 36.0448 51.4606 35.9744C51.3679 35.9035 51.3384 35.7801 51.3949 35.6788C51.4234 35.6277 51.4572 35.5795 51.491 35.5312C51.6296 35.3345 51.7822 35.1493 51.9555 34.9815C52.1173 34.8247 52.2921 34.6849 52.4896 34.574C52.6407 34.4891 52.8 34.4245 52.9729 34.396C53.1129 34.3724 53.253 34.3733 53.3901 34.4158C53.4485 34.4336 53.5045 34.4587 53.5615 34.4809Z" fill="black"/>
</g>
</g>
</g>
</g>
</g>
<mask id="mask11_533_187" style="mask-type:luminance" maskUnits="userSpaceOnUse" x="47" y="32" width="4" height="4">
<path d="M47.1694 32.9753H50.2597V35.321H47.1694V32.9753Z" fill="white"/>
</mask>
<g mask="url(#mask11_533_187)">
<mask id="mask12_533_187" style="mask-type:luminance" maskUnits="userSpaceOnUse" x="42" y="29" width="13" height="9">
<path d="M44.532 29.4471L54.7319 35.1334L53.15 37.9633L42.9502 32.2765L44.532 29.4471Z" fill="white"/>
</mask>
<g mask="url(#mask12_533_187)">
<mask id="mask13_533_187" style="mask-type:luminance" maskUnits="userSpaceOnUse" x="42" y="29" width="13" height="9">
<path d="M44.532 29.4471L54.7319 35.1334L53.15 37.9633L42.9502 32.2765L44.532 29.4471Z" fill="white"/>
</mask>
<g mask="url(#mask13_533_187)">
<mask id="mask14_533_187" style="mask-type:luminance" maskUnits="userSpaceOnUse" x="42" y="29" width="13" height="9">
<path d="M44.532 29.4471L54.7319 35.1334L53.15 37.9633L42.9502 32.2765L44.532 29.4471Z" fill="white"/>
</mask>
<g mask="url(#mask14_533_187)">
<mask id="mask15_533_187" style="mask-type:luminance" maskUnits="userSpaceOnUse" x="46" y="32" width="5" height="4">
<path d="M47.4135 32.9193L50.2455 34.4977L49.4589 35.9054L46.627 34.3265L47.4135 32.9193Z" fill="white"/>
</mask>
<g mask="url(#mask15_533_187)">
<path d="M47.9453 35.0615C47.6087 34.8657 47.3542 34.5281 47.2441 34.0859C47.1712 33.7927 47.1833 33.5004 47.2635 33.2116C47.2775 33.1614 47.2997 33.117 47.3397 33.0828C47.4165 33.0172 47.5252 33.0061 47.6126 33.0558C47.7 33.1055 47.7473 33.2038 47.7299 33.3027C47.7265 33.322 47.7207 33.3408 47.7154 33.3596C47.6502 33.6085 47.6522 33.8559 47.741 34.1004C47.8381 34.3685 48.0138 34.5725 48.2697 34.7046C48.4996 34.8233 48.7444 34.8546 48.9974 34.8136C49.2794 34.7683 49.5198 34.641 49.7255 34.4476C49.74 34.4341 49.7535 34.4201 49.769 34.4076C49.8675 34.3285 50.0056 34.3371 50.092 34.4278C50.1785 34.518 50.1814 34.6578 50.0944 34.749C49.9732 34.8763 49.8332 34.9814 49.6787 35.0678C49.3991 35.2235 49.0988 35.3045 48.7758 35.3002C48.5029 35.2959 48.2461 35.2288 47.9453 35.0615Z" fill="black"/>
</g>
</g>
</g>
</g>
</g>
</svg>
