<svg width="82" height="82" viewBox="0 0 82 82" fill="none" xmlns="http://www.w3.org/2000/svg">
<rect width="82" height="82" rx="10" fill="#F7DE8D"/>
<path d="M68.9995 44.3332C68.9995 58.693 56.4642 66 41.0016 66C25.5369 66 13 58.693 13 44.3332C13 29.9741 25.5369 14 41.0016 14C56.4642 14 68.9995 29.9741 68.9995 44.3332Z" fill="#4F4C4F"/>
<path d="M52.9339 34.2261C50.1636 34.6227 47.4491 35.6875 45.9578 38.1701C44.6623 40.3266 44.261 42.9977 43.6511 45.3985C43.4323 46.2683 42.5121 46.6985 41.6834 46.5158C39.2298 45.9688 39.4517 42.5288 38.9264 40.6654C37.9742 37.2907 34.8484 34.7555 31.6715 33.5623C27.7797 32.0998 21.1784 33.122 18.5071 36.518C16.5931 38.9549 15.8118 42.8835 16.1562 46.0793C17.3766 57.4163 28.0336 63.1791 41.0016 63.1791C54.7871 63.1791 65.962 56.6633 65.962 43.8643V43.8351C65.9524 36.7936 59.3974 33.2978 52.9339 34.2261Z" fill="white"/>
<path d="M36.8326 44.6365C37.648 44.0534 39.3442 44.0858 40.2613 44.063C42.4147 44.0141 43.5303 43.9392 45.1552 44.2876C45.9381 44.4538 47.4294 45.0077 46.3362 46.2131C44.9529 47.7441 44.046 48.7148 42.5254 49.7636C41.2922 50.6106 40.2054 49.5783 39.2692 48.7281C38.2696 47.8158 37.582 47.0309 36.6963 45.8154C36.3908 45.3953 36.5633 44.8287 36.8326 44.6365Z" fill="#F7DE8D"/>
<path d="M30.9583 42.1799C30.9583 44.0205 29.9475 45.5095 28.701 45.5095C27.4545 45.5095 26.4438 44.0205 26.4438 42.1799C26.4438 40.3425 27.4545 38.854 28.701 38.854C29.9475 38.854 30.9583 40.3425 30.9583 42.1799Z" fill="#4F4C4F"/>
<path d="M28.825 40.496C28.825 41.1146 28.4833 41.6197 28.0629 41.6197C27.6408 41.6197 27.2986 41.1146 27.2986 40.496C27.2986 39.8736 27.6408 39.3686 28.0629 39.3686C28.4833 39.3686 28.825 39.8736 28.825 40.496Z" fill="#E9E5DD"/>
<path d="M29.312 46.5647C29.312 47.1185 28.246 47.5651 26.9308 47.5651C25.6162 47.5651 24.5496 47.1185 24.5496 46.5647C24.5496 46.0108 25.6162 45.5647 26.9308 45.5647C28.246 45.5647 29.312 46.0108 29.312 46.5647Z" fill="#F58285"/>
<path d="M56.8133 42.1799C56.8133 44.0205 55.8015 45.5095 54.555 45.5095C53.3091 45.5095 52.2973 44.0205 52.2973 42.1799C52.2973 40.3425 53.3091 38.854 54.555 38.854C55.8015 38.854 56.8133 40.3425 56.8133 42.1799Z" fill="#4F4C4F"/>
<path d="M54.6791 40.496C54.6791 41.1146 54.34 41.6197 53.9158 41.6197C53.4948 41.6197 53.1521 41.1146 53.1521 40.496C53.1521 39.8736 53.4948 39.3686 53.9158 39.3686C54.34 39.3686 54.6791 39.8736 54.6791 40.496Z" fill="#E9E5DD"/>
<path d="M53.9451 46.5647C53.9451 47.1185 55.0122 47.5651 56.3269 47.5651C57.642 47.5651 58.7086 47.1185 58.7086 46.5647C58.7086 46.0108 57.642 45.5647 56.3269 45.5647C55.0122 45.5647 53.9451 46.0108 53.9451 46.5647Z" fill="#F58285"/>
<path d="M41.5631 45.5514C40.8419 45.5514 40.1335 45.4537 39.3799 45.2843C39.2431 45.2519 39.1191 45.1479 39.0605 45.0172C39.0062 44.8871 39.0701 44.6853 39.2138 44.6784L39.5858 44.6168C40.2575 44.5775 40.9297 44.5616 41.602 44.5616C42.173 44.5616 42.7441 44.5743 43.3152 44.6004C43.4914 44.6104 43.6708 44.6232 43.8209 44.7082C43.9709 44.7958 44.0785 44.9816 44.0199 45.1447C43.9481 45.3401 43.6937 45.3921 43.4845 45.4118L42.271 45.519C42.0325 45.5419 41.7978 45.5514 41.5631 45.5514Z" fill="#F9EBB9"/>
<path d="M22.0747 24.7747C21.7436 25.1305 21.445 25.515 21.1826 25.9244C21.0533 26.1267 21.1118 26.3949 21.3141 26.5239C21.5163 26.6535 21.7851 26.5946 21.915 26.3928C22.1492 26.0269 22.4158 25.6828 22.7118 25.3652C22.8752 25.1894 22.865 24.9149 22.6889 24.7519C22.5132 24.5883 22.2381 24.5989 22.0747 24.7747Z" fill="#474446"/>
<path d="M24.7353 22.7005C24.5198 22.923 24.3037 23.1465 24.0881 23.3701C23.9215 23.5427 23.9268 23.8178 24.0998 23.984C24.2728 24.1502 24.548 24.1449 24.7146 23.9723C24.9291 23.7493 25.1451 23.5257 25.3607 23.3032C25.5273 23.1306 25.5225 22.8561 25.3495 22.6893C25.1771 22.5231 24.9019 22.5279 24.7353 22.7005Z" fill="#474446"/>
<path d="M24.6411 25.1868C24.4846 25.3647 24.3271 25.5442 24.1701 25.7242C24.0125 25.9047 24.0312 26.1788 24.2121 26.3365C24.3931 26.4937 24.6677 26.4745 24.8253 26.2945C24.9807 26.1161 25.1377 25.9377 25.2952 25.7587C25.4533 25.5782 25.4347 25.3041 25.2543 25.1464C25.0738 24.9882 24.7992 25.0062 24.6411 25.1868Z" fill="#474446"/>
</svg>
