<svg width="82" height="82" viewBox="0 0 82 82" fill="none" xmlns="http://www.w3.org/2000/svg">
<rect width="82" height="82" rx="10" fill="#EFE1B0"/>
<path d="M29.475 70.1907C30.5283 68.8333 28.5565 66.9186 27.9145 66.6049C26.9705 66.1444 26.1652 67.1684 26.0533 67.8019C25.9124 68.5424 26.3688 69.3538 26.8801 69.8647C27.5888 70.5737 28.8194 71.0363 29.475 70.1907Z" fill="black"/>
<path d="M30.4427 69.0967C32.7212 66.8573 34.9014 64.5184 37.1172 62.2177C37.8611 61.5903 36.9689 60.6404 36.3694 61.3795C35.3815 62.4171 33.3971 64.5022 32.0199 65.9201C30.9908 67.0303 29.827 68.0403 28.8303 69.1659C28.6219 69.5598 29.0305 70.0479 29.4588 69.9388C29.866 69.7907 30.1135 69.3666 30.4427 69.0967Z" fill="black"/>
<path d="M40.8154 72.5444C41.8687 71.1871 39.8969 69.2724 39.2544 68.9586C38.3109 68.4981 37.5052 69.5221 37.3937 70.1557C37.2528 70.8961 37.7088 71.7076 38.2205 72.2185C38.9306 72.9274 40.1594 73.3901 40.8154 72.5444Z" fill="black"/>
<path d="M41.7844 71.4504C44.0625 69.211 46.2432 66.8722 48.4585 64.5715C49.2024 63.944 48.3102 62.9941 47.7107 63.7333C46.7233 64.7708 44.7388 66.856 43.3617 68.2738C42.3321 69.3841 41.1687 70.394 40.1721 71.5196C39.9636 71.9135 40.3718 72.4016 40.8005 72.2925C41.2065 72.1444 41.4553 71.7203 41.7844 71.4504Z" fill="black"/>
<path d="M61.9941 61.5802C61.8322 59.8701 59.0814 59.821 58.399 60.0318C57.3949 60.3407 57.509 61.638 57.8623 62.1761C58.2682 62.8123 59.1569 63.0923 59.8793 63.1159C60.8807 63.1483 62.095 62.6453 61.9941 61.5802Z" fill="black"/>
<path d="M58.1063 60.3205C56.4698 58.047 54.8412 54.4677 53.895 52.4426C53.4553 51.3924 53.0204 50.3399 52.5916 49.2849C52.5342 49.0877 52.4736 48.873 52.2774 48.7705C51.868 48.5133 51.3111 48.9374 51.4559 49.4014C52.4034 51.9168 53.5128 54.3674 54.7407 56.7588C55.4521 58.2091 56.2297 59.6291 57.1772 60.9405C57.391 61.1889 57.5055 61.5714 57.8434 61.6718C58.1879 61.7734 58.5561 61.4913 58.5522 61.1324C58.5447 60.8112 58.2608 60.5852 58.1063 60.3205Z" fill="black"/>
<path d="M20.0059 61.5802C20.1682 59.8701 22.919 59.821 23.6014 60.0318C24.6055 60.3407 24.4909 61.638 24.1381 62.1761C23.7322 62.8123 22.8435 63.0923 22.1211 63.1159C21.1184 63.1483 19.9054 62.6453 20.0059 61.5802Z" fill="black"/>
<path d="M23.8941 60.3205C25.5306 58.047 27.1592 54.4677 28.1053 52.4426C28.5451 51.3924 28.98 50.3399 29.4087 49.2849C29.4662 49.0877 29.5268 48.873 29.7225 48.7705C30.1324 48.5133 30.6893 48.9374 30.5445 49.4014C29.597 51.9168 28.4876 54.3674 27.2597 56.7588C26.5483 58.2091 25.7706 59.6291 24.8227 60.9405C24.6094 61.1889 24.4949 61.5714 24.157 61.6718C23.8125 61.7734 23.4443 61.4913 23.4482 61.1324C23.4544 60.8112 23.7396 60.5852 23.8941 60.3205Z" fill="black"/>
<path d="M50.6164 14.526C50.5106 14.5313 50.4026 14.5401 50.2934 14.551C50.2921 14.5475 50.2907 14.5449 50.2907 14.5409C50.2846 14.5449 50.2785 14.5488 50.2732 14.5523C48.7666 14.718 46.8966 15.4773 45.7793 16.1936C46.0747 13.6892 46.6956 11.4634 47.6554 8.95542C47.7673 8.6693 47.9394 8.40203 47.985 8.09621C48.0087 7.81491 47.7537 7.55772 47.4698 7.61556C47.3627 7.63702 47.2635 7.69705 47.188 7.77592C46.8361 8.16368 46.5372 8.59657 46.2278 9.01807C44.8608 10.8802 43.8729 12.9877 43.2432 15.2021C42.3839 12.812 41.4878 10.3982 39.7964 8.45855C39.4168 8.01208 39.0346 7.55641 38.5536 7.2164C38.3513 7.0797 38.1011 6.93818 37.8545 7.02844C37.3156 7.23261 37.5618 7.88765 37.7439 8.27409C37.9866 8.83755 38.2205 9.40583 38.4241 9.9855C39.0688 11.8362 39.6305 14.4231 40.0553 16.7457C39.1351 15.1745 38.052 13.6979 36.6318 12.5386C36.2399 12.2052 35.2394 11.6329 35.0937 12.4571C35.1077 12.8199 35.414 13.088 35.5812 13.393C35.6681 13.4859 36.2676 14.5147 36.5125 14.9716C37.3797 16.5875 37.8132 17.9059 38.2771 19.5231C38.4781 20.2097 38.7594 21.1793 38.9152 21.922C37.8347 20.6536 35.8239 18.6464 34.2743 17.6851C33.8837 17.4406 33.4488 17.1786 32.9714 17.2211C32.5856 17.236 32.3315 17.6628 32.5114 18.0089C32.7401 18.4567 33.1798 18.7494 33.5318 19.0955C34.1427 19.6489 34.7294 20.2286 35.2837 20.8393C36.451 22.1319 37.2576 23.1856 38.0283 24.5746C38.9064 26.1239 39.236 27.4817 39.7411 29.006C39.7701 29.1177 39.8241 29.1979 39.893 29.2505C39.9509 29.3583 40.0575 29.4411 40.2186 29.4564C40.7149 29.5594 42.527 29.7022 43.4569 29.661C43.6368 29.6146 43.7321 29.449 43.7386 29.2794C43.819 29.1252 43.8391 28.932 43.9054 28.7725C44.1231 28.0951 44.3504 27.4212 44.5979 26.7552C45.3444 24.8002 45.9654 23.3298 47.3728 21.759C47.7485 21.2499 49.1172 20.2421 49.6259 19.354C49.8071 19.0653 49.6737 18.6188 49.2994 18.6026C48.7451 18.6815 48.2777 19.103 47.7827 19.3488C47.0937 19.7164 46.2607 20.3701 45.5783 20.9208C46.2278 19.6511 47.0902 18.4142 47.9938 17.5335C48.6946 16.797 49.5091 16.1836 50.3035 15.5522C50.601 15.2976 50.5646 15.3892 50.7849 15.1973C50.9872 14.9966 50.8876 14.6176 50.6164 14.526Z" fill="#537929"/>
<path d="M54.7218 48.9773C54.7245 49.0364 54.7218 49.0951 54.7218 49.153C54.7192 49.4264 54.717 49.7199 54.7082 50.0223V50.0564C54.6666 51.7074 54.5323 53.7426 54.1311 55.8326V55.8352C54.0921 56.0424 54.0495 56.2492 54.0056 56.4565C53.9666 56.6431 53.9214 56.8276 53.8801 57.0147C53.8573 57.1036 53.8345 57.1926 53.8121 57.2833C53.3105 59.2593 52.539 61.22 51.3488 62.889C51.1895 63.112 51.021 63.3306 50.8476 63.5427C49.6864 64.9566 48.1772 66.1107 46.2177 66.8095C46.2177 66.8095 46.2177 66.8095 46.2155 66.8095C45.8043 66.9576 45.376 67.0869 44.9222 67.1898C43.5473 67.5084 41.9806 67.6249 40.1945 67.4908C38.5273 67.3655 36.9149 67.1697 35.4254 66.703C35.0059 66.5751 34.5947 66.4209 34.1966 66.2425C32.8533 65.6414 31.6403 64.7471 30.6226 63.3893C30.458 63.1685 30.2983 62.9367 30.146 62.6931C29.2249 61.2402 28.495 59.3342 28.0075 56.825C28.0048 56.8201 28.0022 56.814 28.0048 56.8088C27.9482 56.5354 27.8982 56.2532 27.8539 55.9644C27.8289 55.8326 27.8087 55.7024 27.7863 55.5679V55.5653C27.6906 54.9282 27.6077 54.2583 27.5397 53.548C27.4532 52.642 27.3891 51.7337 27.3439 50.8228C27.3299 50.5244 27.3163 50.2282 27.3075 49.9346C27.3049 49.8667 27.3022 49.8006 27.2987 49.734V49.7313C27.29 49.5057 27.2847 49.2809 27.2785 49.0601C27.2759 48.926 27.2724 48.7981 27.2724 48.6662V48.6636C27.2307 46.5508 27.2974 44.64 27.4519 42.9098C27.4633 42.7959 27.4747 42.6802 27.4857 42.5685C27.5085 42.3503 27.5309 42.1334 27.5563 41.92C27.5651 41.8223 27.5765 41.722 27.5901 41.6264C27.8249 39.639 28.1835 37.9153 28.6206 36.412C28.7022 36.1299 28.7851 35.8565 28.8755 35.5879C28.9098 35.4788 28.9462 35.3697 28.9852 35.2641V35.2615C29.1055 34.9066 29.2341 34.5652 29.3657 34.2393C30.0016 32.6404 30.7367 31.3632 31.4933 30.341C31.6579 30.1176 31.8264 29.9055 31.9949 29.7062C34.018 27.2744 36.0929 26.523 36.8658 26.1905C36.8745 26.1878 36.8794 26.1817 36.8881 26.1791C36.8881 26.1791 36.8881 26.1791 36.8908 26.1791C37.1936 26.0511 37.5319 25.9495 37.89 25.8745C39.5248 25.5166 41.6185 25.6309 43.0685 25.8579C44.0678 26.0148 44.9802 26.247 45.8144 26.5458C46.1563 26.6685 46.4832 26.803 46.7975 26.9506C48.5353 27.7498 49.8901 28.8816 50.9508 30.2569C51.1241 30.4799 51.29 30.71 51.4458 30.947C52.3051 32.2404 52.9401 33.7108 53.411 35.3031V35.3057C53.4588 35.4648 53.504 35.6242 53.5457 35.7859C53.5821 35.9139 53.6159 36.0431 53.6462 36.1711C53.705 36.4006 53.7603 36.6315 53.8108 36.8677C54.1777 38.5226 54.3988 40.2713 54.5296 42.0567V42.0593C54.5573 42.3919 54.5775 42.7218 54.5977 43.0566C54.6025 43.1407 54.6064 43.2274 54.6113 43.3138V43.3164C54.6275 43.6288 54.6429 43.9425 54.6529 44.261C54.7003 45.4817 54.717 46.7063 54.7232 47.9161C54.7245 48.2307 54.7245 48.5882 54.7218 48.9773Z" fill="#E8BD2E"/>
<path d="M46.2155 66.8095C45.8043 66.9576 45.376 67.0869 44.9222 67.1898C43.8391 66.703 42.7784 66.161 41.7116 65.6414C41.1661 65.3706 40.6259 65.0907 40.0878 64.8032C39.7775 64.6416 39.4695 64.4733 39.164 64.3002C37.6386 63.4533 36.1495 62.5476 34.6877 61.5977C34.4104 61.4159 34.1361 61.2341 33.8622 61.0531H33.8596C33.0179 60.4888 32.1832 59.9104 31.3577 59.3207C30.229 58.5127 29.1094 57.6833 28.0185 56.8188C28.0136 56.8188 28.0097 56.814 28.0048 56.8074C27.9482 56.534 27.8982 56.2519 27.8539 55.9631C27.8289 55.8312 27.8087 55.7011 27.7863 55.5666C27.907 55.6648 28.0299 55.7651 28.1532 55.8602C28.4156 56.0722 28.682 56.2817 28.9488 56.4863C29.2766 56.7413 29.6058 56.9919 29.9362 57.2377C31.4819 58.401 33.0969 59.5463 34.7571 60.6356H34.7597C35.037 60.82 35.3135 61.0018 35.594 61.1775C37.072 62.1274 38.5834 63.0331 40.1115 63.8739H40.1141C40.4222 64.0417 40.7277 64.2087 41.0353 64.3681C42.7534 65.2826 44.4886 66.1045 46.2155 66.8095Z" fill="#E6A228"/>
<path d="M51.3488 62.889C51.1895 63.112 51.021 63.3306 50.8476 63.5427C49.3305 63.0029 47.8468 62.3746 46.3937 61.6819C46.0834 61.5364 45.7732 61.3857 45.4651 61.2314C43.8506 60.4323 42.2659 59.5603 40.7062 58.6582C40.4209 58.4899 40.1383 58.3256 39.853 58.1574H39.8504C39.5059 57.9532 39.164 57.7499 38.8235 57.5453C37.2111 56.573 35.6216 55.5644 34.0545 54.5243C33.778 54.3398 33.5028 54.1553 33.229 53.9682C31.2809 52.6547 29.3631 51.2859 27.4883 49.872C27.4242 49.8242 27.3628 49.7791 27.3009 49.7327V49.73C27.2922 49.5044 27.2873 49.2796 27.2812 49.0588C27.2785 48.9247 27.2746 48.7968 27.2746 48.6649C27.3926 48.7538 27.5098 48.8432 27.6305 48.9308C27.8969 49.1315 28.162 49.3335 28.431 49.532H28.4332C29.1696 50.0766 29.9112 50.616 30.6564 51.1466C31.8492 52.0049 33.0078 52.8115 34.1615 53.5892C34.4354 53.7763 34.7066 53.9582 34.9818 54.14C36.857 55.3835 38.7383 56.5516 40.7312 57.7061C40.7979 57.7446 40.8681 57.7876 40.9388 57.8261C41.1547 57.9519 41.3697 58.0772 41.5856 58.1977C43.1528 59.0972 44.7463 59.9556 46.3727 60.7407C46.6829 60.8914 46.9971 61.0395 47.31 61.1824C48.3067 61.6429 49.3196 62.0771 50.3474 62.471C50.5712 62.5599 50.7945 62.6467 51.0223 62.722C51.1417 62.7509 51.2646 62.7987 51.3488 62.889Z" fill="#E6A228"/>
<path d="M54.0056 56.4552C53.9666 56.6418 53.9214 56.8263 53.8801 57.0134C53.8573 57.1023 53.8345 57.1917 53.8121 57.282C53.7419 57.2565 53.6725 57.2342 53.6045 57.2092C53.2881 57.0997 52.9752 56.9884 52.661 56.874C50.9481 56.2506 49.2656 55.5491 47.6089 54.7977C47.3039 54.6583 47.002 54.5177 46.6965 54.3762C44.7577 53.4679 42.8451 52.4952 40.9497 51.4979C40.9045 51.4752 40.8633 51.4528 40.8181 51.4314C40.5074 51.2745 40.1971 51.1154 39.8895 50.9533C37.7843 49.847 35.7471 48.6311 33.7591 47.3351C33.4813 47.1555 33.2075 46.9749 32.9336 46.7931C31.0698 45.5545 29.2477 44.2496 27.4532 42.9085C27.4646 42.7946 27.4756 42.6789 27.487 42.5672C27.5098 42.349 27.5322 42.1321 27.5577 41.9187C27.7398 42.0642 27.9245 42.2061 28.1093 42.3463C28.1181 42.3516 28.1229 42.3577 28.1317 42.363C29.8722 43.6814 31.6557 44.9476 33.4725 46.163C33.5871 46.241 33.7051 46.3199 33.8219 46.3953C34.0935 46.5771 34.3674 46.7554 34.6451 46.9346C36.5994 48.1842 38.6651 49.3436 40.8093 50.4779C41.1147 50.6396 41.4197 50.7991 41.7278 50.9608C42.1675 51.1904 42.6125 51.4191 43.0575 51.6487C44.5466 52.4089 46.0444 53.1515 47.5637 53.8504C47.8656 53.9932 48.1733 54.1325 48.4787 54.2692C50.1275 55.0071 51.8013 55.6924 53.5093 56.2843C53.6725 56.3434 53.8397 56.4 54.0056 56.4552Z" fill="#E6A228"/>
<path d="M54.7218 49.153C54.7192 49.4264 54.717 49.7199 54.7082 50.0223C54.3914 49.9219 54.0785 49.8181 53.7643 49.7125C52.6834 49.3523 51.6117 48.9611 50.5558 48.5282C49.7027 48.1706 48.8596 47.7903 48.0227 47.3938C47.7173 47.2549 47.4119 47.109 47.1077 46.9587C45.4866 46.1758 43.8857 45.3516 42.2821 44.5336C41.8424 44.3075 41.4035 44.0779 40.9638 43.8483L40.0562 43.3703C38.0296 42.2938 36.0174 41.1874 34.0518 40.0053C33.7556 39.8296 33.4589 39.6504 33.1649 39.4659C31.6114 38.5073 30.0885 37.496 28.6192 36.412C28.7009 36.1299 28.7838 35.8565 28.8747 35.5879C28.9949 35.6808 29.1094 35.7636 29.2099 35.8249C30.763 36.9426 32.5716 38.1059 33.9175 38.9402C33.9856 38.9818 34.0518 39.0243 34.1185 39.0633C34.4104 39.2451 34.7031 39.4208 34.9971 39.5965C36.9487 40.7646 38.9494 41.8508 40.9651 42.905C41.2666 43.064 41.572 43.2209 41.8775 43.3764C42.8675 43.8908 43.8642 44.3991 44.8582 44.9047C45.8939 45.4243 46.9265 45.9449 47.971 46.4443C48.2738 46.5872 48.5779 46.7291 48.8833 46.872C49.6083 47.2072 50.3386 47.5318 51.0802 47.8355C52.2774 48.3161 53.4264 48.7262 54.5599 49.1017L54.7218 49.153Z" fill="#E6A228"/>
<path d="M54.6516 44.2597C54.3045 44.1007 53.9578 43.9386 53.6098 43.7708H53.6072C53.3193 43.6362 53.0327 43.4995 52.7474 43.3602C51.2334 42.625 49.7391 41.8547 48.2549 41.0582C47.9157 40.8785 47.5777 40.698 47.2385 40.5135C46.9506 40.3606 46.6614 40.2038 46.3762 40.0417C44.5264 39.0269 42.7016 37.9605 40.9072 36.8449H40.9045C40.6333 36.6767 40.3617 36.5097 40.0926 36.3367H40.0905C38.346 35.2352 36.6332 34.0898 34.9541 32.8968C34.6877 32.7097 34.4253 32.5213 34.165 32.332C33.2641 31.6809 32.3706 31.0158 31.492 30.3397C31.6566 30.1163 31.8251 29.9042 31.9936 29.7048C32.1784 29.8442 32.3631 29.9783 32.5479 30.115C33.3874 30.7275 34.2265 31.3356 35.0748 31.9368C35.3377 32.1239 35.604 32.3105 35.8704 32.495C36.8557 33.1877 37.8497 33.8725 38.8538 34.5403C39.5537 34.9955 40.2651 35.4485 40.984 35.8976C41.253 36.0681 41.5242 36.2363 41.798 36.4033C43.5499 37.4824 45.3607 38.541 47.2122 39.561C47.4948 39.7179 47.7774 39.8739 48.0627 40.0281H48.0653C49.851 40.9977 51.6731 41.9248 53.5207 42.8033C53.8082 42.94 54.0974 43.0741 54.3826 43.2108C54.4581 43.245 54.5336 43.2774 54.6086 43.3116V43.3138C54.6262 43.6288 54.6402 43.9412 54.6516 44.2597Z" fill="#E6A228"/>
<path d="M53.8095 36.8664C53.5971 36.7573 53.3833 36.6456 53.1709 36.5312C52.8997 36.3919 52.6281 36.2464 52.3595 36.101C50.7243 35.2264 49.1093 34.3094 47.5224 33.3481C47.2447 33.1864 46.9682 33.0159 46.6943 32.8451C45.0403 31.8277 43.4104 30.7639 41.8182 29.6483C41.773 29.6181 41.7318 29.587 41.6861 29.5554C41.4702 29.4047 41.253 29.2566 41.0366 29.109C39.853 28.287 38.6651 27.4628 37.4929 26.6247C37.2941 26.4739 37.0896 26.3285 36.8881 26.1777C37.1914 26.0498 37.5293 25.9482 37.8874 25.8732C39.1969 26.8341 40.5464 27.745 41.881 28.6734C42.0455 28.7878 42.2114 28.903 42.3738 29.0174C42.469 29.0836 42.5608 29.1488 42.6564 29.2128C44.2324 30.3082 45.8535 31.3597 47.5097 32.371C47.7836 32.5388 48.0614 32.7057 48.3418 32.8714C49.8949 33.7998 51.4796 34.6905 53.0919 35.5463C53.2403 35.6278 53.3912 35.7084 53.5431 35.7872C53.5795 35.9152 53.6133 36.0444 53.6436 36.1724C53.7028 36.3993 53.7594 36.6302 53.8095 36.8664Z" fill="#E6A228"/>
<path d="M54.1311 55.8352C54.0921 56.0424 54.0495 56.2492 54.0056 56.4561C53.9666 56.6431 53.9214 56.8276 53.8801 57.0147C53.7871 57.0787 53.6976 57.1461 53.6058 57.2101C53.4189 57.342 53.2315 57.4726 53.0467 57.6044C51.197 58.8952 49.2765 60.0795 47.3087 61.1811C47.0059 61.3519 46.7018 61.5202 46.3963 61.6819C45.1259 62.3746 43.8352 63.0318 42.5336 63.6605C42.0359 63.9015 41.5369 64.1386 41.0353 64.3708C40.7224 64.5184 40.406 64.6643 40.0891 64.8032C38.5584 65.4933 37.004 66.1356 35.4254 66.7044C35.0059 66.5764 34.5947 66.4218 34.1966 66.2439C34.3362 66.1935 34.4793 66.1457 34.6215 66.0958C36.1631 65.5674 37.675 64.9614 39.164 64.3016C39.4519 64.1762 39.7385 64.047 40.0237 63.9164C40.0514 63.9024 40.083 63.8914 40.1106 63.8774H40.1128C41.8963 63.0668 43.6908 62.1835 45.4651 61.2341C45.7679 61.0746 46.0698 60.9103 46.3687 60.742C48.538 59.5516 50.6629 58.2582 52.661 56.878C52.9462 56.6848 53.2262 56.4863 53.5067 56.2882C53.7164 56.134 53.924 55.9833 54.1311 55.8352Z" fill="#E6A228"/>
<path d="M54.7381 50.031C54.7293 50.0363 54.7179 50.045 54.7082 50.0564C52.7211 51.5821 50.619 52.9631 48.4774 54.2706C48.1895 54.4502 47.9007 54.6233 47.6102 54.799C47.1657 55.0649 46.7207 55.3269 46.2757 55.5894C44.73 56.4915 43.1655 57.3608 41.5848 58.1964C41.2929 58.3497 41.0028 58.504 40.7088 58.6569C39.0236 59.5314 37.3156 60.3731 35.5953 61.1775C35.2925 61.3204 34.9932 61.4597 34.6917 61.5964C33.3457 62.2138 31.991 62.8123 30.6248 63.388C30.4602 63.1672 30.3009 62.9354 30.1487 62.6918C30.4958 62.5463 30.8398 62.3982 31.1844 62.2501C32.0827 61.8589 32.9749 61.4597 33.8636 61.0509H33.8662C34.165 60.9142 34.4591 60.7749 34.7597 60.6342H34.7619C35.4254 60.3245 36.0828 60.0108 36.7411 59.6922C37.8106 59.1774 38.8437 58.6696 39.8539 58.1552H39.8565C40.1532 58.0045 40.4411 57.8529 40.7325 57.7021C42.7644 56.6458 44.7186 55.5618 46.7005 54.3735C46.9783 54.2053 47.2547 54.0388 47.5347 53.8679C47.5461 53.8631 47.5549 53.8565 47.5663 53.8478C49.6939 52.5631 51.7811 51.2018 53.7691 49.709C54.0381 49.5079 54.3032 49.3037 54.5674 49.0991C54.62 49.0575 54.674 49.015 54.7267 48.9738C54.7293 49.0325 54.7267 49.0916 54.7267 49.149C54.7245 49.4229 54.7219 49.7164 54.7131 50.0188C54.7157 50.0249 54.7271 50.0275 54.7381 50.031Z" fill="#E6A228"/>
<path d="M54.5963 43.0553C54.5257 43.1083 54.4528 43.1622 54.3839 43.2121C54.1263 43.4018 53.8687 43.5898 53.6111 43.7708H53.6085C52.0742 44.8657 50.4957 45.8923 48.8873 46.872C48.602 47.0477 48.3128 47.2207 48.0249 47.3916C46.6088 48.2386 45.1724 49.0513 43.7286 49.8479C43.0676 50.2308 42.3988 50.5997 41.7265 50.9595C41.4237 51.119 41.1222 51.2758 40.8194 51.4287C38.9104 52.4124 36.9588 53.3071 34.9809 54.1365C34.6728 54.2684 34.3647 54.3963 34.0545 54.5216C32.3693 55.2117 30.6652 55.8628 28.9488 56.4841C28.6408 56.5954 28.3305 56.7071 28.0185 56.8162C28.0163 56.8188 28.0097 56.8188 28.0075 56.8215C28.0049 56.8162 28.0022 56.8101 28.0049 56.8053C27.9482 56.5314 27.8982 56.2492 27.8539 55.9605C27.9522 55.9241 28.0527 55.8904 28.1532 55.858C28.452 55.7576 28.7527 55.6534 29.0515 55.5478C30.4541 55.0509 31.8479 54.5229 33.2277 53.9656C33.5379 53.8429 33.8486 53.715 34.1602 53.5857C34.4933 53.449 34.826 53.3097 35.1591 53.1691C36.7438 52.5092 38.3157 51.76 39.8895 50.9498C40.1971 50.7952 40.5025 50.6374 40.808 50.474C42.2018 49.7414 43.5991 48.9672 45.0091 48.168C45.7113 47.768 46.4113 47.3662 47.109 46.9522C47.3965 46.7843 47.6857 46.6113 47.9736 46.4404C49.5974 45.462 51.1983 44.4455 52.7488 43.3554C53.0064 43.1709 53.2666 42.9865 53.5216 42.7994C53.8613 42.5536 54.1965 42.3051 54.5296 42.0528C54.556 42.3906 54.5762 42.7205 54.5963 43.0553Z" fill="#E6A228"/>
<path d="M53.6436 36.1697C53.4865 36.2929 53.3307 36.4133 53.1709 36.5299C51.696 37.6502 50.1902 38.7268 48.617 39.7017C48.4348 39.8134 48.2501 39.9225 48.0653 40.0294H48.0627C47.7888 40.1972 47.5172 40.3567 47.2394 40.5122C45.484 41.5235 43.6847 42.4546 41.8797 43.3764C41.5747 43.5333 41.2692 43.6888 40.9651 43.8457C40.8216 43.9184 40.6772 43.9938 40.5341 44.0665C38.5887 45.0501 36.6297 46.0202 34.6452 46.9333C34.3511 47.0678 34.0571 47.2019 33.7604 47.3338C32.0085 48.1242 30.2369 48.8682 28.4332 49.5307H28.431C28.1181 49.6485 27.8039 49.7603 27.487 49.872C27.4282 49.8943 27.3663 49.9132 27.3075 49.9333C27.3049 49.8654 27.3022 49.7992 27.2987 49.7326V49.73C27.29 49.5044 27.2847 49.2796 27.2785 49.0588C27.3926 49.0176 27.5111 48.9725 27.6279 48.9308C28.8795 48.4703 30.1109 47.9809 31.0988 47.5734C31.7145 47.3224 32.3254 47.0617 32.9323 46.7944C33.229 46.6625 33.523 46.532 33.8197 46.3979C35.9244 45.444 37.9927 44.4192 40.0562 43.3716C40.3582 43.2187 40.661 43.064 40.9664 42.9072C41.425 42.6728 41.8876 42.4357 42.3462 42.2009C43.6983 41.4972 45.0504 40.7922 46.3762 40.043C46.6566 39.8861 46.9331 39.7266 47.2109 39.565C47.6001 39.3415 47.9837 39.1097 48.3642 38.8749C49.812 37.964 51.1079 37.0443 52.3582 36.1023C52.6044 35.9204 52.8484 35.736 53.0919 35.5463C53.1986 35.4687 53.3017 35.3872 53.4088 35.3053C53.4566 35.4648 53.5018 35.6242 53.5431 35.7859C53.5795 35.9125 53.6133 36.0405 53.6436 36.1697Z" fill="#E6A228"/>
<path d="M51.4445 30.9444C50.4255 31.6117 49.3924 32.2518 48.3431 32.87C48.0715 33.0322 47.7976 33.1912 47.5224 33.3481C45.6499 34.4299 43.7347 35.4411 41.798 36.4059C41.5018 36.554 41.2051 36.7021 40.9085 36.8449H40.9058C40.7601 36.9177 40.618 36.9904 40.4723 37.0609C38.6703 37.9491 36.8482 38.7982 34.9997 39.5978C34.6864 39.7367 34.37 39.8747 34.0531 40.0053C32.0941 40.8387 30.1096 41.6203 28.108 42.3463C27.9004 42.4195 27.6933 42.4944 27.4857 42.5672C27.5085 42.349 27.5309 42.1321 27.5563 41.9187C27.5651 41.821 27.5765 41.7207 27.5901 41.6251C28.2901 41.3767 28.9861 41.1243 29.6813 40.8649C30.835 40.4207 31.9984 39.954 33.1662 39.4646C33.4853 39.3327 33.8021 39.1987 34.1212 39.062C36.1079 38.215 38.1046 37.3067 40.0918 36.3345H40.094C40.3906 36.1912 40.6873 36.0471 40.984 35.899C42.9127 34.9377 44.8244 33.9203 46.6943 32.8438C46.9682 32.6869 47.2398 32.5314 47.511 32.3684C48.6762 31.6897 49.8234 30.9821 50.9481 30.253C51.1215 30.4777 51.2874 30.706 51.4445 30.9444Z" fill="#E6A228"/>
<path d="M46.7948 26.9485C45.4313 27.731 44.0515 28.485 42.6577 29.2115C42.3773 29.3622 42.0986 29.5051 41.8182 29.647C39.864 30.6534 37.8799 31.6055 35.8704 32.495C35.565 32.6317 35.2595 32.7636 34.9554 32.8955C32.9902 33.7446 31.0009 34.535 28.9852 35.2593C29.1055 34.9039 29.2341 34.5626 29.3657 34.2366C30.9755 33.6469 32.5768 33.0094 34.1664 32.3307C34.4718 32.1988 34.7733 32.0709 35.0761 31.9368C37.0808 31.0561 39.0701 30.1123 41.0379 29.109C41.3206 28.9657 41.6032 28.8215 41.8836 28.6734C43.2046 27.9908 44.515 27.2819 45.8131 26.5445C46.1537 26.6658 46.4806 26.8004 46.7948 26.9485Z" fill="#E6A228"/>
<path d="M42.8728 46.7528C42.6626 46.8119 42.57 47.0341 42.4076 47.1629C42.3185 47.2483 42.2228 47.3298 42.125 47.4052C41.3157 48.0817 39.9544 47.5822 39.5875 47.1682C39.423 46.9824 39.4067 46.6586 39.1289 46.5946C38.7822 46.4868 38.4605 46.9022 38.6554 47.2107C39.0925 48.2837 40.5793 48.7503 41.6488 48.5194C42.1939 48.4204 42.6591 48.0927 43.0488 47.7102C43.1918 47.5472 43.4042 47.3925 43.4042 47.1568C43.4091 46.8873 43.1304 46.6787 42.8728 46.7528Z" fill="black"/>
<path d="M54.6718 38.7759C54.5911 38.5226 54.3927 38.3416 54.1838 38.2049C53.9126 38.0266 53.6348 37.8575 53.3447 37.7168C53.2741 37.6717 53.0718 37.5889 53.0077 37.5613C52.4258 37.3129 51.9272 37.1613 51.3844 37.0609C49.8159 36.7998 48.6306 36.5803 46.9581 36.5163C45.8522 36.4559 44.7212 36.5224 43.6544 36.8497C43.3274 36.9439 42.0333 37.3168 41.7805 38.0608C41.7379 38.2063 41.7129 38.357 41.694 38.5073C41.2955 38.4433 40.8922 38.4284 40.4977 38.4797C40.4775 38.3303 40.4521 38.1826 40.4121 38.038C40.158 37.294 38.8639 36.9203 38.5382 36.8274C37.4714 36.5001 36.3404 36.4335 35.2345 36.4935C33.5607 36.5575 32.3754 36.777 30.8087 37.0382C30.2667 37.1398 29.7668 37.2905 29.1849 37.539C29.1209 37.5666 28.9199 37.6494 28.8479 37.6945C28.5578 37.8347 28.28 38.0043 28.0088 38.1826C27.7999 38.3193 27.6015 38.5011 27.5212 38.7531C27.4216 39.0479 27.4519 39.3691 27.4936 39.6727C27.5146 39.8848 27.5814 40.0995 27.7257 40.2524C27.8438 40.3681 27.9934 40.4334 28.147 40.4772C28.2146 42.0203 28.7075 43.7055 29.1823 44.8959C29.9226 46.5096 32.0954 46.4592 33.5568 46.4268C34.3559 46.3703 35.1617 46.4067 35.9573 46.3085C36.6507 46.2073 37.3371 45.9549 37.9151 45.5321C39.06 44.7001 39.6731 43.3225 40.0036 41.9349C40.0742 41.6979 40.3871 40.758 40.5087 39.6679C40.8018 39.6215 41.1121 39.6053 41.2139 39.6276C41.371 39.6416 41.5268 39.664 41.6826 39.6903C41.8046 40.7808 42.1175 41.7193 42.1877 41.9564C42.5182 43.3427 43.1317 44.7215 44.2762 45.5536C44.8542 45.9764 45.5406 46.227 46.2344 46.33C47.0296 46.4268 47.8354 46.3913 48.6345 46.4478C50.0959 46.4807 52.2687 46.5307 53.009 44.9174C53.4838 43.7265 53.9767 42.0418 54.0447 40.4987C54.1979 40.4544 54.3475 40.3882 54.4656 40.2739C54.6099 40.121 54.6766 39.9063 54.6982 39.6942C54.742 39.3932 54.771 39.072 54.6718 38.7759Z" fill="black"/>
<path d="M45.904 44.1572C45.7657 44.4582 45.6222 44.7829 45.4778 45.1207C45.1961 45.0028 44.9437 44.8407 44.7186 44.6414C45.753 42.2587 46.8387 39.8975 47.9459 37.5477C48.1131 37.5587 48.2812 37.5714 48.4484 37.5863C48.5968 37.6077 48.7438 37.6292 48.8921 37.6481C47.8691 39.8073 46.8624 41.9713 45.904 44.1572ZM49.9642 37.801C48.7815 40.3142 47.6291 42.8397 46.5346 45.3928C46.84 45.4265 47.149 45.4318 47.4794 45.4379C47.6721 44.984 47.8591 44.5524 48.0412 44.1572C48.9562 42.0742 49.9138 40.0106 50.8867 37.9539C50.5598 37.8952 50.2543 37.8448 49.9642 37.801ZM36.9224 37.5565C36.6169 37.5276 36.2913 37.5074 35.9573 37.496C34.7154 40.131 33.5041 42.7783 32.3578 45.4554C32.6694 45.4716 32.9924 45.4716 33.3181 45.4642C33.5191 44.9888 33.7152 44.5344 33.9048 44.123C34.8751 41.9174 35.8919 39.7345 36.9224 37.5565ZM33.7894 37.5626C32.6409 40.0005 31.5183 42.4493 30.4501 44.9222C30.6713 45.0953 30.943 45.2171 31.2519 45.2999C31.4279 44.8845 31.6013 44.4884 31.7698 44.1243C32.7475 41.8985 33.7731 39.6955 34.8137 37.4986C34.4731 37.51 34.1286 37.5298 33.7894 37.5626Z" fill="white"/>
</svg>
